<svg width="24" height="24" viewBox="0 0 20 20" fill="none" xmlns="http://www.w3.org/2000/svg">
<path fill-rule="evenodd" clip-rule="evenodd" d="M8.08058 10.0645V17.2258C8.08058 17.3226 8.16123 17.4194 8.27413 17.4194H10.9354C11.0322 17.4194 11.129 17.3387 11.129 17.2258V9.93548H13.0483C13.1451 9.93548 13.2257 9.85484 13.2419 9.75806L13.4032 7.58064C13.4193 7.46774 13.3225 7.37097 13.2096 7.37097H11.1128V5.82258C11.1128 5.45161 11.4032 5.16129 11.7741 5.16129H13.258C13.3548 5.16129 13.4516 5.08064 13.4516 4.96774V2.79032C13.4516 2.69355 13.3709 2.59677 13.258 2.59677H10.7419C9.27413 2.59677 8.08058 3.79032 8.08058 5.25806V7.37097H6.758C6.66123 7.37097 6.56445 7.45161 6.56445 7.56451V9.75806C6.56445 9.85484 6.6451 9.95161 6.758 9.95161H8.08058V10.0645Z" fill="white"/>
</svg>
