<svg width="24" height="24" viewBox="0 0 24 24" fill="none" xmlns="http://www.w3.org/2000/svg">
<path d="M11.9999 2.40039C6.6983 2.40039 2.3999 6.69879 2.3999 12.0004C2.3999 16.4988 5.4975 20.2628 9.6735 21.3044C9.6287 21.1748 9.5999 21.0244 9.5999 20.838V19.1972C9.2103 19.1972 8.5575 19.1972 8.3935 19.1972C7.7367 19.1972 7.1527 18.9148 6.8695 18.39C6.5551 17.8068 6.5007 16.9148 5.7215 16.3692C5.4903 16.1876 5.6663 15.9804 5.9327 16.0084C6.4247 16.1476 6.8327 16.4852 7.2167 16.986C7.5991 17.4876 7.7791 17.6012 8.4935 17.6012C8.8399 17.6012 9.3583 17.5812 9.8463 17.5044C10.1087 16.838 10.5623 16.2244 11.1167 15.9348C7.9199 15.606 6.3943 14.0156 6.3943 11.8564C6.3943 10.9268 6.7903 10.0276 7.4631 9.26999C7.2423 8.51799 6.9647 6.98439 7.5479 6.40039C8.9863 6.40039 9.8559 7.33319 10.0647 7.58519C10.7815 7.33959 11.5687 7.20039 12.3959 7.20039C13.2247 7.20039 14.0151 7.33959 14.7335 7.58679C14.9399 7.33639 15.8103 6.40039 17.2519 6.40039C17.8375 6.98519 17.5567 8.52519 17.3335 9.27559C18.0023 10.0316 18.3959 10.9284 18.3959 11.8564C18.3959 14.014 16.8727 15.6036 13.6807 15.934C14.5591 16.3924 15.1999 17.6804 15.1999 18.6508V20.838C15.1999 20.9212 15.1815 20.9812 15.1719 21.0524C18.9127 19.7412 21.5999 16.1892 21.5999 12.0004C21.5999 6.69879 17.3015 2.40039 11.9999 2.40039Z" fill="white"/>
</svg>
