<svg width="24" height="24" viewBox="0 0 24 24" fill="none" xmlns="http://www.w3.org/2000/svg">
<path d="M8.63992 19.9579C8.63992 20.3854 8.41117 20.6404 8.0868 20.6404C7.97242 20.6404 7.84492 20.6085 7.70992 20.541L2.47867 17.8916C2.17117 17.736 1.91992 17.3235 1.91992 16.9766V3.99035C1.91992 3.64723 2.1018 3.44473 2.36242 3.44473C2.4543 3.44473 2.55742 3.4691 2.6643 3.52348L2.84805 3.61723H2.84992L8.61555 6.5366C8.62492 6.54223 8.63242 6.5516 8.63992 6.5591V19.9579ZM14.6812 4.2641L15.0337 3.68473C15.1593 3.47848 15.3899 3.36035 15.6243 3.36035C15.6787 3.36035 15.7349 3.36785 15.7893 3.38285C15.8305 3.39223 15.8737 3.40723 15.9187 3.42973L21.9993 6.50848C22.0012 6.50848 22.0012 6.51035 22.0012 6.51035L22.0068 6.51223C22.0105 6.5141 22.0105 6.51973 22.0143 6.5216C22.0443 6.54598 22.0574 6.58723 22.0368 6.62098L15.9805 16.5885L15.3618 17.6047L11.3493 9.7466L14.6812 4.2641ZM9.59992 14.691V8.43035L13.9105 16.8754L10.033 14.9122L9.59992 14.691ZM22.0799 19.9579C22.0799 20.3591 21.8418 20.5879 21.4912 20.5879C21.3337 20.5879 21.1537 20.5429 20.9643 20.4472L20.0962 20.0066L16.2187 18.0435L22.0799 8.39848V19.9579Z" fill="white"/>
</svg>
