<svg width="20" height="20" viewBox="0 0 20 20" fill="none" xmlns="http://www.w3.org/2000/svg">
<path d="M10.8333 4.16683C10.8333 3.70659 10.4602 3.3335 9.99992 3.3335C9.53968 3.3335 9.16658 3.70659 9.16658 4.16683V9.16675L4.16659 9.16675C3.70635 9.16675 3.33325 9.53985 3.33325 10.0001C3.33325 10.4603 3.70635 10.8334 4.16659 10.8334L9.16658 10.8334V15.8335C9.16658 16.2937 9.53968 16.6668 9.99992 16.6668C10.4602 16.6668 10.8333 16.2937 10.8333 15.8335V10.8334L15.8333 10.8334C16.2935 10.8334 16.6666 10.4603 16.6666 10.0001C16.6666 9.53985 16.2935 9.16675 15.8333 9.16675L10.8333 9.16675V4.16683Z" fill="white"/>
</svg>
