<svg width="58" height="54" viewBox="0 0 58 54" fill="none" xmlns="http://www.w3.org/2000/svg">
<path d="M28.8333 35.5V3L18 13.8333" stroke="#1E58FF" stroke-width="5.5" stroke-linecap="round" stroke-linejoin="round"/>
<path d="M28.8336 3L39.6669 13.8333" stroke="#1E58FF" stroke-width="5.5" stroke-linecap="round" stroke-linejoin="round"/>
<path d="M5.5 30C5.5 28.6193 4.38071 27.5 3 27.5C1.61929 27.5 0.5 28.6193 0.5 30H5.5ZM57.5 30C57.5 28.6193 56.3807 27.5 55 27.5C53.6193 27.5 52.5 28.6193 52.5 30H57.5ZM0.5 30V45H5.5V30H0.5ZM9 53.5H49V48.5H9V53.5ZM57.5 45V30H52.5V45H57.5ZM49 53.5C53.6944 53.5 57.5 49.6944 57.5 45H52.5C52.5 46.933 50.933 48.5 49 48.5V53.5ZM0.5 45C0.5 49.6944 4.30558 53.5 9 53.5V48.5C7.067 48.5 5.5 46.933 5.5 45H0.5Z" fill="#1E58FF"/>
</svg>
