<svg width="96" height="64" viewBox="0 0 96 64" fill="none" xmlns="http://www.w3.org/2000/svg">
<path d="M69.9452 39.0322C69.9443 50.121 62.3193 59.7539 51.527 62.3008C40.7347 64.8476 29.6075 59.6399 24.6491 49.7215C19.6907 39.8031 22.2025 27.7771 30.7163 20.6725C39.2302 13.5679 51.5116 13.2494 60.3823 19.9031L62.7162 21.902C67.3451 26.3983 69.9534 32.5791 69.9452 39.0322Z" fill="#FF5986"/>
<path d="M84.9999 14.993C86.7885 16.7049 87.8446 18.8427 87.8265 21.1551C87.7839 26.7051 81.5749 31.1627 73.9585 31.0988C70.8966 31.0754 68.0934 30.3216 65.8162 29.076C65.7003 29.0111 65.563 28.9965 65.4361 29.0356L62.074 30.1002L60.1342 30.6155C60.0426 30.64 59.9681 30.5303 60.0139 30.4366L62.0367 26.3069C62.0997 26.184 62.0869 26.0359 62.0037 25.9257C60.8709 24.448 60.23 22.7478 60.2406 20.9432C60.2864 15.3911 66.4954 10.942 74.1129 11.0006C77.0737 11.0229 79.8119 11.7245 82.0498 12.8988" fill="#FFE483"/>
<path d="M84.9999 14.993C86.7885 16.7049 87.8446 18.8427 87.8265 21.1551C87.7839 26.7051 81.5749 31.1627 73.9585 31.0988C70.8966 31.0754 68.0934 30.3216 65.8162 29.076C65.7003 29.0111 65.563 28.9965 65.4361 29.0356L62.074 30.1002L60.1342 30.6155C60.0426 30.64 59.9681 30.5303 60.0139 30.4366L62.0367 26.3069C62.0997 26.184 62.0869 26.0359 62.0037 25.9257C60.8709 24.448 60.23 22.7478 60.2406 20.9432C60.2864 15.3911 66.4954 10.942 74.1129 11.0006C77.0737 11.0229 79.8119 11.7245 82.0498 12.8988" stroke="#0D052C" stroke-width="0.5" stroke-linecap="round" stroke-linejoin="round"/>
<path d="M71.2522 23.8502L77.1133 17.9891" stroke="#0D052C" stroke-linecap="round" stroke-linejoin="round"/>
<path d="M71.2522 17.9891L77.1133 23.8502" stroke="#0D052C" stroke-linecap="round" stroke-linejoin="round"/>
<path d="M79.2415 25.0816L80.5137 26.5785L79.2415 25.0816Z" fill="white"/>
<path d="M79.2415 25.0816L80.5137 26.5785" stroke="#0D052C" stroke-width="0.5" stroke-linecap="round" stroke-linejoin="round"/>
<path d="M79.6343 24.0596L81.8029 26.6104L79.6343 24.0596Z" fill="white"/>
<path d="M79.6343 24.0596L81.8029 26.6104" stroke="#0D052C" stroke-width="0.5" stroke-linecap="round" stroke-linejoin="round"/>
<path d="M80.9629 24.1384L81.6815 24.9848L80.9629 24.1384Z" fill="white"/>
<path d="M80.9629 24.1384L81.6815 24.9848" stroke="#0D052C" stroke-width="0.5" stroke-linecap="round" stroke-linejoin="round"/>
<path d="M64.4312 17.2862C64.6477 17.0447 64.8811 16.8188 65.1296 16.6102" stroke="#0D052C" stroke-width="0.5" stroke-linecap="round" stroke-linejoin="round"/>
<path d="M62.7734 21.3308C62.8151 20.0492 63.2508 18.8116 64.0212 17.7866" stroke="#0D052C" stroke-width="0.5" stroke-linecap="round" stroke-linejoin="round"/>
<path d="M69.0389 55.4967C69.0389 57.441 70.6149 59.0173 72.5592 59.0176H72.6048L85.9136 58.9666C87.105 58.9608 88.1877 58.2729 88.699 57.1967C89.2103 56.1206 89.0597 54.8467 88.3115 53.9195C87.5634 52.9923 86.3501 52.5758 85.1902 52.848C85.9147 50.545 84.6738 48.0837 82.3913 47.2968C80.1088 46.5098 77.6147 47.6833 76.7659 49.9435C76.001 49.3855 74.9876 49.3044 74.1438 49.7336C73.2999 50.1628 72.7686 51.0295 72.769 51.9763V51.9848C72.699 51.9805 72.6285 51.9787 72.5574 51.9787C70.6148 51.9797 69.0402 53.5541 69.0389 55.4967Z" fill="white" stroke="#0D052C" stroke-width="0.5" stroke-linecap="round" stroke-linejoin="round"/>
<path d="M76.7659 49.9435C76.5807 50.441 76.486 50.9676 76.4862 51.4985C76.4862 51.6564 76.4946 51.8143 76.5112 51.9714" fill="white"/>
<path d="M76.7659 49.9435C76.5807 50.441 76.486 50.9676 76.4862 51.4985C76.4862 51.6564 76.4946 51.8143 76.5112 51.9714" stroke="#0D052C" stroke-width="0.5" stroke-linecap="round" stroke-linejoin="round"/>
<path d="M85.1902 52.8474C84.696 52.9662 84.2386 53.2046 83.8583 53.5416L85.1902 52.8474Z" fill="white"/>
<path d="M85.1902 52.8474C84.696 52.9662 84.2386 53.2046 83.8583 53.5416" stroke="#0D052C" stroke-width="0.5" stroke-linecap="round" stroke-linejoin="round"/>
<path d="M74.0012 52.2839C73.5478 52.0804 73.0563 51.9756 72.5593 51.9763L74.0012 52.2839Z" fill="white"/>
<path d="M74.0012 52.2839C73.5478 52.0804 73.0563 51.9756 72.5593 51.9763" stroke="#0D052C" stroke-width="0.5" stroke-linecap="round" stroke-linejoin="round"/>
<path d="M83.0869 48.8188C82.9691 48.7515 82.8427 48.7004 82.7112 48.6669L83.0869 48.8188Z" fill="white"/>
<path d="M83.0869 48.8188C82.9691 48.7515 82.8427 48.7004 82.7112 48.6669" stroke="#0D052C" stroke-width="0.5" stroke-linecap="round" stroke-linejoin="round"/>
<path d="M84.0352 50.3435C84.0352 49.8286 83.7428 49.3143 83.3336 48.9848L84.0352 50.3435Z" fill="white"/>
<path d="M84.0352 50.3435C84.0352 49.8286 83.7428 49.3143 83.3336 48.9848" stroke="#0D052C" stroke-width="0.5" stroke-linecap="round" stroke-linejoin="round"/>
<path d="M56.8516 21.3914C57.2787 21.7091 57.6889 22.0489 58.0806 22.4094" stroke="#0D052C" stroke-width="0.5" stroke-linecap="round" stroke-linejoin="round"/>
<path d="M50.5422 18.6676C52.4296 19.0004 54.2347 19.6956 55.8577 20.7149" stroke="#0D052C" stroke-width="0.5" stroke-linecap="round" stroke-linejoin="round"/>
<path d="M30.5593 26.0335L32.7693 28.8862" stroke="#0D052C" stroke-width="0.5" stroke-linecap="round" stroke-linejoin="round"/>
<path d="M32.0864 26.1334L32.6309 26.8357" stroke="#0D052C" stroke-width="0.5" stroke-linecap="round" stroke-linejoin="round"/>
<path d="M30.1084 27.3205L31.2891 28.8443" stroke="#0D052C" stroke-width="0.5" stroke-linecap="round" stroke-linejoin="round"/>
<path d="M51.4055 49.7259H40.8181C40.6377 49.7259 40.496 49.4859 40.5137 49.2088C40.8149 43.4875 43.2069 39.0338 46.1126 39.0338C49.0184 39.0338 51.4087 43.4875 51.7099 49.2088C51.7244 49.4859 51.5859 49.7259 51.4055 49.7259Z" fill="white" stroke="#0D052C" stroke-width="0.5" stroke-linecap="round" stroke-linejoin="round"/>
<path d="M64.9101 53.7108C63.609 55.383 62.0925 56.8757 60.4 58.15C60.1255 57.7201 59.7926 57.3304 59.411 56.9919C58.6411 56.3074 57.6795 55.8306 57.048 55.0188C55.1393 52.5672 57.135 48.5001 55.1667 46.0985C54.4837 45.2641 53.4126 44.7809 52.8585 43.858C52.4558 43.1879 52.3753 42.3761 52.3221 41.6029C52.1723 39.7312 53.179 37.8612 53.0309 35.9895H54.859C54.9246 36.6982 54.9895 37.408 55.0539 38.1189C55.1168 38.8067 55.1844 39.5138 55.4888 40.1355C56.3119 41.8204 58.6733 42.5339 59.0518 44.3702C59.1903 45.0435 59.0196 45.7457 59.1082 46.4287C59.3192 48.0555 60.8655 49.1009 62.0929 50.1882C63.2266 51.1925 64.1795 52.3841 64.9101 53.7108Z" fill="#87D4FF" stroke="#0D052C" stroke-width="0.5" stroke-linecap="round" stroke-linejoin="round"/>
<path d="M67.2247 50.1141C66.5621 51.3776 65.7874 52.5792 64.9101 53.7044C64.1811 52.3756 63.2293 51.1818 62.0961 50.1753C60.8687 49.088 59.3224 48.0427 59.1114 46.4158C59.0228 45.7329 59.1936 45.0306 59.0551 44.3573C58.6765 42.5211 56.3168 41.8075 55.4921 40.1227C55.1877 39.5009 55.12 38.7938 55.0572 38.106C54.9944 37.4182 54.9283 36.6853 54.8623 35.9766H56.676C56.7978 36.2457 56.9053 36.521 56.9981 36.8013C57.301 37.7162 57.512 38.7616 58.2867 39.3221C59.192 39.9664 60.611 39.7586 61.3085 40.6284C61.7917 41.2341 61.7031 42.099 61.7917 42.8706C61.9813 44.3033 62.8663 45.55 64.1563 46.2016C64.604 46.4223 65.0969 46.5688 65.4755 46.8942C66.4226 47.7076 66.313 49.2894 67.2247 50.1141Z" fill="#7774FF" stroke="#0D052C" stroke-width="0.5" stroke-linecap="round" stroke-linejoin="round"/>
<path d="M50.1863 35.9831H59.018" stroke="#0D052C" stroke-width="0.5" stroke-linecap="round" stroke-linejoin="round"/>
<path d="M63.2188 53.4418C63.3756 53.7404 63.5134 54.0487 63.6311 54.3648" stroke="#0D052C" stroke-width="0.5" stroke-linecap="round" stroke-linejoin="round"/>
<path d="M61.9109 51.7844C62.3003 52.1047 62.6358 52.4854 62.9047 52.9119" stroke="#0D052C" stroke-width="0.5" stroke-linecap="round" stroke-linejoin="round"/>
<path d="M39.4427 41.5965C39.3815 42.3761 39.309 43.1879 38.9063 43.8515C38.3522 44.7745 37.2811 45.2577 36.5981 46.0921C34.6298 48.5033 36.6255 52.5672 34.7248 55.0188C34.0934 55.8241 33.1318 56.3074 32.3619 56.9919C32.0265 57.2903 31.728 57.6277 31.4728 57.997C29.8841 56.7736 28.454 55.3571 27.2156 53.7801C27.9458 52.4252 28.9062 51.2075 30.0537 50.1817C31.2811 49.0945 32.8274 48.0491 33.0384 46.4223C33.127 45.7393 32.9562 45.037 33.0948 44.3637C33.4733 42.5275 35.833 41.8139 36.6577 40.1291C36.9622 39.5074 37.0298 38.8002 37.0926 38.1125C37.1554 37.4247 37.2215 36.6918 37.2875 35.9831H39.0271C38.8854 37.8547 39.5925 39.7248 39.4427 41.5965Z" fill="#FFB8D2" stroke="#0D052C" stroke-width="0.5" stroke-linecap="round" stroke-linejoin="round"/>
<path d="M37.3021 35.9831C37.2366 36.6918 37.1716 37.4016 37.1072 38.1125C37.0444 38.8002 36.9767 39.5074 36.6723 40.1291C35.8492 41.8139 33.4879 42.5275 33.1093 44.3637C32.9708 45.037 33.1416 45.7393 33.053 46.4223C32.842 48.0491 31.2956 49.0945 30.0683 50.1817C28.9157 51.2058 27.9504 52.423 27.2156 53.7785C26.27 52.5718 25.442 51.2773 24.7432 49.9127C25.4487 49.0478 25.4229 47.6432 26.2863 46.899C26.6648 46.5769 27.1577 46.4271 27.6054 46.2064C28.8955 45.5548 29.7804 44.3082 29.97 42.8754C30.0634 42.1039 29.97 41.2389 30.4532 40.6333C31.1507 39.7635 32.5697 39.9761 33.475 39.3269C34.2562 38.7664 34.4672 37.7162 34.7636 36.8061C34.8564 36.5258 34.9639 36.2505 35.0857 35.9814L37.3021 35.9831Z" fill="#FFE483" stroke="#0D052C" stroke-width="0.5" stroke-linecap="round" stroke-linejoin="round"/>
<path d="M32.7695 35.9831H41.3338" stroke="#0D052C" stroke-width="0.5" stroke-linecap="round" stroke-linejoin="round"/>
<path d="M33.0095 54.8239C34.0234 54.4481 34.695 53.4794 34.6911 52.3981" stroke="#0D052C" stroke-width="0.5" stroke-linecap="round" stroke-linejoin="round"/>
<path d="M38.5006 42.1651C38.6554 41.5369 38.6958 40.886 38.6198 40.2435" stroke="#0D052C" stroke-width="0.5" stroke-linecap="round" stroke-linejoin="round"/>
<path d="M35.0825 46.4094C35.0825 46.4094 35.1051 45.0644 37.0525 44.106C37.6511 43.7993 38.1115 43.2773 38.341 42.6451" stroke="#0D052C" stroke-width="0.5" stroke-linecap="round" stroke-linejoin="round"/>
<path d="M29.9454 38.8953C29.9454 41.6174 27.739 43.8242 25.0169 43.8247H24.9531L6.32076 43.7532C4.65282 43.7452 3.13703 42.7821 2.42124 41.2755C1.70546 39.7689 1.91632 37.9854 2.96371 36.6873C4.01109 35.3892 5.7097 34.8061 7.33353 35.1873C6.31921 31.963 8.05651 28.5172 11.252 27.4155C14.4475 26.3138 17.9392 27.9566 19.1276 31.1209C20.1984 30.3398 21.6172 30.2262 22.7986 30.8271C23.98 31.428 24.7239 32.6414 24.7233 33.9668V33.9788C24.8212 33.9728 24.9199 33.9702 25.0195 33.9702C27.7391 33.9717 29.9436 36.1757 29.9454 38.8953Z" fill="white" stroke="#0D052C" stroke-width="0.583333" stroke-linecap="round" stroke-linejoin="round"/>
<path d="M19.1277 31.1209C19.3869 31.8174 19.5195 32.5547 19.5192 33.2979C19.5192 33.5191 19.5075 33.7401 19.4843 33.96" fill="white"/>
<path d="M19.1277 31.1209C19.3869 31.8174 19.5195 32.5547 19.5192 33.2979C19.5192 33.5191 19.5075 33.7401 19.4843 33.96" stroke="#0D052C" stroke-width="0.583333" stroke-linecap="round" stroke-linejoin="round"/>
<path d="M7.3335 35.1864C8.02532 35.3526 8.66567 35.6864 9.19818 36.1583L7.3335 35.1864Z" fill="white"/>
<path d="M7.3335 35.1864C8.02532 35.3526 8.66567 35.6864 9.19818 36.1583" stroke="#0D052C" stroke-width="0.583333" stroke-linecap="round" stroke-linejoin="round"/>
<path d="M22.9983 34.3975C23.6331 34.1126 24.3212 33.9659 25.017 33.9668L22.9983 34.3975Z" fill="white"/>
<path d="M22.9983 34.3975C23.6331 34.1126 24.3212 33.9659 25.017 33.9668" stroke="#0D052C" stroke-width="0.583333" stroke-linecap="round" stroke-linejoin="round"/>
<path d="M4.22795 41.2009C3.65636 40.6962 3.32931 39.9702 3.33008 39.2077C3.33025 39.0568 3.34306 38.9062 3.36838 38.7575" fill="white"/>
<path d="M4.22795 41.2009C3.65636 40.6962 3.32931 39.9702 3.33008 39.2077C3.33025 39.0568 3.34306 38.9062 3.36838 38.7575" stroke="#0D052C" stroke-width="0.583333" stroke-linecap="round" stroke-linejoin="round"/>
<path d="M10.2781 29.5464C10.443 29.4522 10.6199 29.3806 10.804 29.3336L10.2781 29.5464Z" fill="white"/>
<path d="M10.2781 29.5464C10.443 29.4522 10.6199 29.3806 10.804 29.3336" stroke="#0D052C" stroke-width="0.583333" stroke-linecap="round" stroke-linejoin="round"/>
<path d="M8.95044 31.6809C8.95044 30.96 9.3598 30.24 9.93257 29.7787L8.95044 31.6809Z" fill="white"/>
<path d="M8.95044 31.6809C8.95044 30.96 9.3598 30.24 9.93257 29.7787" stroke="#0D052C" stroke-width="0.583333" stroke-linecap="round" stroke-linejoin="round"/>
<path d="M13.063 34.7635L13.6426 35.806" stroke="#0D052C" stroke-width="0.583333" stroke-linecap="round" stroke-linejoin="round"/>
<path d="M13.4954 34.0792L14.48 35.8486" stroke="#0D052C" stroke-width="0.583333" stroke-linecap="round" stroke-linejoin="round"/>
<path d="M14.4478 34.3286L14.772 34.9124" stroke="#0D052C" stroke-width="0.583333" stroke-linecap="round" stroke-linejoin="round"/>
<path d="M16.8666 23.1825C16.4484 23.3572 15.971 23.1305 15.8423 22.6959L14.3253 17.5757C14.167 17.0416 14.6166 16.5238 15.1675 16.6056L25.3304 18.1128C26.0937 18.226 26.2244 19.2719 25.5124 19.5694L16.8666 23.1825Z" fill="#53F2D4"/>
<path d="M19.9865 14.2858C19.3949 14.2808 19.0345 13.6329 19.3422 13.1276L20.8743 10.612C21.126 10.1986 21.6944 10.1217 22.047 10.4533L24.7602 13.0047C25.2653 13.4796 24.9251 14.3275 24.2318 14.3216L19.9865 14.2858Z" fill="#53F2D4"/>
<path d="M23.4613 6.70527C23.0459 6.2168 23.3829 5.46487 24.0239 5.44994L29.6283 5.31936C30.0663 5.30915 30.4227 5.66961 30.4075 6.1075L30.1833 12.5634C30.1591 13.2588 29.2922 13.5606 28.8415 13.0306L23.4613 6.70527Z" fill="#53F2D4"/>
</svg>
