<svg width="96" height="64" viewBox="0 0 96 64" fill="none" xmlns="http://www.w3.org/2000/svg">
<path d="M23.1656 48.5441C22.1394 48.7545 18.2531 49.8835 17.142 54.9576C17.142 54.981 17.123 55 17.0996 55C17.0762 55 17.0572 54.981 17.0572 54.9576C15.9445 49.8835 12.0598 48.7578 11.0336 48.5441C11.0137 48.5386 11 48.5206 11 48.5C11 48.4794 11.0137 48.4614 11.0336 48.4559C12.0598 48.2455 15.9445 47.1197 17.0572 42.0424C17.0572 42.019 17.0762 42 17.0996 42C17.123 42 17.142 42.019 17.142 42.0424C18.2531 47.1197 22.1394 48.2422 23.1656 48.4559C23.1899 48.4559 23.2097 48.4757 23.2097 48.5C23.2097 48.5243 23.1899 48.5441 23.1656 48.5441Z" fill="#FFE483" stroke="#0D052C" stroke-width="0.5" stroke-linecap="round" stroke-linejoin="round"/>
<path d="M36.9454 18.8953C36.9454 21.6174 34.739 23.8242 32.0169 23.8246H31.9531L13.3208 23.7532C11.6528 23.7451 10.137 22.782 9.42124 21.2754C8.70546 19.7688 8.91632 17.9854 9.96371 16.6873C11.0111 15.3891 12.7097 14.8061 14.3335 15.1872C13.3192 11.9629 15.0565 8.51719 18.252 7.41544C21.4475 6.3137 24.9392 7.95653 26.1276 11.1208C27.1984 10.3397 28.6172 10.2262 29.7986 10.827C30.98 11.4279 31.7239 12.6413 31.7233 13.9668V13.9787C31.8212 13.9727 31.9199 13.9702 32.0195 13.9702C34.7391 13.9716 36.9436 16.1757 36.9454 18.8953Z" fill="white" stroke="#0D052C" stroke-width="0.583333" stroke-linecap="round" stroke-linejoin="round"/>
<path d="M26.1277 11.1208C26.3869 11.8174 26.5195 12.5547 26.5192 13.2979C26.5192 13.519 26.5075 13.7401 26.4843 13.96" fill="white"/>
<path d="M26.1277 11.1208C26.3869 11.8174 26.5195 12.5547 26.5192 13.2979C26.5192 13.519 26.5075 13.7401 26.4843 13.96" stroke="#0D052C" stroke-width="0.583333" stroke-linecap="round" stroke-linejoin="round"/>
<path d="M14.3335 15.1864C15.0253 15.3526 15.6657 15.6864 16.1982 16.1583L14.3335 15.1864Z" fill="white"/>
<path d="M14.3335 15.1864C15.0253 15.3526 15.6657 15.6864 16.1982 16.1583" stroke="#0D052C" stroke-width="0.583333" stroke-linecap="round" stroke-linejoin="round"/>
<path d="M29.9983 14.3974C30.6331 14.1126 31.3212 13.9658 32.017 13.9668L29.9983 14.3974Z" fill="white"/>
<path d="M29.9983 14.3974C30.6331 14.1126 31.3212 13.9658 32.017 13.9668" stroke="#0D052C" stroke-width="0.583333" stroke-linecap="round" stroke-linejoin="round"/>
<path d="M11.228 21.2009C10.6564 20.6962 10.3293 19.9702 10.3301 19.2077C10.3302 19.0568 10.3431 18.9062 10.3684 18.7574" fill="white"/>
<path d="M11.228 21.2009C10.6564 20.6962 10.3293 19.9702 10.3301 19.2077C10.3302 19.0568 10.3431 18.9062 10.3684 18.7574" stroke="#0D052C" stroke-width="0.583333" stroke-linecap="round" stroke-linejoin="round"/>
<path d="M17.2781 9.54638C17.443 9.45213 17.6199 9.38057 17.804 9.33362L17.2781 9.54638Z" fill="white"/>
<path d="M17.2781 9.54638C17.443 9.45213 17.6199 9.38057 17.804 9.33362" stroke="#0D052C" stroke-width="0.583333" stroke-linecap="round" stroke-linejoin="round"/>
<path d="M15.9504 11.6808C15.9504 10.96 16.3598 10.24 16.9326 9.77869L15.9504 11.6808Z" fill="white"/>
<path d="M15.9504 11.6808C15.9504 10.96 16.3598 10.24 16.9326 9.77869" stroke="#0D052C" stroke-width="0.583333" stroke-linecap="round" stroke-linejoin="round"/>
<path d="M20.063 14.7633L20.6426 15.8059" stroke="#0D052C" stroke-width="0.583333" stroke-linecap="round" stroke-linejoin="round"/>
<path d="M20.4954 14.0791L21.48 15.8485" stroke="#0D052C" stroke-width="0.583333" stroke-linecap="round" stroke-linejoin="round"/>
<path d="M21.4478 14.3285L21.772 14.9123" stroke="#0D052C" stroke-width="0.583333" stroke-linecap="round" stroke-linejoin="round"/>
<path d="M71.0389 52.4967C71.0389 54.441 72.6149 56.0173 74.5592 56.0176H74.6048L87.9136 55.9666C89.105 55.9608 90.1877 55.2729 90.699 54.1967C91.2103 53.1206 91.0597 51.8467 90.3115 50.9195C89.5634 49.9923 88.3501 49.5758 87.1902 49.848C87.9147 47.545 86.6738 45.0837 84.3913 44.2968C82.1088 43.5098 79.6147 44.6833 78.7659 46.9435C78.001 46.3855 76.9876 46.3044 76.1438 46.7336C75.2999 47.1628 74.7686 48.0295 74.769 48.9763V48.9848C74.699 48.9805 74.6285 48.9787 74.5574 48.9787C72.6148 48.9797 71.0402 50.5541 71.0389 52.4967Z" fill="white" stroke="#0D052C" stroke-width="0.5" stroke-linecap="round" stroke-linejoin="round"/>
<path d="M78.7659 46.9435C78.5807 47.441 78.486 47.9676 78.4862 48.4985C78.4862 48.6565 78.4946 48.8143 78.5112 48.9714" fill="white"/>
<path d="M78.7659 46.9435C78.5807 47.441 78.486 47.9676 78.4862 48.4985C78.4862 48.6565 78.4946 48.8143 78.5112 48.9714" stroke="#0D052C" stroke-width="0.5" stroke-linecap="round" stroke-linejoin="round"/>
<path d="M87.1902 49.8474C86.696 49.9662 86.2386 50.2046 85.8583 50.5416L87.1902 49.8474Z" fill="white"/>
<path d="M87.1902 49.8474C86.696 49.9662 86.2386 50.2046 85.8583 50.5416" stroke="#0D052C" stroke-width="0.5" stroke-linecap="round" stroke-linejoin="round"/>
<path d="M76.0012 49.2839C75.5478 49.0805 75.0563 48.9756 74.5593 48.9763L76.0012 49.2839Z" fill="white"/>
<path d="M76.0012 49.2839C75.5478 49.0805 75.0563 48.9756 74.5593 48.9763" stroke="#0D052C" stroke-width="0.5" stroke-linecap="round" stroke-linejoin="round"/>
<path d="M85.0869 45.8188C84.9691 45.7515 84.8427 45.7004 84.7112 45.6669L85.0869 45.8188Z" fill="white"/>
<path d="M85.0869 45.8188C84.9691 45.7515 84.8427 45.7004 84.7112 45.6669" stroke="#0D052C" stroke-width="0.5" stroke-linecap="round" stroke-linejoin="round"/>
<path d="M86.0352 47.3435C86.0352 46.8286 85.7428 46.3143 85.3336 45.9849L86.0352 47.3435Z" fill="white"/>
<path d="M86.0352 47.3435C86.0352 46.8286 85.7428 46.3143 85.3336 45.9849" stroke="#0D052C" stroke-width="0.5" stroke-linecap="round" stroke-linejoin="round"/>
<path fill-rule="evenodd" clip-rule="evenodd" d="M70.9452 36.0322C70.9443 47.121 63.3193 56.7539 52.527 59.3008C41.7347 61.8476 30.6075 56.6399 25.6491 46.7215C20.6907 36.8031 23.2025 24.7771 31.7163 17.6725C40.2302 10.5679 52.5116 10.2494 61.3823 16.9031L63.7162 18.902C68.3451 23.3983 70.9534 29.5791 70.9452 36.0322Z" fill="#53F2D4"/>
<path d="M35 33.6277C35.3722 31.6032 36.7649 30.0979 38.4286 30.0979C40.0922 30.0979 41.4882 31.6114 41.8571 33.6457" stroke="#0D052C" stroke-width="0.5" stroke-linecap="round" stroke-linejoin="round"/>
<path d="M52.0498 33.6277C52.422 31.6032 53.8131 30.0979 55.4784 30.0979C57.1437 30.0979 58.538 31.6114 58.9069 33.6457" stroke="#0D052C" stroke-width="0.5" stroke-linecap="round" stroke-linejoin="round"/>
<path d="M56.1413 40.1584C55.9666 44.6678 51.9209 48.2727 46.9527 48.2727C41.9846 48.2727 37.9389 44.6678 37.7642 40.1584C37.7641 40.0751 37.798 39.9954 37.8581 39.9377C37.9183 39.8801 37.9993 39.8495 38.0825 39.8531H55.8246C55.9075 39.85 55.9881 39.8807 56.0479 39.9383C56.1076 39.9959 56.1414 40.0754 56.1413 40.1584Z" fill="#1D1E5F" stroke="#0D052C" stroke-width="0.5" stroke-linecap="round" stroke-linejoin="round"/>
<path d="M54.1265 39.853C52.8432 42.0538 50.1542 43.5689 47.0424 43.5689C43.9306 43.5689 41.2416 42.0538 39.96 39.853H54.1265Z" fill="white" stroke="#0D052C" stroke-width="0.5" stroke-linecap="round" stroke-linejoin="round"/>
<path d="M57.8516 18.3914C58.2787 18.7091 58.6889 19.0489 59.0806 19.4093" stroke="#0D052C" stroke-width="0.5" stroke-linecap="round" stroke-linejoin="round"/>
<path d="M51.5422 15.6676C53.4296 16.0003 55.2347 16.6956 56.8577 17.7149" stroke="#0D052C" stroke-width="0.5" stroke-linecap="round" stroke-linejoin="round"/>
<path d="M56.5056 50.0806L58.7155 52.9332" stroke="#0D052C" stroke-width="0.5" stroke-linecap="round" stroke-linejoin="round"/>
<path d="M58.0327 50.1804L58.5771 50.8827" stroke="#0D052C" stroke-width="0.5" stroke-linecap="round" stroke-linejoin="round"/>
<path d="M56.0547 51.3676L57.2354 52.8913" stroke="#0D052C" stroke-width="0.5" stroke-linecap="round" stroke-linejoin="round"/>
<path d="M67.9711 7.28779C67.2987 7.42569 64.7524 8.16544 64.0244 11.4901C64.0244 11.5054 64.0119 11.5178 63.9966 11.5178C63.9812 11.5178 63.9688 11.5054 63.9688 11.4901C63.2397 8.16544 60.6944 7.42782 60.022 7.28779C60.009 7.28422 60 7.2724 60 7.25892C60 7.24544 60.009 7.23363 60.022 7.23006C60.6944 7.09216 63.2397 6.35454 63.9688 3.02779C63.9688 3.01244 63.9812 3 63.9966 3C64.0119 3 64.0244 3.01244 64.0244 3.02779C64.7524 6.35454 67.2987 7.09002 67.9711 7.23006C67.9871 7.23006 68 7.24298 68 7.25892C68 7.27486 67.9871 7.28779 67.9711 7.28779Z" fill="#FFE483" stroke="#0D052C" stroke-width="0.5" stroke-linecap="round" stroke-linejoin="round"/>
<path d="M89.0785 16.0733C90.8671 17.7852 91.9232 19.923 91.9051 22.2354C91.8625 27.7854 85.6536 32.243 78.0371 32.1791C74.9752 32.1557 72.172 31.402 69.8948 30.1563C69.7789 30.0914 69.6416 30.0768 69.5147 30.1159L66.1526 31.1805L64.2128 31.6958C64.1212 31.7203 64.0467 31.6106 64.0925 31.5169L66.1153 27.3872C66.1783 27.2643 66.1655 27.1163 66.0823 27.0061C64.9495 25.5283 64.3086 23.8281 64.3193 22.0236C64.365 16.4715 70.574 12.0223 78.1915 12.0809C81.1523 12.1033 83.8905 12.8048 86.1284 13.9791" fill="#FFE483"/>
<path d="M89.0785 16.0733C90.8671 17.7852 91.9232 19.923 91.9051 22.2354C91.8625 27.7854 85.6536 32.243 78.0371 32.1791C74.9752 32.1557 72.172 31.402 69.8948 30.1563C69.7789 30.0914 69.6416 30.0768 69.5147 30.1159L66.1526 31.1805L64.2128 31.6958C64.1212 31.7203 64.0467 31.6106 64.0925 31.5169L66.1153 27.3872C66.1783 27.2643 66.1655 27.1163 66.0823 27.0061C64.9495 25.5283 64.3086 23.8281 64.3193 22.0236C64.365 16.4715 70.574 12.0223 78.1915 12.0809C81.1523 12.1033 83.8905 12.8048 86.1284 13.9791" stroke="#0D052C" stroke-width="0.5" stroke-linecap="round" stroke-linejoin="round"/>
<path d="M81.6123 19.2711L76.0438 24.8396L73.5127 22.3085" stroke="#0D052C" stroke-width="0.875" stroke-linecap="round" stroke-linejoin="round"/>
<path d="M83.3201 26.162L84.5923 27.6589L83.3201 26.162Z" fill="white"/>
<path d="M83.3201 26.162L84.5923 27.6589" stroke="#0D052C" stroke-width="0.5" stroke-linecap="round" stroke-linejoin="round"/>
<path d="M83.7129 25.1399L85.8816 27.6908L83.7129 25.1399Z" fill="white"/>
<path d="M83.7129 25.1399L85.8816 27.6908" stroke="#0D052C" stroke-width="0.5" stroke-linecap="round" stroke-linejoin="round"/>
<path d="M85.0415 25.2186L85.7601 26.065L85.0415 25.2186Z" fill="white"/>
<path d="M85.0415 25.2186L85.7601 26.065" stroke="#0D052C" stroke-width="0.5" stroke-linecap="round" stroke-linejoin="round"/>
<path d="M68.5098 18.3665C68.7263 18.1249 68.9597 17.899 69.2082 17.6904" stroke="#0D052C" stroke-width="0.5" stroke-linecap="round" stroke-linejoin="round"/>
<path d="M66.8521 22.411C66.8937 21.1294 67.3294 19.8919 68.0998 18.8668" stroke="#0D052C" stroke-width="0.5" stroke-linecap="round" stroke-linejoin="round"/>
</svg>
