<svg width="18" height="18" viewBox="0 0 18 18" fill="none" xmlns="http://www.w3.org/2000/svg">
<path d="M2.8125 2.67188C2.03709 2.67188 1.40625 3.30272 1.40625 4.07812V13.9219C1.40625 14.6973 2.03709 15.3281 2.8125 15.3281H15.1875C15.9629 15.3281 16.5938 14.6973 16.5938 13.9219V4.07812C16.5938 3.30272 15.9629 2.67188 15.1875 2.67188H2.8125ZM2.8125 1.26562H15.1875C16.7408 1.26562 18 2.52482 18 4.07812V13.9219C18 15.4752 16.7408 16.7344 15.1875 16.7344H2.8125C1.25919 16.7344 0 15.4752 0 13.9219V4.07812C0 2.52482 1.25919 1.26562 2.8125 1.26562Z" fill="white"/>
<path d="M11.1094 7.10156C10.7217 7.10156 10.4062 7.41698 10.4062 7.80469V10.1953C10.4062 10.583 10.7217 10.8984 11.1094 10.8984H16.5938V7.10156H11.1094ZM11.1094 5.69531H18V12.3047H11.1094C9.9444 12.3047 9 11.3603 9 10.1953V7.80469C9 6.63971 9.9444 5.69531 11.1094 5.69531Z" fill="white"/>
<path d="M15.1875 8.29688C15.3266 8.29687 15.4625 8.33811 15.5781 8.41537C15.6938 8.49263 15.7839 8.60245 15.8371 8.73093C15.8903 8.8594 15.9042 9.00078 15.8771 9.13717C15.85 9.27357 15.783 9.39885 15.6847 9.49718C15.5864 9.59552 15.4611 9.66248 15.3247 9.68961C15.1883 9.71674 15.0469 9.70282 14.9184 9.6496C14.7899 9.59639 14.6801 9.50626 14.6029 9.39064C14.5256 9.27501 14.4844 9.13906 14.4844 9C14.4844 8.81352 14.5585 8.63468 14.6903 8.50282C14.8222 8.37095 15.001 8.29688 15.1875 8.29688Z" fill="white"/>
</svg>
