<svg width="18" height="18" viewBox="0 0 18 18" fill="none" xmlns="http://www.w3.org/2000/svg">
<g clip-path="url(#clip0_761_3940)">
<path d="M2.38494 7.29929V3.96624C2.38494 3.75849 2.42586 3.55277 2.50537 3.36082C2.58487 3.16888 2.7014 2.99448 2.84831 2.84758C2.99521 2.70067 3.16962 2.58414 3.36156 2.50464C3.5535 2.42513 3.75922 2.38421 3.96697 2.38421H14.0344C14.2422 2.38421 14.4479 2.42513 14.6399 2.50464C14.8318 2.58414 15.0062 2.70067 15.1531 2.84758C15.3 2.99448 15.4165 3.16888 15.4961 3.36082C15.5756 3.55277 15.6165 3.75849 15.6165 3.96624V14.0337C15.6165 14.4533 15.4498 14.8557 15.1531 15.1524C14.8564 15.4491 14.454 15.6157 14.0344 15.6157H3.96697C3.75922 15.6157 3.5535 15.5748 3.36156 15.4953C3.16962 15.4158 2.99521 15.2993 2.84831 15.1524C2.7014 15.0055 2.58487 14.8311 2.50537 14.6391C2.42586 14.4472 2.38494 14.2415 2.38494 14.0337V11.9807C2.38496 11.9051 2.37008 11.8303 2.34118 11.7605C2.31227 11.6907 2.2699 11.6273 2.21648 11.5738C2.16306 11.5204 2.09964 11.478 2.02983 11.4491C1.96003 11.4202 1.88521 11.4053 1.80966 11.4053C1.7341 11.4053 1.65929 11.4202 1.58949 11.4491C1.51968 11.478 1.45626 11.5204 1.40284 11.5738C1.34942 11.6273 1.30704 11.6907 1.27814 11.7605C1.24923 11.8303 1.23436 11.9051 1.23438 11.9807V14.0337C1.23438 14.3926 1.30506 14.7479 1.44238 15.0794C1.57971 15.411 1.78099 15.7122 2.03473 15.966C2.28848 16.2197 2.58972 16.421 2.92125 16.5583C3.25279 16.6956 3.60812 16.7663 3.96697 16.7663H14.0344C14.3933 16.7663 14.7486 16.6956 15.0802 16.5583C15.4117 16.421 15.7129 16.2197 15.9667 15.966C16.2204 15.7122 16.4217 15.411 16.559 15.0794C16.6964 14.7479 16.767 14.3926 16.767 14.0337V3.96624C16.767 3.60739 16.6964 3.25206 16.559 2.92052C16.4217 2.58899 16.2204 2.28775 15.9667 2.034C15.7129 1.78026 15.4117 1.57898 15.0802 1.44165C14.7486 1.30432 14.3933 1.23364 14.0344 1.23364H3.96697C3.60812 1.23364 3.25279 1.30432 2.92125 1.44165C2.58972 1.57898 2.28848 1.78026 2.03473 2.034C1.78099 2.28775 1.57971 2.58899 1.44238 2.92052C1.30506 3.25206 1.23438 3.60739 1.23438 3.96624V7.29929C1.23436 7.37485 1.24923 7.44967 1.27814 7.51947C1.30704 7.58928 1.34942 7.65271 1.40284 7.70614C1.45626 7.75957 1.51968 7.80196 1.58949 7.83087C1.65929 7.85979 1.7341 7.87467 1.80966 7.87467C1.88521 7.87467 1.96003 7.85979 2.02983 7.83087C2.09964 7.80196 2.16306 7.75957 2.21648 7.70614C2.2699 7.65271 2.31227 7.58928 2.34118 7.51947C2.37008 7.44967 2.38496 7.37485 2.38494 7.29929Z" fill="white" stroke="white" stroke-width="0.5"/>
<path d="M12.231 5.97979H10.5699C10.4944 5.9798 10.4195 5.96493 10.3497 5.93603C10.2799 5.90712 10.2165 5.86475 10.1631 5.81133C10.1096 5.75791 10.0672 5.69448 10.0383 5.62468C10.0094 5.55488 9.99453 5.48006 9.99453 5.40451C9.99453 5.32895 10.0094 5.25414 10.0383 5.18433C10.0672 5.11453 10.1096 5.05111 10.1631 4.99769C10.2165 4.94427 10.2799 4.90189 10.3497 4.87299C10.4195 4.84408 10.4944 4.82921 10.5699 4.82922H13.4154C13.5871 4.82922 13.7517 4.89741 13.873 5.01878C13.9944 5.14016 14.0626 5.30477 14.0626 5.47642V8.17522C14.0626 8.25078 14.0477 8.32559 14.0188 8.3954C13.9899 8.46521 13.9476 8.52864 13.8941 8.58207C13.8407 8.6355 13.7773 8.67788 13.7075 8.7068C13.6377 8.73572 13.5629 8.7506 13.4873 8.7506C13.4118 8.7506 13.3369 8.73572 13.2671 8.7068C13.1973 8.67788 13.1339 8.6355 13.0805 8.58207C13.0271 8.52864 12.9847 8.46521 12.9558 8.3954C12.9269 8.32559 12.912 8.25078 12.912 8.17522V6.93333L9.74222 10.2613C9.69979 10.3038 9.69979 10.3038 9.65305 10.3404C9.50047 10.4549 9.30869 10.504 9.11989 10.477C8.93108 10.4501 8.76073 10.3492 8.6463 10.1966L6.91326 7.88254L3.65211 11.1271C3.54308 11.2302 3.39809 11.2866 3.24807 11.2843C3.09805 11.282 2.95487 11.2212 2.84906 11.1148C2.74325 11.0084 2.68318 10.8649 2.68167 10.7149C2.68016 10.5649 2.73732 10.4202 2.84096 10.3117L6.45375 6.71688C6.52673 6.64428 6.61446 6.58819 6.71098 6.55242C6.80751 6.51664 6.9106 6.50201 7.01327 6.50951C7.11594 6.51701 7.2158 6.54646 7.30611 6.59589C7.39642 6.64531 7.47506 6.71354 7.53672 6.79598L9.26114 9.09783L12.231 5.97979Z" fill="white" stroke="white" stroke-width="0.5"/>
</g>
<defs>
<clipPath id="clip0_761_3940">
<rect width="18" height="18" fill="white"/>
</clipPath>
</defs>
</svg>
