<svg width="18" height="18" viewBox="0 0 18 18" fill="none" xmlns="http://www.w3.org/2000/svg">
<g clip-path="url(#clip0_761_3934)">
<path d="M8.95408 1C6.84143 1 4.8481 1.83237 3.34084 3.34821C1.84201 4.84723 1 6.8801 1 8.99977C1 11.1194 1.84201 13.1523 3.34084 14.6513C4.8481 16.1676 6.84143 17 8.95408 17C8.99838 16.9972 9.04 16.9778 9.07062 16.9456C9.10123 16.9135 9.11857 16.871 9.11919 16.8266C9.11898 16.8038 9.11507 16.7811 9.10762 16.7595L9.07108 16.723L9.01328 16.6467C8.5642 16.0529 8.3459 15.4444 8.3459 14.7933C8.34676 14.0117 8.65767 13.2624 9.21041 12.7097C9.76315 12.157 10.5126 11.8462 11.2943 11.8453H13.1664C15.2754 11.8453 16.9926 10.1246 17 8.00717C16.9149 4.14451 13.3089 1 8.95408 1Z" stroke="white" stroke-width="1.6"/>
<path d="M12.5166 6.03688C12.1482 5.91009 11.7526 6.12072 11.6318 6.50722C11.2556 7.71579 10.1876 8.52763 8.97336 8.52763C7.81762 8.52763 6.76713 7.76691 6.35784 6.63196C6.22142 6.2516 5.81603 6.05938 5.45352 6.20457C5.09101 6.34771 4.90781 6.77306 5.04619 7.15343C5.34438 7.98163 5.86865 8.68919 6.56054 9.20042C7.26996 9.72393 8.10412 10 8.97336 10C9.87573 10 10.7372 9.70348 11.4622 9.14316C12.1716 8.59307 12.692 7.84053 12.9648 6.96529C13.0857 6.57879 12.8849 6.16367 12.5166 6.03688Z" fill="white"/>
</g>
<defs>
<clipPath id="clip0_761_3934">
<rect width="18" height="18" fill="white"/>
</clipPath>
</defs>
</svg>
