<svg width="36" height="34" viewBox="0 0 36 34" fill="none" xmlns="http://www.w3.org/2000/svg">
<path d="M35 32.9766C35 23.5946 27.3888 15.989 18 15.989C8.61116 15.989 1 23.5946 1 32.9766" fill="#FFBA68"/>
<path d="M35 32.9766C35 23.5946 27.3888 15.989 18 15.989C8.61116 15.989 1 23.5946 1 32.9766" stroke="#0D052C" stroke-width="0.329855" stroke-linecap="round" stroke-linejoin="round"/>
<path d="M32 32.9766C32 25.2502 25.732 18.9868 18 18.9868C10.268 18.9868 4 25.2502 4 32.9766" fill="#FFBA68"/>
<path d="M32 32.9766C32 25.2502 25.732 18.9868 18 18.9868C10.268 18.9868 4 25.2502 4 32.9766" stroke="#0D052C" stroke-width="0.329855" stroke-linecap="round" stroke-linejoin="round"/>
<path d="M6.08594 27.8535L7.35354 29.1211L6.08594 27.8535Z" fill="white"/>
<path d="M6.08594 27.8535L7.35354 29.1211" stroke="#0D052C" stroke-width="0.325763" stroke-linecap="round" stroke-linejoin="round"/>
<path d="M6.59375 26.8401L8.62192 29.1202L6.59375 26.8401Z" fill="white"/>
<path d="M6.59375 26.8401L8.62192 29.1202" stroke="#0D052C" stroke-width="0.325763" stroke-linecap="round" stroke-linejoin="round"/>
<path d="M7.60547 26.8401L8.36603 27.6007L7.60547 26.8401Z" fill="white"/>
<path d="M7.60547 26.8401L8.36603 27.6007" stroke="#0D052C" stroke-width="0.325763" stroke-linecap="round" stroke-linejoin="round"/>
<path d="M19.3516 3.28384C20.4893 4.39312 20.5409 6.20449 19.468 7.3766C18.3952 8.54871 16.5851 8.65856 15.3782 7.62481C14.1712 6.59106 14.003 4.78677 14.9981 3.54804C15.9932 2.30931 17.7924 2.08319 19.0635 3.03711" fill="#FFBA68"/>
<path d="M19.3516 3.28384C20.4893 4.39312 20.5409 6.20449 19.468 7.3766C18.3952 8.54871 16.5851 8.65856 15.3782 7.62481C14.1712 6.59106 14.003 4.78677 14.9981 3.54804C15.9932 2.30931 17.7924 2.08319 19.0635 3.03711" stroke="#0D052C" stroke-width="0.329855" stroke-linecap="round" stroke-linejoin="round"/>
<path d="M18.7687 3.88214C19.5833 4.67635 19.6202 5.97322 18.8521 6.81241C18.084 7.6516 16.788 7.73025 15.9239 6.99012C15.0598 6.24999 14.9394 4.95818 15.6518 4.0713C16.3642 3.18442 17.6524 3.02252 18.5625 3.7055" fill="#FFBA68"/>
<path d="M18.7687 3.88214C19.5833 4.67635 19.6202 5.97322 18.8521 6.81241C18.084 7.6516 16.788 7.73025 15.9239 6.99012C15.0598 6.24999 14.9394 4.95818 15.6518 4.0713C16.3642 3.18442 17.6524 3.02252 18.5625 3.7055" stroke="#0D052C" stroke-width="0.329855" stroke-linecap="round" stroke-linejoin="round"/>
<path d="M18.625 3.22058C18.6777 3.25985 18.7283 3.30178 18.7767 3.34622" stroke="#0D052C" stroke-width="0.329855" stroke-linecap="round" stroke-linejoin="round"/>
<path d="M17.8477 2.8847C18.0806 2.92577 18.3034 3.01157 18.5037 3.13737" stroke="#0D052C" stroke-width="0.329855" stroke-linecap="round" stroke-linejoin="round"/>
<path d="M19.6875 5.61212L19.9602 5.96419" stroke="#0D052C" stroke-width="0.329855" stroke-linecap="round" stroke-linejoin="round"/>
<path d="M19.875 5.62439L19.9422 5.71106" stroke="#0D052C" stroke-width="0.329855" stroke-linecap="round" stroke-linejoin="round"/>
<path d="M19.6309 5.77112L19.7766 5.95918" stroke="#0D052C" stroke-width="0.329855" stroke-linecap="round" stroke-linejoin="round"/>
<path d="M16.7227 3.90961L16.9956 4.26147" stroke="#0D052C" stroke-width="0.329855" stroke-linecap="round" stroke-linejoin="round"/>
<path d="M16.9102 3.92175L16.9773 4.00863" stroke="#0D052C" stroke-width="0.329855" stroke-linecap="round" stroke-linejoin="round"/>
<path d="M16.666 4.06842L16.8117 4.25648" stroke="#0D052C" stroke-width="0.329855" stroke-linecap="round" stroke-linejoin="round"/>
<path fill-rule="evenodd" clip-rule="evenodd" d="M16.8783 5.95977C16.9177 5.95977 16.943 5.95189 16.9543 5.93615C16.9655 5.9204 16.9711 5.90297 16.9711 5.88385V4.83796C16.9711 4.81547 16.9627 4.79523 16.9458 4.77723C16.929 4.75924 16.9008 4.75024 16.8615 4.75024C16.8221 4.75024 16.794 4.7598 16.7771 4.77892C16.7603 4.79804 16.7518 4.81772 16.7518 4.83796V5.52791L16.2188 4.81097C16.2086 4.79748 16.1966 4.78398 16.1825 4.77049C16.1684 4.75699 16.1502 4.75024 16.1277 4.75024C16.0872 4.75024 16.0613 4.7584 16.0501 4.7747C16.0388 4.79101 16.0332 4.80929 16.0332 4.82953V5.87205C16.0332 5.89229 16.0416 5.91197 16.0585 5.93109C16.0754 5.95021 16.1035 5.95977 16.1429 5.95977C16.1822 5.95977 16.2103 5.95077 16.2272 5.93277C16.2441 5.91478 16.2525 5.89454 16.2525 5.87205V5.20571L16.7839 5.89904C16.794 5.91253 16.8067 5.92603 16.8218 5.93952C16.837 5.95302 16.8559 5.95977 16.8783 5.95977ZM17.2642 5.95979C17.3036 5.95979 17.332 5.9522 17.3494 5.93701C17.3668 5.92183 17.3755 5.90637 17.3755 5.89062V5.43009H17.7332C17.7692 5.43009 17.795 5.42306 17.8108 5.40901C17.8265 5.39495 17.8344 5.37105 17.8344 5.33731C17.8344 5.3047 17.8265 5.28052 17.8108 5.26478C17.7917 5.24903 17.7658 5.24116 17.7332 5.24116H17.3755V4.95607H17.7838C17.8164 4.95607 17.8417 4.94904 17.8597 4.93498C17.8777 4.92093 17.8861 4.89646 17.885 4.8616C17.8839 4.82674 17.8752 4.80228 17.8589 4.78822C17.8425 4.77416 17.8181 4.76713 17.7855 4.76713H17.2642C17.2282 4.76713 17.2012 4.77388 17.1832 4.78738C17.1652 4.80087 17.1562 4.82505 17.1562 4.85991V5.89062C17.1562 5.90637 17.1644 5.92183 17.1807 5.93701C17.197 5.9522 17.2249 5.95979 17.2642 5.95979ZM18.4703 5.9328C18.4534 5.95079 18.4253 5.95979 18.386 5.95979C18.3466 5.95979 18.3185 5.95023 18.3016 5.93111C18.2847 5.91199 18.2763 5.89231 18.2763 5.87207V4.96282H18.0604C18.0401 4.96282 18.0205 4.95551 18.0013 4.94089C17.9822 4.92627 17.9727 4.90096 17.9727 4.86498C17.9727 4.83011 17.9817 4.80509 17.9996 4.78991C18.0176 4.77473 18.0379 4.76713 18.0604 4.76713H18.7115C18.734 4.76713 18.7543 4.77473 18.7723 4.78991C18.7902 4.80509 18.7992 4.83011 18.7992 4.86498C18.7992 4.90096 18.7897 4.92627 18.7706 4.94089C18.7515 4.95551 18.7318 4.96282 18.7115 4.96282H18.4956V5.87207C18.4956 5.89456 18.4872 5.9148 18.4703 5.9328Z" fill="black"/>
<path d="M5.59913 12.2702C5.69156 13.4322 6.21382 15.2786 8.545 15.649C8.47443 16.2711 8.4794 16.8994 8.55979 17.5203C4.95486 16.7463 4.03053 14.2164 3.87893 12.26C3.83311 11.6202 4.05637 10.9902 4.49498 10.5217C4.93359 10.0533 5.54781 9.78884 6.18978 9.79202H10.5804L10.0202 11.3105H6.49666C6.24714 11.3094 6.00845 11.4122 5.83808 11.5944C5.6677 11.7766 5.5811 12.0215 5.59913 12.2702Z" fill="#FFBA68" stroke="#0D052C" stroke-width="0.356321" stroke-linecap="round" stroke-linejoin="round"/>
<path d="M4.73828 11.4913C4.88157 11.0262 5.27505 10.6817 5.75505 10.6012" stroke="#0D052C" stroke-width="0.325763" stroke-linecap="round" stroke-linejoin="round"/>
<path d="M30.7675 12.2601C30.6149 14.2109 29.6952 16.7325 26.1171 17.513C26.1969 16.8929 26.2006 16.2654 26.1282 15.6444C28.4391 15.2648 28.9548 13.4276 29.0473 12.2703C29.0653 12.0218 28.9788 11.777 28.8086 11.5949C28.6385 11.4127 28.4 11.3097 28.1507 11.3106H24.6308C24.4404 10.7961 24.2518 10.2789 24.0762 9.79211H28.4631C29.1034 9.79239 29.7149 10.0581 30.1517 10.526C30.5885 10.9938 30.8115 11.6218 30.7675 12.2601Z" fill="#FFBA68" stroke="#0D052C" stroke-width="0.356321" stroke-linecap="round" stroke-linejoin="round"/>
<path d="M27.6505 16.2171C27.4254 16.3597 27.1889 16.4834 26.9434 16.5868" stroke="#0D052C" stroke-width="0.356321" stroke-linecap="round" stroke-linejoin="round"/>
<path d="M29.5422 14.1361C29.147 14.8878 28.5871 15.5408 27.9043 16.0462" stroke="#0D052C" stroke-width="0.356321" stroke-linecap="round" stroke-linejoin="round"/>
<path d="M20.5582 7.01185H22.8274C22.9697 7.01184 23.0968 7.10081 23.1454 7.23445C23.2988 7.65841 23.6565 8.6458 24.0753 9.79207C24.2527 10.2788 24.445 10.7961 24.6299 11.3106C25.1133 12.6222 25.5977 13.9171 25.9055 14.6819C26.0182 14.9926 26.0927 15.3158 26.1273 15.6444C26.1997 16.2654 26.196 16.8929 26.1162 17.513C25.8019 19.9939 24.2306 23.1334 19.2317 23.8142C18.6019 23.8973 17.9675 23.9417 17.3322 23.9472C16.6828 23.9426 16.0344 23.8961 15.3911 23.8077C10.4311 23.1177 8.87081 19.9921 8.55839 17.5203C8.478 16.8994 8.47303 16.2711 8.5436 15.649C8.57734 15.3194 8.64931 14.9949 8.75804 14.6819C9.08711 13.8155 9.55575 12.5575 10.0188 11.3106L10.579 9.79207C11.0051 8.63749 11.3638 7.65564 11.519 7.2326C11.5678 7.09934 11.695 7.01101 11.837 7.01185H19.4832" fill="#FFE483"/>
<path d="M20.5582 7.01185H22.8274C22.9697 7.01184 23.0968 7.10081 23.1454 7.23445C23.2988 7.65841 23.6565 8.6458 24.0753 9.79207C24.2527 10.2788 24.445 10.7961 24.6299 11.3106C25.1133 12.6222 25.5977 13.9171 25.9055 14.6819C26.0182 14.9926 26.0927 15.3158 26.1273 15.6444C26.1997 16.2654 26.196 16.8929 26.1162 17.513C25.8019 19.9939 24.2306 23.1334 19.2317 23.8142C18.6019 23.8973 17.9675 23.9417 17.3322 23.9472C16.6828 23.9426 16.0344 23.8961 15.3911 23.8077C10.4311 23.1177 8.87081 19.9921 8.55839 17.5203C8.478 16.8994 8.47303 16.2711 8.5436 15.649C8.57734 15.3194 8.64931 14.9949 8.75804 14.6819C9.08711 13.8155 9.55575 12.5575 10.0188 11.3106L10.579 9.79207C11.0051 8.63749 11.3638 7.65564 11.519 7.2326C11.5678 7.09934 11.695 7.01101 11.837 7.01185H19.4832" stroke="#0D052C" stroke-width="0.356321" stroke-linecap="round" stroke-linejoin="round"/>
<path d="M20.7724 21.795C20.272 21.9642 19.7562 22.0837 19.2324 22.1518" stroke="#0D052C" stroke-width="0.356321" stroke-linecap="round" stroke-linejoin="round"/>
<path d="M24.3037 17.5131C24.13 18.893 23.4247 20.5491 21.5039 21.4931" stroke="#0D052C" stroke-width="0.356321" stroke-linecap="round" stroke-linejoin="round"/>
<path d="M19.2303 23.8143C18.8708 24.2761 18.55 24.8811 18.5694 25.5461H16.0552C16.0746 24.8783 15.7511 24.2724 15.3906 23.8078C16.034 23.8961 16.6824 23.9427 17.3317 23.9473C17.9667 23.9418 18.6008 23.8974 19.2303 23.8143Z" fill="#1D1E5F" stroke="#0D052C" stroke-width="0.356321" stroke-linecap="round" stroke-linejoin="round"/>
<path d="M16.0566 25.5471H18.5671V27.9015H16.0566V25.5471Z" fill="#FFE483" stroke="#0D052C" stroke-width="0.356321" stroke-linecap="round" stroke-linejoin="round"/>
<path d="M23.2503 33.0001H11.3707C11.3094 33.0001 11.2524 32.9684 11.2201 32.9163C11.1877 32.8643 11.1846 32.7992 11.2117 32.7442C11.4382 32.2889 12.0519 31.2738 13.6002 30.703C15.9249 29.8458 16.0552 27.9015 16.0552 27.9015H18.5657C18.5657 27.9015 18.5657 29.8255 21.0208 30.703C22.5755 31.2572 23.1837 32.2889 23.4093 32.7442C23.4364 32.7992 23.4333 32.8643 23.4009 32.9163C23.3686 32.9684 23.3116 33.0001 23.2503 33.0001Z" fill="#FFE483" stroke="#0D052C" stroke-width="0.356321" stroke-linecap="round" stroke-linejoin="round"/>
<path d="M19.7109 31.1075C20.3364 31.1789 20.926 31.4365 21.4034 31.847" stroke="#0D052C" stroke-width="0.356321" stroke-linecap="round" stroke-linejoin="round"/>
<path d="M16.0566 27.4323H17.6252" stroke="#0D052C" stroke-width="0.356321" stroke-linecap="round" stroke-linejoin="round"/>
<path d="M17.3206 11.1314L18.1192 12.7496L19.9069 13.0092C19.9272 13.0122 19.9441 13.0265 19.9506 13.046C19.957 13.0655 19.9519 13.087 19.9374 13.1015L18.6433 14.3614L18.9493 16.1404C18.9526 16.1606 18.9442 16.181 18.9276 16.1931C18.911 16.2052 18.889 16.207 18.8707 16.1977L17.2716 15.3581L15.6725 16.1977C15.6542 16.207 15.6322 16.2052 15.6156 16.1931C15.5991 16.181 15.5907 16.1606 15.5939 16.1404L15.899 14.3614L14.6049 13.1015C14.5896 13.0873 14.584 13.0655 14.5906 13.0456C14.5971 13.0258 14.6146 13.0116 14.6354 13.0092L16.4222 12.7496L17.2217 11.1314C17.2306 11.1121 17.2499 11.0999 17.2712 11.0999C17.2924 11.0999 17.3117 11.1121 17.3206 11.1314Z" fill="#FFE483" stroke="#0D052C" stroke-width="0.356321" stroke-linecap="round" stroke-linejoin="round"/>
<path d="M12.9297 17.233L13.7413 20.6423" stroke="#0D052C" stroke-width="0.356321" stroke-linecap="round" stroke-linejoin="round"/>
<path d="M13.7637 17.6118L14.3229 19.956" stroke="#0D052C" stroke-width="0.356321" stroke-linecap="round" stroke-linejoin="round"/>
<path d="M12.3105 17.7705L12.9049 20.2635" stroke="#0D052C" stroke-width="0.356321" stroke-linecap="round" stroke-linejoin="round"/>
<path d="M14.7701 18.0673L11.7734 19.6495" stroke="#0D052C" stroke-width="0.356321" stroke-linecap="round" stroke-linejoin="round"/>
<path d="M13.6125 17.8584L12.0957 18.6607" stroke="#0D052C" stroke-width="0.356321" stroke-linecap="round" stroke-linejoin="round"/>
<path d="M14.7417 18.9031L13.0391 19.8025" stroke="#0D052C" stroke-width="0.356321" stroke-linecap="round" stroke-linejoin="round"/>
<path d="M13.3093 4.41739C13.1697 4.44603 12.6447 4.60212 12.494 5.28471C12.494 5.28777 12.4915 5.29025 12.4885 5.29025C12.4854 5.29025 12.4829 5.28777 12.4829 5.28471C12.3323 4.59843 11.8063 4.44603 11.6677 4.41739C11.6646 4.41739 11.6621 4.41491 11.6621 4.41185C11.6621 4.40879 11.6646 4.40631 11.6677 4.40631C11.8063 4.37767 12.3323 4.22158 12.4829 3.53899C12.4829 3.53593 12.4854 3.53345 12.4885 3.53345C12.4915 3.53345 12.494 3.53593 12.494 3.53899C12.6447 4.22527 13.1697 4.37767 13.3093 4.40631C13.3113 4.40631 13.3131 4.40736 13.3141 4.40908C13.3151 4.41079 13.3151 4.41291 13.3141 4.41462C13.3131 4.41634 13.3113 4.41739 13.3093 4.41739Z" fill="#FFE483" stroke="#0D052C" stroke-width="0.356321" stroke-linecap="round" stroke-linejoin="round"/>
<path d="M22.8092 2.27473C22.6165 2.31602 21.8917 2.54112 21.6837 3.52542C21.6837 3.52984 21.6802 3.53341 21.676 3.53341C21.6718 3.53341 21.6683 3.52984 21.6683 3.52542C21.4603 2.53579 20.7342 2.31602 20.5428 2.27473C20.5386 2.27473 20.5352 2.27115 20.5352 2.26674C20.5352 2.26232 20.5386 2.25875 20.5428 2.25875C20.7342 2.21746 21.4603 1.99236 21.6683 1.00805C21.6683 1.00364 21.6718 1.00006 21.676 1.00006C21.6802 1.00006 21.6837 1.00364 21.6837 1.00805C21.8917 1.99769 22.6165 2.21746 22.8092 2.25875C22.8119 2.25875 22.8145 2.26027 22.8158 2.26274C22.8172 2.26521 22.8172 2.26826 22.8158 2.27073C22.8145 2.27321 22.8119 2.27473 22.8092 2.27473Z" fill="#FFE483" stroke="#0D052C" stroke-width="0.356321" stroke-linecap="round" stroke-linejoin="round"/>
</svg>
