<svg width="42" height="48" viewBox="0 0 42 48" fill="none" xmlns="http://www.w3.org/2000/svg">
<path d="M40.8883 27.2807C40.8929 38.0206 32.3698 46.8242 21.6354 47.1673C10.901 47.5104 1.83312 39.2691 1.15179 28.5509C0.470446 17.8326 8.42176 8.50944 19.1132 7.49055C19.7341 7.43117 20.3625 7.40149 20.9985 7.40149C21.6345 7.40149 22.2624 7.43067 22.8823 7.48904C33.0863 8.46337 40.8803 17.0303 40.8883 27.2807Z" fill="#FFBA68" stroke="#0D052C" stroke-width="0.5" stroke-linecap="round" stroke-linejoin="round"/>
<circle cx="20.9986" cy="27.2822" r="17.1185" fill="white" stroke="#0D052C" stroke-width="0.5" stroke-linecap="round" stroke-linejoin="round"/>
<path d="M31.2416 19.0301C35.114 23.8371 35.1228 30.6902 31.2627 35.5071C31.2282 35.5495 31.1775 35.5754 31.1229 35.5785C31.0684 35.5817 31.015 35.5618 30.9759 35.5237L21.3412 26.1652C21.1223 25.9529 20.9987 25.6611 20.9985 25.3561V14.4067C20.9985 14.3331 21.0281 14.2625 21.0806 14.2108C21.1331 14.1592 21.2041 14.1308 21.2778 14.132C23.8525 14.1831 26.355 14.9928 28.4717 16.4595" fill="#9E59FF"/>
<path d="M31.2416 19.0301C35.114 23.8371 35.1228 30.6902 31.2627 35.5071C31.2282 35.5495 31.1775 35.5754 31.1229 35.5785C31.0684 35.5817 31.015 35.5618 30.9759 35.5237L21.3412 26.1652C21.1223 25.9529 20.9987 25.6611 20.9985 25.3561V14.4067C20.9985 14.3331 21.0281 14.2625 21.0806 14.2108C21.1331 14.1592 21.2041 14.1308 21.2778 14.132C23.8525 14.1831 26.355 14.9928 28.4717 16.4595" stroke="#0D052C" stroke-width="0.5" stroke-linecap="round" stroke-linejoin="round"/>
<path d="M11.3337 17.5901L12.5398 18.7961" stroke="#0D052C" stroke-width="0.5" stroke-linecap="round" stroke-linejoin="round"/>
<path d="M7.45288 27.2821H9.19326" stroke="#0D052C" stroke-width="0.5" stroke-linecap="round" stroke-linejoin="round"/>
<path d="M11.3352 36.9682L12.5397 35.8286" stroke="#0D052C" stroke-width="0.5" stroke-linecap="round" stroke-linejoin="round"/>
<path d="M20.9986 39.3018V40.8761" stroke="#0D052C" stroke-width="0.5" stroke-linecap="round" stroke-linejoin="round"/>
<path d="M31.8831 12.1366C32.1019 12.2966 32.3178 12.4626 32.5291 12.6317C32.7117 12.7826 32.8914 12.9336 33.0695 13.0845" stroke="#0D052C" stroke-width="0.5" stroke-linecap="round" stroke-linejoin="round"/>
<path d="M25.9556 9.25659C27.5216 9.69251 29.0226 10.3351 30.419 11.1675" stroke="#0D052C" stroke-width="0.5" stroke-linecap="round" stroke-linejoin="round"/>
<path d="M11.9358 43.5479C9.52156 42.1813 7.44525 40.2897 5.86035 38.0128" stroke="#0D052C" stroke-width="0.5" stroke-linecap="round" stroke-linejoin="round"/>
<path d="M16.0764 26.6L17.6115 33.0543" stroke="#0D052C" stroke-width="0.5" stroke-linecap="round" stroke-linejoin="round"/>
<path d="M17.6582 27.317L18.7133 31.7548" stroke="#0D052C" stroke-width="0.5" stroke-linecap="round" stroke-linejoin="round"/>
<path d="M14.9065 27.6173L16.0295 32.3373" stroke="#0D052C" stroke-width="0.5" stroke-linecap="round" stroke-linejoin="round"/>
<path d="M19.56 28.1788L13.8921 31.1735" stroke="#0D052C" stroke-width="0.5" stroke-linecap="round" stroke-linejoin="round"/>
<path d="M17.3682 27.7833L14.4988 29.3003" stroke="#0D052C" stroke-width="0.5" stroke-linecap="round" stroke-linejoin="round"/>
<path d="M19.5073 29.7607L16.2861 31.4619" stroke="#0D052C" stroke-width="0.5" stroke-linecap="round" stroke-linejoin="round"/>
<path d="M22.8867 4.68298V7.48147C22.2664 7.42412 21.6369 7.39393 21.003 7.39393C20.369 7.39393 19.7381 7.42412 19.1177 7.48298V4.68298H22.8867Z" fill="#1D1E5F" stroke="#0D052C" stroke-width="0.5" stroke-linecap="round" stroke-linejoin="round"/>
<path d="M25.3894 2.89882C25.3861 3.88339 24.5883 4.68049 23.6037 4.68297H18.3932C17.4276 4.65489 16.6594 3.86404 16.6594 2.89806C16.6594 1.93209 17.4276 1.14124 18.3932 1.11316H23.6037C24.5889 1.11565 25.3869 1.91366 25.3894 2.89882Z" fill="#FF5986" stroke="#0D052C" stroke-width="0.5" stroke-linecap="round" stroke-linejoin="round"/>
<path d="M17.7276 1.24292V4.52745" stroke="#0D052C" stroke-width="0.5" stroke-linecap="round" stroke-linejoin="round"/>
<path d="M19.3623 3.57056V4.68301" stroke="#0D052C" stroke-width="0.5" stroke-linecap="round" stroke-linejoin="round"/>
<path d="M19.3623 1.11316V2.82033" stroke="#0D052C" stroke-width="0.5" stroke-linecap="round" stroke-linejoin="round"/>
<path d="M20.9986 1.15845V4.5275" stroke="#0D052C" stroke-width="0.5" stroke-linecap="round" stroke-linejoin="round"/>
<path d="M22.6348 1.15845V4.68298" stroke="#0D052C" stroke-width="0.5" stroke-linecap="round" stroke-linejoin="round"/>
<path d="M24.2696 1.31848V4.52754" stroke="#0D052C" stroke-width="0.5" stroke-linecap="round" stroke-linejoin="round"/>
<path d="M7.22486 9.49204C7.22451 9.76505 7.30543 10.032 7.45731 10.2588L8.49429 11.8075C9.21504 11.2287 9.97511 10.7006 10.769 10.2271L9.75769 8.7177C9.41756 8.21179 8.78649 7.98797 8.20361 8.16652C7.62073 8.34506 7.22328 8.88394 7.22486 9.49355V9.49204Z" fill="#47DDDF" stroke="#0D052C" stroke-width="0.5" stroke-linecap="round" stroke-linejoin="round"/>
<path d="M34.7058 9.45274C34.7061 9.72622 34.6252 9.99364 34.4733 10.221L33.4363 11.7697C32.7163 11.1899 31.9562 10.6618 31.1616 10.1893L32.1729 8.67991C32.5116 8.17227 33.143 7.94666 33.7267 8.12475C34.3103 8.30284 34.7082 8.84251 34.7058 9.45274V9.45274Z" fill="#87D4FF" stroke="#0D052C" stroke-width="0.5" stroke-linecap="round" stroke-linejoin="round"/>
<path d="M33.782 8.80676C33.782 8.80676 34.1669 9.07997 34.0009 9.7728" stroke="#0D052C" stroke-width="0.5" stroke-linecap="round" stroke-linejoin="round"/>
<path d="M27.8876 22.6588C27.5857 22.7207 26.437 23.0543 26.1095 24.5516C26.1076 24.5571 26.1024 24.5608 26.0966 24.5608C26.0909 24.5608 26.0857 24.5571 26.0838 24.5516C25.7563 23.0543 24.6091 22.7207 24.3072 22.6588C24.3018 22.6569 24.2981 22.6518 24.2981 22.646C24.2981 22.6402 24.3018 22.6351 24.3072 22.6332C24.6091 22.5698 25.7563 22.2377 26.0838 20.7403C26.0857 20.7349 26.0909 20.7312 26.0966 20.7312C26.1024 20.7312 26.1076 20.7349 26.1095 20.7403C26.437 22.2377 27.5842 22.5698 27.8876 22.6332C27.8931 22.6351 27.8967 22.6402 27.8967 22.646C27.8967 22.6518 27.8931 22.6569 27.8876 22.6588Z" fill="white" stroke="#0D052C" stroke-width="0.5" stroke-linecap="round" stroke-linejoin="round"/>
<path d="M30.8491 25.8905C30.6453 25.9327 29.8755 26.1561 29.6566 27.1599C29.6552 27.1632 29.6519 27.1653 29.6483 27.1653C29.6447 27.1653 29.6415 27.1632 29.64 27.1599C29.4197 26.1561 28.6498 25.9327 28.4476 25.8905C28.4443 25.889 28.4421 25.8858 28.4421 25.8822C28.4421 25.8786 28.4443 25.8753 28.4476 25.8739C28.6498 25.8316 29.4197 25.6082 29.64 24.6044C29.6415 24.6011 29.6447 24.599 29.6483 24.599C29.6519 24.599 29.6552 24.6011 29.6566 24.6044C29.8755 25.6082 30.6453 25.8316 30.8491 25.8739C30.8524 25.8753 30.8545 25.8786 30.8545 25.8822C30.8545 25.8858 30.8524 25.889 30.8491 25.8905Z" fill="white" stroke="#0D052C" stroke-width="0.5" stroke-linecap="round" stroke-linejoin="round"/>
</svg>
