<svg width="362" height="100" viewBox="0 0 362 100" fill="none" xmlns="http://www.w3.org/2000/svg">
<path d="M226.384 99.2391H1.24023L35.6892 62.2729L48.134 65.3249L68.6971 43.6922L79.2429 53.1171L90.3234 43.6922L92.562 27.0297L112.392 1.03845L123.572 10.0662L128.298 7.80848L132.583 12.324L133.973 16.1958L138.072 22.3221L150.636 43.6922L179.698 61.9975L194.362 60.6077L213.484 90.8326L226.384 99.2391V99.2391Z" fill="#7774FF" stroke="#0D052C" stroke-width="0.5" stroke-linecap="round" stroke-linejoin="round"/>
<path d="M68.6963 43.6921L78.6336 99.239L48.1332 65.3248L61.1321 99.239L79.242 53.117L150.635 43.6921L15.2246 99.239L35.6884 62.2729L42.6922 99.239" stroke="#0D052C" stroke-width="0.5" stroke-linecap="round" stroke-linejoin="round"/>
<path d="M213.484 90.8326L176.297 99.2391L179.698 61.9976L213.484 90.8326V90.8326Z" stroke="#0D052C" stroke-width="0.5" stroke-linecap="round" stroke-linejoin="round"/>
<path d="M123.57 10.0662L92.5605 27.0297L164.213 99.239L194.361 60.6076L201.39 99.239" stroke="#0D052C" stroke-width="0.5" stroke-linecap="round" stroke-linejoin="round"/>
<path d="M179.696 61.9976L78.6328 99.2391" stroke="#0D052C" stroke-width="0.5" stroke-linecap="round" stroke-linejoin="round"/>
<path d="M48.1328 65.3249C50.7364 65.4242 79.2416 53.1171 79.2416 53.1171" stroke="#0D052C" stroke-width="0.5" stroke-linecap="round" stroke-linejoin="round"/>
<path d="M128.297 7.80847L153.69 99.2391L150.634 43.6922L123.57 99.2391" stroke="#0D052C" stroke-width="0.5" stroke-linecap="round" stroke-linejoin="round"/>
<path d="M293.283 45.6841V99.239H225.727L239.696 81.8208L248.797 82.4485L255.702 86.6853L262.449 77.7408L275.759 72.46L280.912 60.646L293.283 45.6841V45.6841Z" fill="#7774FF" stroke="#0D052C" stroke-width="0.5" stroke-linecap="round" stroke-linejoin="round"/>
<path d="M262.449 77.7408L271.099 99.239L293.283 45.6841" stroke="#0D052C" stroke-width="0.5" stroke-linecap="round" stroke-linejoin="round"/>
<path d="M239.695 81.8208L248.778 99.2391L255.701 86.6854L226.383 99.2391" stroke="#0D052C" stroke-width="0.5" stroke-linecap="round" stroke-linejoin="round"/>
<path d="M280.911 60.646L293.282 99.239L275.758 72.4599" stroke="#0D052C" stroke-width="0.5" stroke-linecap="round" stroke-linejoin="round"/>
<path d="M293.282 99.239L255.701 86.6853" stroke="#0D052C" stroke-width="0.5" stroke-linecap="round" stroke-linejoin="round"/>
<path d="M293.209 45.6841V99.239H360.766L346.796 81.8208L337.695 82.4485L330.79 86.6853L324.043 77.7408L310.733 72.46L305.581 60.646L293.209 45.6841V45.6841Z" fill="#7774FF" stroke="#0D052C" stroke-width="0.5" stroke-linecap="round" stroke-linejoin="round"/>
<path d="M324.043 77.7408L315.393 99.239L293.21 45.6841" stroke="#0D052C" stroke-width="0.5" stroke-linecap="round" stroke-linejoin="round"/>
<path d="M346.797 81.8208L337.714 99.2391L330.791 86.6854L360.109 99.2391" stroke="#0D052C" stroke-width="0.5" stroke-linecap="round" stroke-linejoin="round"/>
<path d="M305.582 60.646L293.21 99.239L310.734 72.4599" stroke="#0D052C" stroke-width="0.5" stroke-linecap="round" stroke-linejoin="round"/>
<path d="M293.21 99.239L330.791 86.6853" stroke="#0D052C" stroke-width="0.5" stroke-linecap="round" stroke-linejoin="round"/>
</svg>
