<svg width="300" height="149" viewBox="0 0 300 149" fill="none" xmlns="http://www.w3.org/2000/svg">
<path d="M153.805 54.9282L104.51 147.638L1.20548 92.7095C35.5404 45.0288 100.059 28.2356 153.805 54.9282Z" fill="#B4B3FF" stroke="#0D052C" stroke-width="0.834492" stroke-linecap="round" stroke-linejoin="round"/>
<path d="M147.338 66.8225L104.616 147.171L13.6726 98.8151C44.662 57.4098 100.82 43.9684 147.338 66.8225Z" fill="#9AF3FF" stroke="#0D052C" stroke-width="0.834492" stroke-linecap="round" stroke-linejoin="round"/>
<path d="M142.047 79.0101L105.429 147.88L25.9632 105.628C53.4225 70.5376 101.799 59.4451 142.047 79.0101Z" fill="#FFB8D2" stroke="#0D052C" stroke-width="0.834492" stroke-linecap="round" stroke-linejoin="round"/>
<path d="M134.639 91.6697L104.593 148.178L38.3718 112.968C61.9597 84.6598 101.583 75.8934 134.639 91.6697Z" fill="#9E59FF" stroke="#0D052C" stroke-width="0.834492" stroke-linecap="round" stroke-linejoin="round"/>
<path d="M127.996 104.271L104.992 147.535L52.0154 119.367C71.339 98.2976 102.09 92.1879 127.996 104.271L127.996 104.271Z" fill="#FF5986" stroke="#0D052C" stroke-width="0.834492" stroke-linecap="round" stroke-linejoin="round"/>
<path d="M121.352 117.872L105.39 147.892L65.6571 126.766C80.6372 112.951 102.564 109.449 121.352 117.872Z" fill="#FFBA68" stroke="#0D052C" stroke-width="0.834492" stroke-linecap="round" stroke-linejoin="round"/>
<path d="M114.002 130.297L104.613 147.956L79.0071 134.341C89.3203 126.976 102.548 125.447 114.002 130.297Z" fill="#9E59FF" stroke="#0D052C" stroke-width="0.834492" stroke-linecap="round" stroke-linejoin="round"/>
<path d="M107.887 141.78L104.6 147.961L93.1219 141.858C98.0244 140.144 103.207 140.116 107.887 141.78Z" fill="#6DE4A2" stroke="#0D052C" stroke-width="0.834492" stroke-linecap="round" stroke-linejoin="round"/>
<path d="M198.946 120.908H71.375L90.8946 99.9623L97.9461 101.692L109.598 89.4341L115.573 94.7744L121.852 89.4341L123.12 79.9927L134.356 65.2655L140.691 70.3808L143.369 69.1016L145.797 71.6601L146.584 73.854L148.907 77.3253L156.026 89.4341L172.493 99.8063L180.802 99.0187L191.637 116.145L198.946 120.908Z" fill="#7774FF" stroke="#0D052C" stroke-width="0.5" stroke-linecap="round" stroke-linejoin="round"/>
<path d="M109.597 89.4341L115.228 120.908L97.9456 101.692L105.311 120.908L115.573 94.7744L156.025 89.4341L79.2988 120.908L90.8941 99.9623L94.8626 120.908" stroke="#0D052C" stroke-width="0.5" stroke-linecap="round" stroke-linejoin="round"/>
<path d="M191.637 116.145L170.566 120.908L172.494 99.8063L191.637 116.145V116.145Z" stroke="#0D052C" stroke-width="0.5" stroke-linecap="round" stroke-linejoin="round"/>
<path d="M140.69 70.3809L123.119 79.9928L163.719 120.908L180.801 99.0188L184.784 120.908" stroke="#0D052C" stroke-width="0.5" stroke-linecap="round" stroke-linejoin="round"/>
<path d="M172.493 99.8063L115.229 120.908" stroke="#0D052C" stroke-width="0.5" stroke-linecap="round" stroke-linejoin="round"/>
<path d="M97.9453 101.692C99.4206 101.748 115.572 94.7744 115.572 94.7744" stroke="#0D052C" stroke-width="0.5" stroke-linecap="round" stroke-linejoin="round"/>
<path d="M143.368 69.1016L157.756 120.908L156.025 89.4341L140.689 120.908" stroke="#0D052C" stroke-width="0.5" stroke-linecap="round" stroke-linejoin="round"/>
<path d="M178.932 58.1706C188.182 67.1955 188.601 81.9323 179.879 91.4683C171.157 101.004 156.441 101.898 146.629 93.4877C136.817 85.0773 135.45 70.3981 143.54 60.3201C151.63 50.2422 166.257 48.4025 176.591 56.1634" fill="#F28C53"/>
<path d="M178.932 58.1706C188.182 67.1955 188.601 81.9323 179.879 91.4683C171.157 101.004 156.441 101.898 146.629 93.4877C136.817 85.0773 135.45 70.3981 143.54 60.3201C151.63 50.2422 166.257 48.4025 176.591 56.1634" stroke="#0D052C" stroke-width="0.5" stroke-linecap="round" stroke-linejoin="round"/>
<path d="M173.047 57.6567C173.475 57.976 173.887 58.3169 174.28 58.6782" stroke="#0D052C" stroke-width="0.5" stroke-linecap="round" stroke-linejoin="round"/>
<path d="M166.717 54.9238C168.611 55.2577 170.422 55.9553 172.05 56.978" stroke="#0D052C" stroke-width="0.5" stroke-linecap="round" stroke-linejoin="round"/>
<path d="M176.49 75.803L178.708 78.6652" stroke="#0D052C" stroke-width="0.5" stroke-linecap="round" stroke-linejoin="round"/>
<path d="M178.021 75.9032L178.568 76.6078" stroke="#0D052C" stroke-width="0.5" stroke-linecap="round" stroke-linejoin="round"/>
<path d="M176.037 77.0959L177.222 78.6248" stroke="#0D052C" stroke-width="0.5" stroke-linecap="round" stroke-linejoin="round"/>
<path d="M145.863 75.803L148.081 78.6652" stroke="#0D052C" stroke-width="0.5" stroke-linecap="round" stroke-linejoin="round"/>
<path d="M147.395 75.9032L147.941 76.6078" stroke="#0D052C" stroke-width="0.5" stroke-linecap="round" stroke-linejoin="round"/>
<path d="M145.41 77.0959L146.595 78.6248" stroke="#0D052C" stroke-width="0.5" stroke-linecap="round" stroke-linejoin="round"/>
<path d="M150.361 73.0975C150.73 71.0935 152.108 69.6034 153.755 69.6034C155.402 69.6034 156.784 71.1016 157.149 73.1153" stroke="#0D052C" stroke-width="0.5" stroke-linecap="round" stroke-linejoin="round"/>
<path d="M167.238 73.0975C167.607 71.0935 168.984 69.6034 170.632 69.6034C172.281 69.6034 173.661 71.1016 174.026 73.1153" stroke="#0D052C" stroke-width="0.5" stroke-linecap="round" stroke-linejoin="round"/>
<path d="M171.289 79.5621C171.116 84.026 167.111 87.5945 162.193 87.5945C157.275 87.5945 153.271 84.026 153.098 79.5621C153.098 79.4797 153.131 79.4008 153.191 79.3437C153.25 79.2867 153.33 79.2564 153.413 79.2599H170.976C171.058 79.2568 171.138 79.2873 171.197 79.3443C171.256 79.4014 171.289 79.48 171.289 79.5621Z" fill="#1D1E5F" stroke="#0D052C" stroke-width="0.5" stroke-linecap="round" stroke-linejoin="round"/>
<path d="M169.295 79.2599C168.025 81.4385 165.363 82.9383 162.282 82.9383C159.202 82.9383 156.54 81.4385 155.271 79.2599H169.295Z" fill="white" stroke="#0D052C" stroke-width="0.5" stroke-linecap="round" stroke-linejoin="round"/>
<path d="M298.946 92.9082H171.375L190.895 71.9623L197.946 73.6916L209.598 61.4341L215.573 66.7744L221.852 61.4341L223.12 51.9927L234.356 37.2655L240.691 42.3808L243.369 41.1016L245.797 43.6601L246.584 45.854L248.907 49.3253L256.026 61.4341L272.493 71.8063L280.802 71.0187L291.637 88.1449L298.946 92.9082Z" fill="#7774FF" stroke="#0D052C" stroke-width="0.5" stroke-linecap="round" stroke-linejoin="round"/>
<path d="M209.597 61.4341L215.228 92.9082L197.946 73.6917L205.311 92.9082L215.573 66.7744L256.025 61.4341L179.299 92.9082L190.894 71.9623L194.863 92.9082" stroke="#0D052C" stroke-width="0.5" stroke-linecap="round" stroke-linejoin="round"/>
<path d="M291.637 88.1449L270.566 92.9082L272.494 71.8063L291.637 88.1449V88.1449Z" stroke="#0D052C" stroke-width="0.5" stroke-linecap="round" stroke-linejoin="round"/>
<path d="M240.69 42.3809L223.119 51.9928L263.719 92.9082L280.801 71.0188L284.784 92.9082" stroke="#0D052C" stroke-width="0.5" stroke-linecap="round" stroke-linejoin="round"/>
<path d="M272.493 71.8063L215.229 92.9082" stroke="#0D052C" stroke-width="0.5" stroke-linecap="round" stroke-linejoin="round"/>
<path d="M197.945 73.6916C199.421 73.7479 215.572 66.7744 215.572 66.7744" stroke="#0D052C" stroke-width="0.5" stroke-linecap="round" stroke-linejoin="round"/>
<path d="M243.368 41.1016L257.756 92.9082L256.025 61.4341L240.689 92.9082" stroke="#0D052C" stroke-width="0.5" stroke-linecap="round" stroke-linejoin="round"/>
</svg>
