<?xml version="1.0" standalone="no"?>
<!DOCTYPE svg PUBLIC "-//W3C//DTD SVG 20010904//EN"
 "http://www.w3.org/TR/2001/REC-SVG-20010904/DTD/svg10.dtd">
<svg version="1.0" xmlns="http://www.w3.org/2000/svg"
 width="500.000000pt" height="253.000000pt" viewBox="0 0 852.000000 253.000000"
 preserveAspectRatio="xMidYMid meet">

<g transform="translate(0.000000,253.000000) scale(0.100000,-0.100000)"
fill="blue" stroke="none">
<path d="M780 2413 l1 -108 58 -42 c32 -24 61 -43 65 -43 3 0 6 46 6 103 l0
102 -60 48 c-32 26 -62 47 -65 47 -3 0 -5 -48 -5 -107z"/>
<path d="M2512 2448 c-5 -7 -21 -60 -35 -118 -35 -146 -111 -385 -161 -512
-41 -102 -42 -107 -23 -112 15 -4 32 8 65 44 48 53 67 59 131 40 19 -5 38 -15
43 -22 4 -7 8 -58 8 -114 0 -134 0 -134 -148 -134 -119 0 -128 -4 -98 -46 12
-16 31 -20 114 -24 62 -3 106 -10 116 -19 14 -12 16 -45 16 -276 0 -221 -2
-265 -15 -275 -8 -7 -15 -25 -15 -40 0 -29 40 -80 64 -80 21 0 306 352 306
379 0 26 -33 6 -119 -70 -57 -50 -97 -79 -106 -75 -22 8 -22 403 -1 432 12 16
29 20 118 22 57 2 109 9 116 14 22 18 13 48 -25 83 -49 45 -85 46 -121 5 -31
-35 -54 -38 -82 -10 -17 17 -20 33 -20 118 0 127 5 132 118 132 75 0 83 2 97
24 19 29 10 52 -31 85 -36 28 -75 27 -104 -4 -24 -25 -27 -26 -149 -23 -150 4
-150 4 -101 112 18 39 39 85 47 102 21 48 47 54 218 54 126 0 156 3 169 16 24
23 21 28 -35 73 -69 55 -86 56 -135 10 -28 -27 -37 -30 -84 -27 -63 4 -76 18
-66 74 6 27 20 51 48 77 23 22 37 42 32 47 -12 11 -111 50 -128 50 -8 0 -18
-6 -24 -12z"/>
<path d="M3521 2446 c-7 -8 -25 -60 -41 -116 -15 -56 -35 -110 -44 -119 -13
-12 -43 -17 -130 -21 -113 -5 -113 -5 -105 -28 11 -29 47 -42 115 -42 31 0 65
-5 76 -11 27 -14 22 -44 -38 -229 -40 -124 -49 -144 -75 -158 -38 -23 -41 -33
-17 -71 28 -43 61 -55 98 -36 19 10 59 15 119 15 110 0 111 -1 111 -128 0
-125 5 -122 -203 -122 -157 0 -167 -1 -167 -19 0 -39 26 -46 186 -51 106 -3
157 -9 166 -18 9 -9 14 -66 18 -205 l5 -191 27 -16 c21 -11 32 -12 45 -4 16
10 18 33 21 204 1 122 7 198 13 207 9 10 48 13 158 13 116 0 151 3 169 16 33
23 27 42 -25 91 -60 54 -89 56 -132 8 -28 -33 -34 -35 -90 -35 -85 0 -91 9
-91 129 0 62 4 101 12 109 8 8 52 12 127 13 131 1 164 7 169 32 5 27 -105 117
-144 117 -11 0 -35 -16 -54 -35 -38 -39 -68 -44 -93 -17 -13 14 -17 38 -17 96
0 69 2 79 25 100 31 29 32 44 3 55 -37 13 -106 22 -112 13 -2 -4 -7 -61 -11
-127 -9 -148 -14 -155 -100 -155 -43 0 -66 5 -75 15 -12 14 2 68 84 330 19 62
32 65 282 65 221 0 244 3 244 36 0 7 -25 33 -56 58 -67 55 -96 58 -149 16 -48
-39 -62 -42 -164 -38 -104 4 -111 10 -93 100 8 38 21 70 32 80 28 23 25 40
-13 66 -39 26 -50 27 -66 8z"/>
<path d="M4555 2450 c-4 -7 -10 -97 -13 -202 -4 -145 -8 -193 -19 -204 -11
-11 -45 -14 -139 -14 -133 0 -143 -5 -106 -49 14 -18 32 -22 125 -27 94 -6
110 -10 122 -28 12 -16 15 -58 15 -189 l0 -169 -28 -26 c-17 -16 -79 -45 -151
-71 -68 -25 -125 -50 -127 -56 -7 -16 24 -85 41 -91 8 -4 59 17 114 45 111 57
138 62 146 29 3 -13 4 -144 3 -293 l-3 -270 -122 3 c-126 3 -146 -3 -100 -31
12 -8 43 -20 68 -27 30 -8 54 -22 67 -40 30 -40 70 -46 122 -20 69 35 70 43
70 418 0 386 -10 354 130 429 50 26 90 52 90 56 0 19 -38 18 -99 -1 -80 -26
-107 -27 -115 -6 -3 9 -6 80 -6 159 0 178 -2 175 119 175 74 0 91 3 105 19 24
26 14 53 -33 91 -49 38 -75 38 -113 0 -32 -33 -62 -39 -72 -14 -3 9 -6 80 -6
159 0 140 1 144 26 174 33 40 26 57 -28 66 -24 3 -50 9 -60 11 -9 3 -19 0 -23
-6z"/>
<path d="M5369 2448 c-1 -2 -4 -62 -8 -135 -5 -85 -12 -137 -20 -147 -12 -14
-46 -16 -247 -16 -129 0 -234 -2 -234 -5 0 -19 27 -56 44 -60 12 -2 111 -6
220 -9 120 -4 204 -10 212 -17 30 -25 29 -143 -3 -174 -21 -21 -306 -21 -343
0 -38 22 -69 19 -75 -7 -3 -13 -4 -277 -3 -588 l3 -564 32 -10 c61 -17 63 -9
63 225 0 257 -13 239 175 239 71 0 135 -4 142 -8 26 -16 33 -69 33 -248 l0
-184 26 -10 c34 -13 40 -13 58 6 14 13 16 47 16 214 0 167 2 201 16 214 12 13
41 16 147 16 186 0 177 10 177 -187 l0 -156 -110 5 c-60 3 -110 3 -110 -1 1
-18 21 -32 66 -46 30 -9 61 -27 77 -45 35 -39 69 -47 116 -25 67 30 66 17 69
562 l3 492 29 21 c17 12 30 25 30 30 0 15 -100 90 -120 90 -11 0 -36 -11 -56
-25 -35 -24 -44 -25 -170 -25 -163 0 -164 1 -164 104 0 43 5 77 12 84 9 9 84
12 274 12 228 0 265 2 279 16 9 9 14 21 12 28 -7 21 -121 106 -142 106 -12 0
-36 -16 -55 -35 l-34 -35 -161 0 c-112 0 -165 4 -173 12 -8 8 -12 46 -12 103
0 79 3 94 20 110 40 36 21 55 -67 69 -24 3 -43 5 -44 4z m-35 -664 c12 -12 16
-37 16 -104 0 -122 3 -120 -170 -120 -173 0 -170 -2 -170 120 0 122 -3 120
170 120 113 0 142 -3 154 -16z m450 0 c12 -12 16 -37 16 -104 0 -122 3 -120
-170 -120 -173 0 -170 -2 -170 120 0 122 -3 120 170 120 113 0 142 -3 154 -16z
m-450 -320 c12 -11 16 -36 16 -99 0 -116 2 -115 -170 -115 -172 0 -170 -1
-170 115 0 116 -2 115 170 115 113 0 142 -3 154 -16z m450 0 c12 -11 16 -36
16 -99 0 -116 2 -115 -170 -115 -172 0 -170 -1 -170 115 0 116 -2 115 170 115
113 0 142 -3 154 -16z"/>
<path d="M7497 2404 c-280 -71 -783 -153 -1057 -170 -95 -7 -101 -8 -98 -28 3
-20 8 -21 173 -20 94 0 250 9 347 19 143 14 181 15 193 5 12 -10 15 -41 15
-160 0 -130 -2 -149 -18 -163 -17 -15 -56 -17 -360 -17 -193 0 -342 -4 -342
-9 0 -5 8 -19 18 -31 17 -21 23 -22 342 -27 272 -5 328 -8 343 -21 15 -13 17
-35 17 -167 0 -134 -2 -154 -18 -168 -17 -15 -61 -17 -430 -17 l-411 0 8 -22
c16 -46 34 -48 426 -48 278 0 376 -3 395 -13 l25 -13 3 -246 c2 -239 2 -247
-18 -258 -14 -8 -64 -7 -175 1 -86 6 -159 9 -162 5 -14 -14 26 -34 106 -51 65
-15 93 -27 125 -53 38 -32 44 -34 91 -28 59 7 93 29 117 77 16 30 18 66 18
285 0 200 3 254 14 270 14 18 32 19 405 22 377 3 391 3 401 22 7 14 7 26 0 39
-17 33 -92 91 -117 91 -13 0 -42 -17 -67 -40 l-43 -40 -277 0 c-263 0 -277 1
-296 20 -18 18 -20 33 -20 165 0 132 2 147 20 165 19 19 33 20 348 20 332 0
352 2 352 37 0 19 -118 113 -143 113 -14 0 -39 -17 -62 -40 l-39 -40 -218 0
c-278 0 -258 -15 -258 190 0 186 -5 180 146 204 60 10 172 31 249 47 95 20
153 27 181 23 54 -8 62 7 28 52 -28 36 -73 65 -96 62 -7 0 -89 -20 -181 -44z"/>
<path d="M5572 2408 c-7 -7 -12 -15 -12 -19 0 -4 33 -25 73 -47 40 -22 93 -57
116 -76 48 -40 80 -45 105 -17 48 53 -41 136 -169 160 -75 14 -98 14 -113 -1z"/>
<path d="M448 2368 l-58 -41 0 -168 0 -169 63 35 62 34 3 176 c1 96 -1 175 -5
175 -5 -1 -34 -19 -65 -42z"/>
<path d="M2905 2341 c-3 -5 15 -49 40 -98 45 -87 79 -184 90 -255 9 -61 73
-61 96 0 27 70 -22 186 -117 279 -69 67 -100 88 -109 74z"/>
<path d="M1170 2163 l0 -118 62 -40 c34 -22 65 -41 70 -43 4 -2 8 50 8 116 l0
120 -63 41 c-35 22 -66 41 -70 41 -4 0 -7 -53 -7 -117z"/>
<path d="M780 1100 c0 -600 2 -1090 5 -1090 4 0 33 19 65 42 l60 42 0 1000 0
1001 -60 48 c-32 26 -62 47 -65 47 -3 0 -5 -490 -5 -1090z"/>
<path d="M62 2118 l-62 -40 0 -208 0 -208 65 35 65 34 0 215 c0 118 -1 214 -2
213 -2 0 -31 -19 -66 -41z"/>
<path d="M1502 1873 l3 -246 63 -39 62 -38 0 245 0 244 -59 41 c-33 22 -62 40
-66 40 -3 0 -4 -111 -3 -247z"/>
<path d="M453 1910 l-63 -35 0 -747 0 -747 61 -46 c33 -26 62 -45 65 -43 2 3
3 376 2 829 l-3 825 -62 -36z"/>
<path d="M1170 1041 l0 -890 70 42 69 42 -2 805 -2 804 -60 43 c-33 23 -63 42
-67 43 -5 0 -8 -400 -8 -889z"/>
<path d="M3002 1775 c-26 -22 -40 -25 -101 -25 -76 0 -84 -7 -56 -47 10 -15
30 -23 70 -28 30 -3 62 -13 70 -21 13 -13 15 -61 15 -307 0 -261 -2 -295 -18
-319 -9 -14 -59 -63 -109 -109 -51 -45 -93 -88 -93 -94 0 -15 57 -95 68 -95
14 0 28 16 54 60 42 70 117 160 134 160 8 0 41 -21 72 -47 31 -25 93 -63 137
-84 119 -57 207 -69 510 -69 l252 0 38 30 c21 17 42 30 46 30 5 0 9 6 9 14 0
19 -105 26 -384 26 -335 1 -445 27 -561 132 l-50 46 -3 298 c-2 165 -1 309 2
320 3 12 19 27 36 34 16 7 30 15 30 19 0 10 -72 77 -97 90 -31 16 -38 14 -71
-14z"/>
<path d="M63 1593 l-63 -35 0 -393 0 -394 65 -34 65 -35 0 464 c0 255 -1 464
-2 463 -2 0 -31 -16 -65 -36z"/>
<path d="M1500 1105 l0 -394 65 37 65 37 0 320 0 320 -65 37 -65 37 0 -394z"/>
<path d="M1985 431 c-77 -34 -115 -103 -115 -206 0 -73 17 -121 57 -166 81
-89 234 -73 292 32 28 50 28 79 -2 79 -17 0 -26 -9 -35 -35 -7 -18 -27 -45
-43 -60 -58 -48 -158 -24 -195 47 -22 42 -22 150 -1 200 41 98 202 106 237 12
7 -17 17 -24 36 -24 23 0 25 3 20 26 -24 94 -149 142 -251 95z"/>
<path d="M4745 431 c-77 -34 -115 -103 -115 -206 0 -73 17 -121 57 -166 81
-89 234 -73 292 32 28 50 28 79 -2 79 -17 0 -26 -9 -35 -35 -7 -18 -27 -45
-43 -60 -58 -48 -158 -24 -195 47 -22 42 -22 150 -1 200 41 98 202 106 237 12
7 -17 17 -24 36 -24 23 0 25 3 20 26 -24 94 -149 142 -251 95z"/>
<path d="M6435 431 c-77 -34 -115 -103 -115 -206 0 -73 17 -121 57 -166 81
-89 234 -73 292 32 28 50 28 79 -2 79 -17 0 -26 -9 -35 -35 -7 -18 -27 -45
-43 -60 -58 -48 -158 -24 -195 47 -22 42 -22 150 -1 200 41 98 202 106 237 12
7 -17 17 -24 36 -24 23 0 25 3 20 26 -24 94 -149 142 -251 95z"/>
<path d="M2500 225 l0 -215 25 0 25 0 0 100 0 100 115 0 115 0 0 -100 0 -100
30 0 30 0 0 215 0 215 -30 0 -30 0 0 -90 0 -90 -115 0 -115 0 0 90 c0 89 0 90
-25 90 l-25 0 0 -215z"/>
<path d="M3170 273 c-35 -93 -71 -189 -81 -216 l-19 -47 29 0 c27 0 31 5 51
65 l22 65 88 0 88 0 22 -65 c20 -61 24 -65 52 -65 16 0 28 4 26 9 -1 4 -37
101 -78 215 l-75 206 -31 0 -31 0 -63 -167z m127 8 c17 -49 29 -92 25 -95 -7
-8 -117 -8 -124 0 -7 6 54 184 62 184 3 0 19 -40 37 -89z"/>
<path d="M3700 225 l0 -215 30 0 30 0 0 215 0 215 -30 0 -30 0 0 -215z"/>
<path d="M4040 225 l0 -215 25 0 25 0 2 172 3 173 109 -173 c106 -166 111
-172 143 -172 l33 0 0 215 0 215 -30 0 -30 0 -2 -170 -3 -170 -105 169 c-101
163 -106 170 -137 171 l-33 0 0 -215z"/>
<path d="M5320 273 c-35 -93 -71 -189 -81 -216 l-19 -47 29 0 c27 0 31 5 51
65 l22 65 88 0 88 0 22 -65 c20 -61 24 -65 52 -65 16 0 28 4 26 9 -1 4 -37
101 -78 215 l-75 206 -31 0 -31 0 -63 -167z m127 8 c17 -49 29 -92 25 -95 -7
-8 -117 -8 -124 0 -7 6 54 184 62 184 3 0 19 -40 37 -89z"/>
<path d="M5750 415 c0 -24 2 -25 75 -25 l75 0 0 -190 0 -190 25 0 25 0 0 190
0 190 75 0 c73 0 75 1 75 25 l0 25 -175 0 -175 0 0 -25z"/>
<path d="M6950 225 l0 -215 25 0 25 0 0 100 0 100 115 0 115 0 0 -100 0 -100
30 0 30 0 0 215 0 215 -30 0 -30 0 0 -90 0 -90 -115 0 -115 0 0 90 c0 89 0 90
-25 90 l-25 0 0 -215z"/>
<path d="M7560 225 l0 -215 160 0 160 0 0 25 0 25 -130 0 -130 0 0 75 0 75
115 0 c108 0 115 1 115 20 0 19 -7 20 -115 20 l-115 0 0 70 0 70 125 0 125 0
0 25 0 25 -155 0 -155 0 0 -215z"/>
<path d="M8140 225 l0 -215 30 0 30 0 0 96 0 96 91 -4 c111 -4 129 -18 129
-103 0 -75 6 -85 47 -85 28 0 33 3 24 13 -6 8 -14 46 -17 87 -5 52 -13 79 -26
92 -19 19 -18 20 7 49 32 39 34 104 5 142 -29 36 -76 47 -207 47 l-113 0 0
-215z m273 134 c17 -24 18 -31 7 -64 -15 -46 -39 -55 -141 -55 l-79 0 0 75 0
76 96 -3 c92 -3 98 -4 117 -29z"/>
</g>
</svg>
