<svg xmlns="http://www.w3.org/2000/svg" xmlns:xlink="http://www.w3.org/1999/xlink" width="426" zoomAndPan="magnify" viewBox="0 0 319.5 139.500001" height="186" preserveAspectRatio="xMidYMid meet" version="1.0"><defs><clipPath id="id1"><path d="M 70 65 L 112 65 L 112 89.210938 L 70 89.210938 Z M 70 65 " clip-rule="nonzero"/></clipPath><clipPath id="id2"><path d="M 131 65 L 155 65 L 155 89.210938 L 131 89.210938 Z M 131 65 " clip-rule="nonzero"/></clipPath><clipPath id="id3"><path d="M 25.25 58 L 171 58 L 171 89 L 25.25 89 Z M 25.25 58 " clip-rule="nonzero"/></clipPath><clipPath id="id4"><path d="M 173 50.289062 L 293.957031 50.289062 L 293.957031 89.210938 L 173 89.210938 Z M 173 50.289062 " clip-rule="nonzero"/></clipPath></defs><g clip-path="url(#id1)"><path fill="#ffffff" d="M 88.175781 77.363281 C 88.039062 78.132812 87.777344 78.851562 87.394531 79.53125 C 87.011719 80.207031 86.53125 80.800781 85.945312 81.3125 C 85.359375 81.820312 84.707031 82.21875 83.988281 82.503906 C 83.269531 82.785156 82.523438 82.941406 81.75 82.96875 C 81.410156 82.976562 81.074219 82.949219 80.742188 82.882812 C 80.410156 82.8125 80.089844 82.707031 79.785156 82.5625 C 79.476562 82.421875 79.1875 82.246094 78.921875 82.035156 C 78.652344 81.824219 78.414062 81.585938 78.203125 81.316406 C 77.988281 81.050781 77.808594 80.765625 77.664062 80.457031 C 77.519531 80.148438 77.410156 79.824219 77.335938 79.492188 C 77.265625 79.15625 77.230469 78.820312 77.238281 78.476562 C 77.246094 78.136719 77.289062 77.796875 77.371094 77.46875 C 77.503906 76.703125 77.757812 75.980469 78.136719 75.304688 C 78.515625 74.628906 78.992188 74.035156 79.574219 73.523438 C 80.152344 73.015625 80.800781 72.617188 81.519531 72.332031 C 82.234375 72.046875 82.976562 71.890625 83.746094 71.863281 C 84.089844 71.839844 84.429688 71.859375 84.769531 71.917969 C 85.109375 71.976562 85.4375 72.074219 85.753906 72.214844 C 86.066406 72.351562 86.363281 72.527344 86.636719 72.738281 C 86.910156 72.949219 87.15625 73.1875 87.375 73.457031 C 87.589844 73.726562 87.773438 74.019531 87.921875 74.332031 C 88.066406 74.644531 88.175781 74.972656 88.246094 75.3125 C 88.316406 75.652344 88.34375 75.996094 88.332031 76.34375 C 88.320312 76.6875 88.269531 77.03125 88.175781 77.363281 M 90.222656 66.519531 L 89.761719 68.789062 C 89.480469 68.273438 89.128906 67.804688 88.707031 67.394531 C 88.289062 66.984375 87.816406 66.644531 87.292969 66.375 C 86.769531 66.109375 86.21875 65.925781 85.640625 65.828125 C 85.0625 65.726562 84.480469 65.71875 83.902344 65.796875 C 83.117188 65.828125 82.339844 65.925781 81.574219 66.09375 C 80.808594 66.257812 80.0625 66.488281 79.332031 66.785156 C 78.605469 67.082031 77.910156 67.4375 77.242188 67.855469 C 76.578125 68.273438 75.949219 68.742188 75.363281 69.269531 C 74.777344 69.796875 74.242188 70.367188 73.753906 70.988281 C 73.265625 71.605469 72.832031 72.261719 72.453125 72.957031 C 72.078125 73.648438 71.765625 74.371094 71.511719 75.121094 C 71.257812 75.867188 71.070312 76.632812 70.945312 77.414062 C 69.820312 83.636719 72.789062 89.085938 79.625 89.085938 C 80.949219 89.136719 82.214844 88.890625 83.425781 88.34375 C 84.636719 87.800781 85.664062 87.015625 86.511719 85.988281 L 86.101562 88.3125 L 92.476562 88.3125 L 96.496094 66.59375 L 90.222656 66.59375 Z M 100.207031 66.542969 L 106.222656 66.542969 L 105.816406 68.816406 C 106.140625 68.320312 106.527344 67.871094 106.972656 67.476562 C 107.417969 67.082031 107.902344 66.753906 108.433594 66.488281 C 108.964844 66.222656 109.519531 66.03125 110.101562 65.914062 C 110.679688 65.796875 111.265625 65.757812 111.855469 65.796875 L 110.679688 72.328125 C 107.660156 72.328125 105.558594 73 104.867188 76.332031 L 102.667969 88.261719 L 96.1875 88.261719 Z M 100.207031 66.542969 " fill-opacity="1" fill-rule="nonzero"/></g><path fill="#ffffff" d="M 116.183594 58.023438 L 110.628906 88.261719 L 117.105469 88.261719 L 119.023438 77.777344 L 119.128906 77.777344 L 123.273438 88.261719 L 130.570312 88.261719 L 124.9375 76.074219 L 134.796875 66.542969 L 127.191406 66.542969 L 119.742188 74.417969 L 119.640625 74.417969 L 122.660156 58.023438 Z M 116.183594 58.023438 " fill-opacity="1" fill-rule="nonzero"/><g clip-path="url(#id2)"><path fill="#ffffff" d="M 138.609375 74.988281 C 138.84375 74.433594 139.148438 73.925781 139.53125 73.460938 C 139.914062 73 140.355469 72.601562 140.855469 72.273438 C 141.351562 71.941406 141.890625 71.691406 142.460938 71.519531 C 143.035156 71.347656 143.621094 71.265625 144.214844 71.269531 C 144.476562 71.238281 144.738281 71.234375 145 71.261719 C 145.261719 71.285156 145.519531 71.335938 145.769531 71.417969 C 146.019531 71.496094 146.257812 71.601562 146.488281 71.730469 C 146.714844 71.859375 146.929688 72.011719 147.125 72.1875 C 147.324219 72.363281 147.5 72.558594 147.65625 72.769531 C 147.8125 72.984375 147.945312 73.210938 148.054688 73.453125 C 148.164062 73.695312 148.246094 73.945312 148.300781 74.203125 C 148.359375 74.460938 148.386719 74.722656 148.390625 74.988281 Z M 145.136719 65.796875 C 144.339844 65.839844 143.554688 65.945312 142.773438 66.121094 C 141.996094 66.296875 141.234375 66.535156 140.496094 66.835938 C 139.753906 67.136719 139.046875 67.496094 138.363281 67.917969 C 137.683594 68.335938 137.042969 68.808594 136.4375 69.335938 C 135.835938 69.863281 135.277344 70.4375 134.769531 71.058594 C 134.261719 71.679688 133.804688 72.335938 133.40625 73.03125 C 133.003906 73.726562 132.664062 74.453125 132.378906 75.203125 C 132.097656 75.957031 131.878906 76.730469 131.722656 77.519531 C 131.640625 77.867188 131.574219 78.21875 131.53125 78.574219 C 131.488281 78.929688 131.464844 79.285156 131.460938 79.644531 C 131.460938 80.003906 131.476562 80.359375 131.515625 80.71875 C 131.554688 81.074219 131.613281 81.425781 131.691406 81.777344 C 131.769531 82.125 131.867188 82.46875 131.984375 82.808594 C 132.101562 83.144531 132.238281 83.476562 132.394531 83.796875 C 132.550781 84.121094 132.722656 84.429688 132.914062 84.734375 C 133.105469 85.035156 133.3125 85.324219 133.535156 85.601562 C 133.761719 85.882812 134 86.144531 134.253906 86.394531 C 134.507812 86.644531 134.777344 86.878906 135.058594 87.097656 C 135.339844 87.316406 135.632812 87.519531 135.9375 87.703125 C 136.238281 87.890625 136.554688 88.054688 136.878906 88.203125 C 137.199219 88.351562 137.53125 88.480469 137.871094 88.589844 C 138.207031 88.703125 138.550781 88.792969 138.898438 88.863281 C 139.246094 88.929688 139.597656 88.980469 139.953125 89.011719 C 140.308594 89.039062 140.660156 89.046875 141.015625 89.035156 C 143.363281 89.019531 145.523438 88.363281 147.492188 87.074219 C 149.742188 85.664062 151.542969 83.816406 152.894531 81.519531 L 146.316406 81.519531 C 145.78125 82.167969 145.132812 82.664062 144.375 83.015625 C 143.617188 83.371094 142.824219 83.542969 141.988281 83.535156 C 141.710938 83.566406 141.429688 83.570312 141.148438 83.539062 C 140.867188 83.511719 140.59375 83.453125 140.328125 83.363281 C 140.0625 83.273438 139.808594 83.152344 139.566406 83.007812 C 139.324219 82.859375 139.101562 82.6875 138.898438 82.492188 C 138.695312 82.296875 138.511719 82.082031 138.355469 81.84375 C 138.199219 81.609375 138.070312 81.359375 137.96875 81.09375 C 137.863281 80.828125 137.792969 80.558594 137.75 80.277344 C 137.707031 79.996094 137.695312 79.714844 137.714844 79.429688 L 153.867188 79.429688 C 154.085938 78.878906 154.238281 78.3125 154.328125 77.726562 C 155.558594 70.960938 151.71875 65.796875 145.136719 65.796875 " fill-opacity="1" fill-rule="nonzero"/></g><g clip-path="url(#id3)"><path fill="#ffffff" d="M 62.371094 58.023438 L 51.003906 75.246094 L 50.902344 75.246094 L 50.902344 58.023438 L 45.398438 58.023438 L 25.25 88.261719 L 33.058594 88.261719 L 44.371094 71.035156 L 44.476562 71.035156 L 44.476562 88.261719 L 50.03125 88.261719 L 61.347656 71.035156 L 61.449219 71.035156 L 61.449219 88.261719 L 67.925781 88.261719 L 67.925781 58.023438 Z M 170.6875 66.542969 L 166.617188 66.542969 L 167.796875 60.113281 L 162.136719 60.113281 L 161.675781 62.695312 C 161.609375 63.261719 161.441406 63.792969 161.175781 64.292969 C 160.90625 64.789062 160.558594 65.222656 160.128906 65.589844 C 159.699219 65.957031 159.21875 66.230469 158.683594 66.414062 C 158.152344 66.597656 157.605469 66.675781 157.042969 66.648438 L 156.070312 71.449219 L 159.269531 71.449219 L 156.171875 88.261719 L 162.597656 88.261719 L 165.695312 71.449219 L 169.816406 71.449219 Z M 170.6875 66.542969 " fill-opacity="1" fill-rule="nonzero"/></g><g clip-path="url(#id4)"><path fill="#4db84d" d="M 276.472656 58.046875 L 282.898438 58.046875 L 280.953125 68.816406 C 281.285156 68.308594 281.675781 67.855469 282.132812 67.453125 C 282.585938 67.054688 283.082031 66.71875 283.625 66.453125 C 284.167969 66.1875 284.738281 66 285.328125 65.886719 C 285.921875 65.777344 286.519531 65.746094 287.121094 65.796875 C 288.171875 65.738281 289.175781 65.921875 290.136719 66.351562 C 291.097656 66.777344 291.910156 67.402344 292.574219 68.222656 C 293.957031 70.339844 293.804688 72.277344 293.085938 76.148438 L 290.882812 88.285156 L 284.457031 88.285156 L 286.609375 76.460938 C 286.8125 75.425781 287.429688 71.890625 284.050781 71.890625 C 283.480469 71.894531 282.933594 72.003906 282.402344 72.214844 C 281.875 72.429688 281.40625 72.730469 280.988281 73.125 C 280.574219 73.515625 280.246094 73.972656 280 74.488281 C 279.753906 75.007812 279.609375 75.550781 279.570312 76.125 L 277.339844 88.261719 L 271.019531 88.261719 Z M 249.386719 66.542969 L 245.417969 66.542969 L 246.519531 60.113281 L 240.859375 60.113281 L 240.296875 62.59375 C 240.230469 63.15625 240.0625 63.6875 239.796875 64.1875 C 239.527344 64.6875 239.179688 65.121094 238.75 65.488281 C 238.320312 65.855469 237.839844 66.128906 237.304688 66.3125 C 236.773438 66.492188 236.226562 66.570312 235.664062 66.542969 L 234.792969 71.449219 L 237.96875 71.449219 L 234.894531 88.261719 L 241.320312 88.261719 L 244.394531 71.449219 L 248.515625 71.449219 Z M 218.382812 82.96875 C 219.167969 82.957031 219.925781 82.8125 220.660156 82.535156 C 221.390625 82.257812 222.058594 81.863281 222.65625 81.351562 C 223.253906 80.839844 223.75 80.242188 224.140625 79.558594 C 224.53125 78.871094 224.796875 78.140625 224.9375 77.363281 C 225.03125 77.03125 225.082031 76.6875 225.09375 76.34375 C 225.105469 75.996094 225.078125 75.652344 225.007812 75.3125 C 224.9375 74.972656 224.828125 74.644531 224.679688 74.332031 C 224.53125 74.019531 224.351562 73.726562 224.132812 73.457031 C 223.917969 73.1875 223.671875 72.949219 223.398438 72.738281 C 223.125 72.527344 222.828125 72.351562 222.511719 72.214844 C 222.199219 72.074219 221.871094 71.976562 221.53125 71.917969 C 221.191406 71.859375 220.851562 71.839844 220.507812 71.863281 C 219.738281 71.890625 218.996094 72.046875 218.277344 72.332031 C 217.5625 72.617188 216.914062 73.015625 216.335938 73.523438 C 215.753906 74.035156 215.273438 74.628906 214.898438 75.304688 C 214.519531 75.980469 214.265625 76.703125 214.132812 77.46875 C 214.050781 77.796875 214.003906 78.136719 214 78.476562 C 213.992188 78.820312 214.027344 79.15625 214.097656 79.492188 C 214.171875 79.824219 214.277344 80.148438 214.425781 80.457031 C 214.570312 80.765625 214.75 81.050781 214.960938 81.316406 C 215.175781 81.585938 215.414062 81.824219 215.679688 82.035156 C 215.949219 82.246094 216.234375 82.421875 216.542969 82.5625 C 216.851562 82.707031 217.171875 82.8125 217.503906 82.882812 C 217.835938 82.949219 218.171875 82.976562 218.511719 82.96875 M 229.367188 88.132812 L 222.863281 88.132812 L 223.273438 85.808594 C 222.425781 86.875 221.386719 87.691406 220.15625 88.257812 C 218.925781 88.828125 217.636719 89.085938 216.285156 89.035156 C 209.449219 89.035156 206.453125 83.585938 207.605469 77.363281 C 207.730469 76.585938 207.917969 75.824219 208.175781 75.078125 C 208.429688 74.332031 208.746094 73.617188 209.121094 72.925781 C 209.5 72.234375 209.929688 71.582031 210.417969 70.964844 C 210.90625 70.351562 211.441406 69.78125 212.027344 69.257812 C 212.609375 68.734375 213.234375 68.265625 213.898438 67.851562 C 214.5625 67.433594 215.257812 67.078125 215.984375 66.785156 C 216.707031 66.488281 217.453125 66.257812 218.214844 66.09375 C 218.980469 65.925781 219.753906 65.828125 220.53125 65.796875 C 221.109375 65.730469 221.683594 65.753906 222.25 65.859375 C 222.820312 65.96875 223.363281 66.15625 223.875 66.429688 C 224.386719 66.699219 224.851562 67.042969 225.261719 67.453125 C 225.675781 67.863281 226.019531 68.328125 226.292969 68.84375 L 226.753906 66.570312 L 233.128906 66.570312 Z M 217 50.300781 L 204.457031 58.046875 L 208.015625 58.046875 L 196.648438 75.246094 L 196.648438 58.046875 L 190.988281 58.046875 L 179.621094 75.246094 L 179.621094 58.046875 L 173.042969 58.046875 L 173.042969 88.261719 L 178.648438 88.261719 L 190.015625 70.960938 L 190.015625 88.261719 L 195.570312 88.261719 L 215.769531 58.046875 L 218.945312 58.046875 Z M 270.402344 80.023438 C 269.863281 81.320312 269.15625 82.515625 268.273438 83.605469 C 267.394531 84.699219 266.382812 85.644531 265.234375 86.441406 C 264.085938 87.242188 262.851562 87.859375 261.527344 88.300781 C 260.203125 88.742188 258.84375 88.988281 257.449219 89.035156 C 257.085938 89.054688 256.722656 89.054688 256.359375 89.03125 C 255.996094 89.007812 255.632812 88.964844 255.277344 88.898438 C 254.917969 88.832031 254.5625 88.746094 254.214844 88.636719 C 253.867188 88.53125 253.527344 88.402344 253.195312 88.253906 C 252.859375 88.105469 252.535156 87.9375 252.222656 87.75 C 251.910156 87.5625 251.609375 87.359375 251.316406 87.136719 C 251.027344 86.914062 250.753906 86.675781 250.492188 86.417969 C 250.230469 86.164062 249.984375 85.890625 249.753906 85.609375 C 249.523438 85.324219 249.308594 85.023438 249.113281 84.714844 C 248.917969 84.40625 248.742188 84.085938 248.585938 83.753906 C 248.425781 83.421875 248.289062 83.082031 248.171875 82.734375 C 248.050781 82.386719 247.953125 82.035156 247.878906 81.675781 C 247.800781 81.316406 247.746094 80.953125 247.710938 80.585938 C 247.675781 80.222656 247.664062 79.855469 247.671875 79.488281 C 247.679688 79.121094 247.710938 78.753906 247.761719 78.390625 C 247.8125 78.027344 247.882812 77.667969 247.976562 77.3125 C 248.136719 76.519531 248.359375 75.746094 248.644531 74.992188 C 248.933594 74.242188 249.28125 73.515625 249.691406 72.820312 C 250.097656 72.128906 250.5625 71.472656 251.078125 70.855469 C 251.597656 70.242188 252.164062 69.671875 252.777344 69.152344 C 253.390625 68.632812 254.042969 68.171875 254.730469 67.761719 C 255.421875 67.355469 256.140625 67.007812 256.890625 66.71875 C 257.640625 66.433594 258.40625 66.214844 259.191406 66.058594 C 259.976562 65.902344 260.769531 65.816406 261.570312 65.796875 C 262.191406 65.753906 262.808594 65.777344 263.425781 65.863281 C 264.042969 65.953125 264.644531 66.101562 265.226562 66.3125 C 265.8125 66.523438 266.371094 66.792969 266.902344 67.117188 C 267.433594 67.445312 267.925781 67.824219 268.382812 68.25 C 268.835938 68.679688 269.242188 69.148438 269.601562 69.660156 C 269.960938 70.171875 270.265625 70.714844 270.511719 71.292969 C 270.761719 71.867188 270.949219 72.460938 271.078125 73.074219 C 271.207031 73.6875 271.273438 74.308594 271.273438 74.9375 L 264.746094 74.9375 C 264.652344 74.46875 264.480469 74.03125 264.226562 73.628906 C 263.972656 73.226562 263.652344 72.882812 263.273438 72.597656 C 262.890625 72.3125 262.472656 72.109375 262.015625 71.980469 C 261.558594 71.855469 261.09375 71.816406 260.625 71.863281 C 260.25 71.871094 259.882812 71.910156 259.515625 71.980469 C 259.148438 72.054688 258.792969 72.160156 258.445312 72.296875 C 258.097656 72.433594 257.765625 72.597656 257.445312 72.796875 C 257.128906 72.992188 256.828125 73.214844 256.550781 73.464844 C 256.273438 73.714844 256.019531 73.988281 255.789062 74.285156 C 255.558594 74.582031 255.355469 74.898438 255.179688 75.230469 C 255.007812 75.5625 254.863281 75.90625 254.75 76.265625 C 254.636719 76.625 254.554688 76.992188 254.503906 77.363281 C 254.398438 77.6875 254.328125 78.019531 254.300781 78.359375 C 254.273438 78.699219 254.285156 79.039062 254.339844 79.375 C 254.390625 79.710938 254.484375 80.039062 254.617188 80.351562 C 254.75 80.664062 254.917969 80.960938 255.121094 81.234375 C 255.320312 81.507812 255.554688 81.75 255.816406 81.96875 C 256.078125 82.183594 256.363281 82.363281 256.667969 82.511719 C 256.972656 82.65625 257.292969 82.765625 257.621094 82.832031 C 257.953125 82.902344 258.289062 82.929688 258.628906 82.914062 C 259.667969 82.902344 260.644531 82.640625 261.550781 82.125 C 262.460938 81.613281 263.191406 80.910156 263.746094 80.023438 Z M 270.402344 80.023438 " fill-opacity="1" fill-rule="nonzero"/></g></svg>