<?xml version="1.0" standalone="no"?>
<!DOCTYPE svg PUBLIC "-//W3C//DTD SVG 20010904//EN"
 "http://www.w3.org/TR/2001/REC-SVG-20010904/DTD/svg10.dtd">
<svg version="1.0" xmlns="http://www.w3.org/2000/svg"
 width="500.000000pt" height="188.000000pt" viewBox="0 0 700.000000 188.000000"
 preserveAspectRatio="xMidYMid meet">

<g transform="translate(0.000000,188.000000) scale(0.100000,-0.100000)"
fill="gold" stroke="none">
<path d="M890 1775 c-133 -28 -235 -73 -338 -149 -210 -155 -333 -380 -349
-638 -22 -361 195 -704 532 -839 123 -49 201 -61 350 -56 145 5 213 20 323 72
227 107 388 292 461 528 138 452 -129 936 -589 1067 -97 28 -296 36 -390 15z
m-50 -97 c21 -28 64 -157 55 -166 -2 -2 -13 11 -25 27 -12 17 -30 31 -41 31
-12 0 -19 7 -19 18 0 10 -6 24 -12 30 -10 10 -10 17 0 33 7 11 10 29 7 40 -10
29 9 23 35 -13z m-87 -35 c-2 -16 3 -37 11 -48 l15 -20 2 20 c1 19 9 -7 24
-80 6 -29 6 -29 -10 -10 -13 16 -17 17 -24 6 -11 -18 -31 -5 -31 20 0 11 -4
17 -10 14 -5 -3 -10 3 -10 14 0 11 4 23 10 26 5 3 7 19 3 35 -6 33 2 64 15 56
5 -3 7 -18 5 -33z m537 25 c0 -6 -7 -19 -15 -28 -14 -15 -12 -16 16 -12 21 3
33 12 40 29 10 28 30 23 22 -6 -4 -16 -1 -19 16 -14 32 8 16 -23 -17 -36 -15
-5 -21 -10 -14 -10 15 -1 16 -33 0 -49 -9 -9 -7 -19 11 -43 12 -17 21 -32 19
-33 -10 -8 -68 17 -68 29 0 8 -6 15 -12 15 -7 1 -31 9 -53 20 -22 11 -46 19
-52 20 -17 0 -17 30 0 30 21 0 50 37 44 55 -4 9 -1 15 9 15 8 0 17 7 20 15 7
18 34 20 34 3z m-85 -163 c241 -63 418 -282 432 -535 10 -168 -48 -320 -166
-440 -107 -108 -227 -164 -380 -176 -270 -21 -535 169 -606 436 -19 72 -19
220 0 295 52 200 216 366 415 419 74 20 231 20 305 1z m-755 -137 l29 -32 21
27 c25 31 44 36 35 8 -4 -14 0 -23 15 -31 24 -13 26 -42 4 -75 -13 -20 -20
-23 -34 -15 -10 6 -28 10 -39 10 -24 0 -25 4 -11 29 7 14 3 23 -23 42 -18 13
-37 22 -44 21 -21 -5 -27 21 -8 35 24 17 22 18 55 -19z m1270 8 c0 -7 -9 -21
-20 -31 l-20 -18 20 -19 c36 -34 23 -51 -18 -22 -19 13 -28 13 -57 3 -26 -10
-40 -10 -60 -1 -29 14 -33 32 -7 39 14 3 18 11 14 29 -5 28 13 32 40 7 17 -15
20 -15 55 10 36 26 53 27 53 3z m-92 -118 c17 -17 15 -58 -2 -58 -15 0 -26 21
-26 51 0 22 11 24 28 7z m166 -263 c9 -14 19 -39 23 -55 5 -30 5 -30 -41 -30
-30 0 -45 -4 -41 -10 4 -6 4 -18 1 -27 -6 -14 -9 -14 -22 5 -8 12 -23 22 -33
22 -28 0 -32 36 -7 65 26 30 36 32 36 5 0 -10 9 -24 20 -30 12 -6 20 -7 20 -1
0 5 -6 11 -12 14 -7 2 -9 8 -5 13 4 4 18 2 30 -5 18 -11 17 -8 -5 16 -34 36
-35 43 -4 43 14 0 30 -10 40 -25z m56 16 c0 -12 -29 -35 -36 -28 -11 10 5 37
21 37 8 0 15 -4 15 -9z m-1496 -26 c3 -8 17 -20 31 -25 14 -5 25 -16 25 -25 0
-25 18 -17 22 10 4 32 22 37 26 8 5 -32 -15 -63 -40 -63 -11 0 -26 -7 -33 -16
-8 -11 -19 -14 -33 -10 -22 7 -31 26 -11 26 5 0 7 5 4 10 -4 6 -14 8 -24 5
-11 -3 -28 6 -46 25 -16 16 -35 30 -42 30 -8 0 -11 5 -8 10 3 6 21 10 40 10
19 0 37 5 40 10 9 15 42 12 49 -5z m1504 -16 c-2 -6 -8 -10 -13 -10 -5 0 -11
4 -13 10 -2 6 4 11 13 11 9 0 15 -5 13 -11z m31 -44 c6 -7 -8 -35 -18 -35 -5
0 -16 12 -26 26 l-17 27 28 -7 c16 -4 31 -9 33 -11z m-970 -686 c-31 -49 -53
-68 -66 -56 -3 4 6 22 21 41 14 19 26 42 26 50 0 10 9 16 25 16 l25 0 -31 -51z
m121 36 c27 -32 -33 -100 -81 -93 -12 2 -24 9 -27 16 -3 9 3 11 21 7 25 -7 52
15 29 23 -13 4 -16 44 -5 55 12 12 50 7 63 -8z m140 8 c0 -5 -4 -14 -9 -22 -8
-12 -12 -13 -25 -1 -9 7 -20 10 -24 6 -4 -4 1 -12 11 -17 37 -21 13 -69 -34
-69 -38 0 -43 25 -13 70 22 34 32 40 60 40 19 0 34 -3 34 -7z m118 -15 c4 -19
-24 -26 -30 -7 -2 5 -11 7 -21 4 -15 -6 -15 -9 4 -24 18 -15 20 -21 10 -39
-23 -42 -91 -18 -76 27 16 51 105 81 113 39z"/>
<path d="M1203 1270 c-66 -23 -175 -94 -232 -150 -38 -37 -42 -44 -27 -52 14
-8 30 1 74 39 166 143 319 206 372 153 25 -25 27 -89 5 -150 -18 -52 -18 -50
-1 -50 22 0 39 65 34 128 -7 76 -36 102 -116 101 -31 0 -80 -9 -109 -19z"/>
<path d="M580 960 c0 -65 23 -90 83 -90 59 0 77 21 77 88 0 45 -3 52 -19 52
-17 0 -20 -8 -23 -51 -3 -55 -21 -78 -52 -66 -12 5 -16 20 -16 62 0 52 -1 55
-25 55 -23 0 -25 -3 -25 -50z"/>
<path d="M1052 998 c-27 -27 -6 -68 34 -68 12 0 27 -7 34 -15 18 -22 -16 -32
-39 -11 -24 21 -41 20 -41 -3 0 -22 19 -31 65 -31 29 0 65 20 65 36 0 21 -26
44 -55 50 -20 3 -35 12 -35 20 0 17 24 18 50 2 24 -15 37 -4 20 17 -15 18 -81
20 -98 3z"/>
<path d="M1190 995 c0 -9 9 -15 25 -15 24 0 25 -3 25 -55 0 -48 2 -55 20 -55
18 0 20 7 20 54 0 51 2 55 25 58 54 7 27 23 -42 26 -60 2 -73 0 -73 -13z"/>
<path d="M1370 990 c-28 -28 -26 -75 5 -105 32 -33 74 -33 105 0 20 21 21 25
7 25 -10 0 -26 -5 -36 -12 -28 -17 -71 4 -71 36 0 39 24 52 73 39 50 -14 55
-11 28 16 -28 28 -84 28 -111 1z"/>
<path d="M880 900 c-9 -6 -10 -10 -3 -10 6 0 15 5 18 10 8 12 4 12 -15 0z"/>
<path d="M930 866 c0 -2 7 -7 16 -10 8 -3 12 -2 9 4 -6 10 -25 14 -25 6z"/>
<path d="M754 814 c-9 -21 -19 -69 -22 -106 -4 -61 -3 -68 21 -92 35 -35 70
-41 141 -27 64 13 134 45 206 94 49 33 160 136 160 147 0 21 -63 -10 -120 -60
-171 -150 -321 -209 -381 -149 -27 27 -23 94 11 163 16 35 20 50 11 59 -8 8
-15 0 -27 -29z"/>
<path d="M507 1313 c-14 -13 -6 -33 13 -33 11 0 20 4 20 9 0 13 -26 32 -33 24z"/>
<path d="M1680 940 c0 -5 5 -10 11 -10 5 0 7 5 4 10 -3 6 -8 10 -11 10 -2 0
-4 -4 -4 -10z"/>
<path d="M305 970 c-3 -6 1 -13 10 -16 19 -8 30 0 20 15 -8 14 -22 14 -30 1z"/>
<path d="M990 262 c0 -5 7 -9 15 -9 8 0 15 4 15 9 0 4 -7 8 -15 8 -8 0 -15 -4
-15 -8z"/>
<path d="M1094 220 c0 -11 6 -20 14 -20 7 0 12 8 10 17 -4 24 -24 27 -24 3z"/>
<path d="M1210 208 c0 -4 7 -8 15 -8 8 0 15 4 15 8 0 5 -7 9 -15 9 -8 0 -15
-4 -15 -9z"/>
<path d="M3722 1428 c-29 -32 -62 -107 -62 -144 0 -77 -10 -94 -67 -121 -54
-26 -103 -73 -103 -99 0 -18 9 -18 52 0 59 25 63 9 23 -82 -36 -82 -40 -98
-29 -126 9 -24 21 -20 74 25 27 23 53 38 59 34 6 -3 11 -28 11 -55 0 -35 -4
-50 -16 -54 -15 -6 -15 -8 1 -26 23 -26 31 -25 50 3 12 19 13 37 5 107 -9 80
-8 86 14 120 36 55 76 137 76 157 0 10 -14 -5 -30 -33 -38 -65 -56 -81 -77
-68 -13 8 -17 33 -20 111 l-3 100 40 49 c42 51 56 84 46 109 -8 21 -19 19 -44
-7z"/>
<path d="M4000 1376 c0 -42 -5 -78 -11 -81 -5 -4 -31 -10 -57 -14 -36 -5 -47
-11 -50 -26 -1 -11 -8 -37 -14 -58 -10 -33 -9 -40 10 -60 l22 -23 -31 -48
c-16 -27 -29 -58 -27 -70 3 -18 11 -21 58 -24 30 -2 59 -7 63 -11 4 -4 14 -55
22 -112 8 -57 20 -122 27 -144 l12 -40 8 74 c5 41 16 92 25 115 9 23 18 76 22
118 4 57 12 84 29 107 29 40 28 66 -9 145 -20 42 -33 88 -36 129 -4 47 -10 66
-27 79 -11 10 -24 18 -28 18 -5 0 -8 -33 -8 -74z m-22 -182 c4 -29 -23 -51
-43 -34 -16 13 -20 42 -8 54 14 14 48 1 51 -20z m-14 -90 c23 -9 20 -51 -5
-64 -40 -22 -62 7 -39 51 11 20 19 23 44 13z"/>
<path d="M6600 1431 c0 -10 -15 -41 -33 -69 -19 -27 -37 -57 -40 -66 -8 -20
11 -21 37 -1 11 8 39 15 61 15 45 0 75 22 75 55 0 21 -65 85 -86 85 -8 0 -14
-9 -14 -19z"/>
<path d="M2287 1372 c4 -40 -1 -57 -33 -117 -79 -148 -78 -146 -66 -164 33
-45 36 -61 19 -96 -20 -43 -42 -44 -66 -5 -23 38 -31 29 -31 -34 0 -65 9 -77
66 -96 44 -15 49 -20 64 -68 27 -83 40 -92 131 -92 102 0 148 20 149 63 0 21
-34 22 -126 5 -51 -9 -66 -9 -79 2 -28 23 -14 53 40 81 l50 25 2 56 c1 61 26
118 68 157 14 13 25 29 25 36 0 7 -31 39 -69 71 -64 54 -69 61 -75 107 -6 53
-25 90 -54 106 -17 9 -19 6 -15 -37z m114 -181 c34 -35 36 -49 9 -101 -19 -37
-61 -62 -76 -47 -12 11 -7 147 6 162 18 21 28 19 61 -14z m-61 -206 c0 -8 -7
-15 -15 -15 -8 0 -15 7 -15 15 0 8 7 15 15 15 8 0 15 -7 15 -15z m0 -55 c0 -5
-5 -10 -11 -10 -5 0 -7 5 -4 10 3 6 8 10 11 10 2 0 4 -4 4 -10z"/>
<path d="M6256 1385 c-28 -28 -20 -82 16 -116 36 -32 37 -32 57 -20 12 8 12
17 0 66 -17 68 -46 97 -73 70z"/>
<path d="M4819 1390 c0 -3 -6 -48 -12 -100 l-12 -95 -59 -19 c-48 -16 -64 -27
-89 -63 -17 -23 -34 -43 -38 -43 -20 0 -16 24 17 94 40 83 40 127 1 147 -28
16 -54 -16 -62 -79 -9 -69 -11 -72 -48 -72 -45 0 -51 -9 -22 -32 66 -52 26
-200 -66 -238 -26 -11 -29 -17 -24 -39 3 -14 13 -33 20 -40 13 -13 19 -13 50
2 33 16 38 16 60 1 22 -14 24 -14 34 5 6 11 11 39 11 63 1 47 9 66 58 124 l32
39 0 -47 c0 -44 2 -48 43 -70 47 -26 58 -61 20 -66 -31 -5 -72 25 -81 60 -4
16 -12 29 -17 29 -14 0 -27 -56 -23 -104 3 -37 6 -42 38 -50 32 -8 87 -6 181
9 33 5 37 3 43 -20 11 -44 57 -60 152 -52 45 3 89 9 98 12 21 8 20 24 -1 24
-24 0 -109 50 -160 94 -38 34 -41 39 -32 64 12 32 16 153 5 171 -6 9 -21 11
-47 7 -35 -6 -39 -4 -39 14 0 16 14 27 54 45 42 18 56 31 65 56 11 33 15 89 6
89 -3 0 -23 -18 -45 -41 -21 -23 -45 -39 -52 -37 -7 3 -17 33 -23 71 -5 36
-16 72 -22 79 -7 6 -13 10 -14 8z m-59 -303 c0 -5 -5 -17 -10 -28 -8 -15 -17
-18 -38 -13 -39 9 -42 15 -27 51 l14 33 30 -18 c17 -9 31 -21 31 -25z m120
-86 c0 -26 -34 -66 -48 -57 -17 10 -15 36 5 58 21 23 43 23 43 -1z"/>
<path d="M6394 1366 c-3 -8 -4 -25 -2 -38 4 -28 45 -32 62 -5 9 15 6 21 -14
37 -30 23 -39 25 -46 6z"/>
<path d="M2978 1333 l-27 -27 31 -26 31 -26 -21 -95 c-12 -52 -22 -106 -22
-120 0 -32 -15 -39 -86 -39 -48 0 -54 -2 -54 -21 0 -11 11 -37 25 -57 19 -27
25 -50 25 -88 l0 -52 50 -11 c143 -31 210 12 210 135 0 36 12 49 58 61 18 4
34 13 34 18 2 19 -58 44 -117 51 -33 3 -65 13 -72 21 -13 16 -4 57 27 125 27
60 26 119 -2 145 -38 35 -60 36 -90 6z m53 -383 c41 -22 4 -130 -44 -130 -37
0 -95 75 -83 106 11 29 89 44 127 24z"/>
<path d="M5550 1328 c-17 -18 -20 -35 -20 -102 0 -45 -5 -98 -11 -118 -11 -41
-21 -46 -104 -50 -41 -3 -52 -7 -61 -27 -18 -36 -7 -49 52 -67 29 -8 56 -19
59 -24 3 -5 -6 -20 -21 -32 -14 -13 -30 -31 -35 -41 -15 -27 -1 -57 25 -57 36
0 108 28 135 53 32 30 61 94 61 138 0 34 3 38 48 57 26 11 63 23 82 27 77 16
94 47 35 64 -40 11 -87 1 -111 -24 -30 -30 -39 -12 -36 69 2 64 -1 83 -18 111
-17 28 -38 45 -55 45 -3 0 -13 -10 -25 -22z"/>
<path d="M6336 1190 c-84 -23 -156 -49 -156 -58 -1 -4 -7 -29 -14 -57 -12 -44
-12 -52 2 -67 22 -26 41 -22 60 12 11 18 28 32 47 36 17 3 53 18 80 33 56 31
101 45 116 35 17 -10 -11 -34 -67 -59 -59 -26 -90 -70 -80 -111 9 -33 19 -30
49 14 46 65 87 77 87 26 0 -34 -26 -71 -74 -105 -41 -31 -84 -37 -132 -19 -21
8 -29 8 -36 -2 -13 -21 -10 -28 31 -69 22 -21 49 -59 60 -84 l20 -45 69 0 c81
0 100 14 109 80 7 48 32 70 83 70 19 0 41 4 49 9 19 12 6 44 -29 64 -27 16
-32 16 -66 2 -53 -22 -64 -8 -40 53 10 26 20 64 23 84 3 21 15 46 29 59 15 14
24 34 24 51 0 24 -7 32 -42 48 -53 24 -112 24 -202 0z m98 -397 c13 -32 -37
-59 -79 -43 -34 13 -31 38 6 54 36 15 65 11 73 -11z"/>
<path d="M5635 879 c-6 -8 0 -18 14 -28 12 -9 38 -29 57 -44 19 -17 51 -31 74
-34 38 -5 40 -4 40 21 0 14 -12 40 -28 57 -23 26 -36 31 -88 36 -45 4 -63 2
-69 -8z"/>
<path d="M4119 511 c-20 -16 -22 -22 -11 -42 6 -13 22 -36 34 -52 17 -21 19
-30 10 -39 -9 -9 -15 -8 -25 7 -10 13 -16 15 -21 6 -12 -19 15 -42 43 -39 38
4 41 55 6 88 -28 26 -33 60 -10 60 8 0 15 -4 15 -10 0 -5 5 -10 10 -10 17 0
11 29 -9 40 -15 7 -25 5 -42 -9z"/>
<path d="M6316 514 c-21 -21 -22 -136 -2 -154 26 -20 61 -8 64 23 4 31 -13 37
-21 7 -3 -11 -10 -20 -16 -20 -7 0 -11 25 -11 65 0 51 3 65 15 65 8 0 15 -7
15 -15 0 -8 5 -15 10 -15 18 0 11 39 -9 50 -25 13 -27 13 -45 -6z"/>
<path d="M2110 446 c0 -80 11 -100 52 -94 22 3 23 8 26 86 2 50 -1 82 -7 82
-6 0 -11 -32 -13 -72 -2 -46 -7 -73 -15 -76 -10 -3 -13 16 -13 72 0 61 -3 76
-15 76 -12 0 -15 -15 -15 -74z"/>
<path d="M2330 510 c0 -5 5 -10 10 -10 6 0 10 5 10 10 0 6 -4 10 -10 10 -5 0
-10 -4 -10 -10z"/>
<path d="M2740 510 c0 -5 5 -10 10 -10 6 0 10 5 10 10 0 6 -4 10 -10 10 -5 0
-10 -4 -10 -10z"/>
<path d="M3102 498 c-10 -30 -3 -148 9 -148 5 0 9 24 9 54 0 34 5 56 13 59 9
4 8 8 -3 17 -11 9 -12 13 -2 17 17 7 15 23 -3 23 -9 0 -19 -10 -23 -22z"/>
<path d="M3210 434 l0 -85 33 3 c33 3 41 23 9 23 -11 0 -18 9 -20 28 -2 19 1
27 12 27 9 0 16 5 16 10 0 6 -7 10 -15 10 -9 0 -15 9 -15 25 0 20 5 25 26 25
14 0 23 4 19 10 -3 6 -19 10 -36 10 l-29 0 0 -86z"/>
<path d="M3310 435 c0 -50 4 -85 10 -85 6 0 10 35 10 85 0 50 -4 85 -10 85 -6
0 -10 -35 -10 -85z"/>
<path d="M3910 510 c0 -5 5 -10 10 -10 6 0 10 5 10 10 0 6 -4 10 -10 10 -5 0
-10 -4 -10 -10z"/>
<path d="M4310 510 c0 -5 5 -10 10 -10 6 0 10 5 10 10 0 6 -4 10 -10 10 -5 0
-10 -4 -10 -10z"/>
<path d="M5048 498 c-2 -15 -10 -23 -23 -23 -18 0 -20 -7 -20 -60 l0 -60 33
-3 32 -3 0 85 c0 47 -4 86 -9 86 -5 0 -11 -10 -13 -22z m-3 -83 c0 -22 -5 -40
-12 -42 -9 -3 -13 9 -13 42 0 33 4 45 13 43 7 -3 12 -21 12 -43z"/>
<path d="M5130 510 c0 -5 7 -10 15 -10 12 0 15 -15 15 -75 0 -43 4 -75 10 -75
6 0 10 32 10 75 0 60 3 75 15 75 8 0 15 5 15 10 0 6 -18 10 -40 10 -22 0 -40
-4 -40 -10z"/>
<path d="M5420 435 c0 -50 4 -85 10 -85 6 0 10 25 10 55 0 30 5 55 10 55 6 0
10 -25 10 -55 0 -30 5 -55 10 -55 6 0 10 29 10 66 0 61 -1 65 -20 59 -16 -5
-20 -2 -20 19 0 14 -4 26 -10 26 -6 0 -10 -35 -10 -85z"/>
<path d="M5720 435 c0 -50 4 -85 10 -85 6 0 10 35 10 85 0 50 -4 85 -10 85 -6
0 -10 -35 -10 -85z"/>
<path d="M6196 490 c-8 -16 -10 -30 -5 -30 5 0 9 -25 9 -55 0 -73 20 -71 21 3
3 81 3 86 12 100 5 8 3 12 -7 12 -8 0 -21 -13 -30 -30z"/>
<path d="M6419 495 c-4 -80 1 -145 11 -145 6 0 10 25 10 55 0 30 5 55 10 55 6
0 10 -25 10 -55 0 -30 5 -55 10 -55 6 0 10 29 10 66 0 61 -1 66 -20 61 -16 -4
-20 0 -20 19 0 32 -20 31 -21 -1z"/>
<path d="M6520 510 c0 -5 5 -10 10 -10 6 0 10 5 10 10 0 6 -4 10 -10 10 -5 0
-10 -4 -10 -10z"/>
<path d="M2798 493 c-2 -10 -2 -45 1 -78 5 -46 10 -61 24 -63 9 -2 17 1 17 7
0 6 -4 11 -10 11 -15 0 -12 87 3 94 10 5 10 7 0 12 -7 3 -13 12 -13 20 0 20
-17 17 -22 -3z"/>
<path d="M3570 496 c0 -8 -6 -17 -12 -20 -10 -5 -10 -7 0 -12 7 -3 12 -26 12
-60 0 -47 2 -54 20 -54 11 0 20 5 20 10 0 6 -4 10 -10 10 -15 0 -12 87 3 94
10 5 10 7 0 12 -7 3 -13 12 -13 20 0 8 -4 14 -10 14 -5 0 -10 -6 -10 -14z"/>
<path d="M2230 413 c0 -35 4 -63 10 -63 6 0 10 22 10 49 0 28 5 53 10 56 6 4
10 -15 10 -49 0 -31 5 -56 10 -56 6 0 10 28 10 63 l0 64 -30 0 -30 0 0 -64z"/>
<path d="M2330 415 c0 -37 4 -65 10 -65 6 0 10 28 10 65 0 37 -4 65 -10 65 -6
0 -10 -28 -10 -65z"/>
<path d="M2380 466 c0 -32 22 -116 31 -116 5 0 11 10 14 23 21 93 23 108 12
104 -7 -2 -13 -18 -15 -35 -4 -37 -22 -34 -22 3 0 13 -4 27 -10 30 -5 3 -10
-1 -10 -9z"/>
<path d="M2482 471 c-9 -5 -12 -25 -10 -62 3 -48 6 -54 27 -57 13 -2 28 2 32
10 13 19 11 28 -6 28 -8 0 -15 -4 -15 -10 0 -5 -4 -10 -10 -10 -5 0 -10 9 -10
20 0 15 7 20 25 20 19 0 25 5 25 23 0 38 -29 57 -58 38z m28 -26 c0 -8 -4 -15
-10 -15 -5 0 -10 7 -10 15 0 8 5 15 10 15 6 0 10 -7 10 -15z"/>
<path d="M2570 414 c0 -36 4 -64 10 -64 6 0 10 22 10 49 0 34 4 51 15 55 23 9
18 21 -10 22 -24 2 -25 0 -25 -62z"/>
<path d="M2647 474 c-14 -14 -6 -41 18 -64 18 -17 22 -27 15 -34 -8 -8 -14 -6
-20 4 -11 18 -25 6 -17 -15 8 -20 53 -20 61 1 7 17 -5 44 -28 64 -23 18 -20
32 5 25 15 -5 20 -3 17 6 -5 15 -40 24 -51 13z"/>
<path d="M2740 415 c0 -37 4 -65 10 -65 6 0 10 28 10 65 0 37 -4 65 -10 65 -6
0 -10 -28 -10 -65z"/>
<path d="M2866 453 c3 -16 10 -46 16 -67 8 -33 7 -42 -6 -52 -20 -14 -20 -24
-2 -24 20 0 27 14 42 84 16 75 17 86 4 86 -5 0 -10 -10 -10 -22 0 -13 -5 -30
-10 -38 -8 -12 -10 -11 -10 7 0 28 -10 53 -21 53 -5 0 -7 -12 -3 -27z"/>
<path d="M3004 467 c-3 -8 -4 -36 -2 -63 3 -45 5 -49 28 -49 24 0 25 3 25 60
0 55 -2 60 -23 63 -12 2 -24 -3 -28 -11z m36 -52 c0 -25 -4 -45 -10 -45 -5 0
-10 20 -10 45 0 25 5 45 10 45 6 0 10 -20 10 -45z"/>
<path d="M3372 468 c-13 -13 -16 -75 -6 -102 8 -20 53 -21 61 -1 3 9 2 19 -2
23 -4 4 -10 1 -12 -5 -7 -21 -33 -15 -33 7 0 15 7 20 25 20 19 0 25 5 25 23 0
24 -17 47 -35 47 -6 0 -16 -5 -23 -12z m38 -29 c0 -5 -7 -9 -15 -9 -15 0 -20
12 -9 23 8 8 24 -1 24 -14z"/>
<path d="M3471 466 c-7 -8 -11 -36 -9 -63 3 -43 5 -48 29 -51 17 -2 29 3 33
13 9 24 -5 42 -16 21 -16 -29 -28 -17 -28 29 0 46 12 58 28 29 7 -12 11 -13
16 -5 9 14 -11 41 -29 41 -7 0 -18 -6 -24 -14z"/>
<path d="M3640 415 c0 -37 4 -65 10 -65 6 0 10 22 10 49 0 36 4 51 16 55 20 8
12 19 -16 23 -18 3 -20 -3 -20 -62z"/>
<path d="M3714 466 c-3 -7 -4 -35 -2 -62 3 -42 6 -49 25 -52 17 -3 26 4 33 24
11 27 8 73 -5 93 -9 16 -45 13 -51 -3z m36 -51 c0 -25 -4 -45 -10 -45 -5 0
-10 20 -10 45 0 25 5 45 10 45 6 0 10 -20 10 -45z"/>
<path d="M3810 413 c0 -35 4 -63 10 -63 6 0 10 22 10 49 0 28 5 53 10 56 6 4
10 -15 10 -49 0 -31 5 -56 10 -56 6 0 10 28 10 63 l0 64 -30 0 -30 0 0 -64z"/>
<path d="M3910 415 c0 -37 4 -65 10 -65 6 0 10 28 10 65 0 37 -4 65 -10 65 -6
0 -10 -28 -10 -65z"/>
<path d="M3971 461 c-26 -47 -3 -117 35 -109 20 3 34 48 15 48 -6 0 -11 -7
-11 -15 0 -8 -4 -15 -10 -15 -5 0 -10 20 -10 45 0 25 5 45 10 45 6 0 10 -7 10
-15 0 -8 5 -15 11 -15 6 0 9 10 7 23 -4 29 -43 35 -57 8z"/>
<path d="M4222 468 c-13 -13 -16 -75 -6 -102 8 -21 50 -21 58 0 9 23 7 34 -4
34 -5 0 -10 -7 -10 -15 0 -8 -7 -15 -15 -15 -11 0 -15 11 -15 39 0 45 14 61
29 34 12 -23 25 -11 16 16 -7 23 -34 28 -53 9z"/>
<path d="M4310 415 c0 -37 4 -65 10 -65 6 0 10 28 10 65 0 37 -4 65 -10 65 -6
0 -10 -28 -10 -65z"/>
<path d="M4374 467 c-3 -8 -4 -36 -2 -63 3 -42 6 -49 26 -52 22 -3 42 22 27
36 -4 4 -10 1 -12 -5 -7 -20 -23 -15 -23 7 0 14 7 20 21 20 17 0 20 5 17 33
-2 24 -8 33 -26 35 -12 2 -24 -3 -28 -11z m36 -22 c0 -8 -4 -15 -10 -15 -5 0
-10 7 -10 15 0 8 5 15 10 15 6 0 10 -7 10 -15z"/>
<path d="M4470 413 c0 -35 4 -63 10 -63 6 0 10 22 10 49 0 28 5 53 10 56 6 4
10 -15 10 -49 0 -31 5 -56 10 -56 6 0 10 28 10 63 l0 64 -30 0 -30 0 0 -64z"/>
<path d="M4574 467 c-3 -8 -4 -36 -2 -63 3 -45 5 -49 28 -49 18 0 26 6 28 23
2 12 -1 22 -7 22 -6 0 -11 -7 -11 -15 0 -8 -4 -15 -10 -15 -5 0 -10 20 -10 45
0 25 5 45 10 45 6 0 10 -7 10 -15 0 -8 5 -15 11 -15 6 0 9 10 7 23 -4 26 -45
37 -54 14z"/>
<path d="M4671 461 c-12 -22 -14 -70 -5 -95 8 -20 53 -21 61 -1 3 9 2 19 -2
23 -4 4 -10 1 -12 -5 -7 -20 -23 -15 -23 7 0 14 7 20 21 20 17 0 20 5 17 33
-4 39 -40 51 -57 18z m39 -16 c0 -8 -4 -15 -10 -15 -5 0 -10 7 -10 15 0 8 5
15 10 15 6 0 10 -7 10 -15z"/>
<path d="M4810 465 c-16 -19 -5 -32 13 -17 26 22 27 -2 1 -29 -34 -36 -29 -63
14 -65 32 -2 32 -1 32 46 0 27 -3 55 -6 64 -8 20 -38 21 -54 1z m40 -69 c0
-16 -18 -31 -27 -22 -8 8 5 36 17 36 5 0 10 -6 10 -14z"/>
<path d="M4900 414 c0 -76 18 -86 22 -14 4 67 22 69 26 3 2 -29 8 -53 13 -53
6 0 9 26 7 62 l-3 62 -32 2 -33 2 0 -64z"/>
<path d="M5224 466 c-3 -7 -4 -35 -2 -62 3 -42 6 -49 25 -52 14 -2 26 4 33 17
9 17 8 21 -5 21 -8 0 -15 -4 -15 -10 0 -5 -4 -10 -10 -10 -5 0 -10 9 -10 20 0
13 7 20 20 20 26 0 35 22 20 49 -12 24 -48 28 -56 7z m36 -21 c0 -8 -4 -15
-10 -15 -5 0 -10 7 -10 15 0 8 5 15 10 15 6 0 10 -7 10 -15z"/>
<path d="M5321 461 c-15 -27 -14 -73 2 -95 19 -25 51 -17 55 14 2 23 1 24 -11
8 -22 -27 -27 -22 -27 27 0 25 5 45 10 45 6 0 10 -7 10 -15 0 -8 5 -15 11 -15
6 0 9 10 7 23 -4 29 -43 35 -57 8z"/>
<path d="M5520 413 c0 -35 4 -63 10 -63 6 0 10 22 10 49 0 28 5 53 10 56 6 4
10 -15 10 -49 0 -31 5 -56 10 -56 6 0 10 28 10 63 l0 64 -30 0 -30 0 0 -64z"/>
<path d="M5624 466 c-3 -7 -4 -35 -2 -62 2 -38 7 -50 22 -52 10 -2 22 0 27 5
14 14 19 84 8 104 -11 22 -47 25 -55 5z m36 -51 c0 -25 -4 -45 -10 -45 -5 0
-10 20 -10 45 0 25 5 45 10 45 6 0 10 -20 10 -45z"/>
<path d="M5782 468 c-14 -14 -16 -86 -3 -106 4 -8 19 -12 32 -10 21 3 24 9 27
51 4 65 -24 97 -56 65z m38 -59 c0 -28 -4 -39 -15 -39 -11 0 -15 11 -15 38 0
21 3 42 6 45 14 13 24 -6 24 -44z"/>
<path d="M5876 471 c-3 -4 -5 -32 -5 -62 0 -30 -1 -63 -3 -74 -3 -17 3 -20 32
-20 29 0 36 4 38 22 3 17 -3 24 -23 29 -25 6 -25 7 -7 20 24 17 34 81 14 89
-20 8 -40 6 -46 -4z m34 -41 c0 -16 -4 -30 -10 -30 -5 0 -10 14 -10 30 0 17 5
30 10 30 6 0 10 -13 10 -30z m15 -90 c3 -5 -3 -10 -14 -10 -12 0 -21 5 -21 10
0 6 6 10 14 10 8 0 18 -4 21 -10z"/>
<path d="M5964 455 c17 -66 19 -117 5 -125 -17 -11 -5 -24 15 -17 8 3 19 31
26 64 6 32 14 68 17 81 9 38 -15 24 -24 -15 l-10 -38 -8 38 c-4 20 -12 37 -17
37 -6 0 -7 -11 -4 -25z"/>
<path d="M6102 468 c-16 -16 -15 -79 1 -102 7 -10 22 -16 33 -14 16 3 19 12
19 63 0 52 -3 60 -20 63 -11 1 -26 -3 -33 -10z m38 -53 c0 -25 -4 -45 -10 -45
-5 0 -10 20 -10 45 0 25 5 45 10 45 6 0 10 -20 10 -45z"/>
<path d="M6520 415 c0 -37 4 -65 10 -65 6 0 10 28 10 65 0 37 -4 65 -10 65 -6
0 -10 -28 -10 -65z"/>
<path d="M6575 471 c-3 -2 -5 -31 -5 -63 0 -45 3 -58 15 -58 12 0 15 13 15 55
0 30 5 55 10 55 6 0 10 -25 10 -55 0 -32 4 -55 10 -55 7 0 10 24 8 63 -3 60
-4 62 -31 62 -15 1 -30 -1 -32 -4z"/>
<path d="M6682 468 c-16 -16 -15 -28 3 -28 8 0 15 5 15 12 0 9 3 9 12 0 9 -9
5 -16 -16 -33 -38 -30 -32 -63 12 -65 32 -2 32 -1 32 46 0 27 -3 55 -6 64 -7
19 -35 21 -52 4z m38 -72 c0 -16 -18 -31 -27 -22 -8 8 5 36 17 36 5 0 10 -6
10 -14z"/>
</g>
</svg>
