<svg width="605" height="140" viewBox="0 0 605 140" fill="none" xmlns="http://www.w3.org/2000/svg">
<path d="M181.147 56.9454L172.624 106H161.101L169.591 56.9454H181.147ZM196.106 77.3624L194.523 86.4591H172.691L174.274 77.3624H196.106ZM201.497 56.9454L199.914 66.0758H176.195L177.812 56.9454H201.497ZM212.11 79.1818L207.46 106H196.376L202.71 69.546H213.02L212.11 79.1818ZM224.037 69.2428L222.588 79.8219C222.004 79.7321 221.42 79.6534 220.836 79.5861C220.252 79.5187 219.657 79.4738 219.05 79.4513C217.815 79.4288 216.692 79.5748 215.681 79.8893C214.693 80.1813 213.828 80.6417 213.087 81.2706C212.368 81.8771 211.773 82.6407 211.301 83.5616C210.83 84.4825 210.481 85.5494 210.257 86.7623L208.404 85.4147C208.628 83.7076 208.988 81.8995 209.482 79.9904C209.999 78.0587 210.717 76.2394 211.638 74.5323C212.559 72.8253 213.75 71.444 215.209 70.3883C216.669 69.3102 218.466 68.7711 220.6 68.7711C221.184 68.7711 221.757 68.816 222.318 68.9059C222.88 68.9957 223.453 69.108 224.037 69.2428ZM239.063 106.674C236.547 106.629 234.256 106.169 232.19 105.293C230.124 104.394 228.372 103.159 226.934 101.587C225.497 100.014 224.43 98.1725 223.733 96.0612C223.06 93.9274 222.812 91.6027 222.992 89.087L223.127 87.7731C223.396 85.1227 224.025 82.652 225.014 80.361C226.002 78.0475 227.327 76.026 228.989 74.2965C230.651 72.5446 232.605 71.1857 234.852 70.2198C237.12 69.254 239.658 68.8048 242.466 68.8722C245.004 68.9171 247.194 69.4225 249.036 70.3883C250.9 71.3541 252.416 72.6681 253.584 74.3302C254.752 75.9698 255.561 77.8566 256.01 79.9904C256.481 82.1017 256.594 84.3478 256.347 86.7286L255.707 91.3444H226.732L227.877 84.2355L245.734 84.2692L245.936 83.2921C246.093 82.2365 246.048 81.2819 245.801 80.4283C245.554 79.5748 245.094 78.901 244.42 78.4069C243.746 77.8903 242.836 77.6095 241.691 77.5646C240.298 77.5421 239.142 77.8453 238.221 78.4742C237.322 79.1031 236.592 79.9342 236.031 80.9674C235.492 82.0006 235.076 83.1237 234.784 84.3365C234.492 85.527 234.279 86.6725 234.144 87.7731L234.009 89.0533C233.919 90.1539 233.953 91.2208 234.11 92.254C234.268 93.2872 234.582 94.2194 235.054 95.0504C235.548 95.8815 236.21 96.5553 237.042 97.0719C237.873 97.566 238.917 97.8356 240.175 97.8805C241.859 97.9254 243.432 97.611 244.892 96.9371C246.352 96.2633 247.666 95.3424 248.833 94.1744L253.449 100.306C252.438 101.834 251.136 103.069 249.541 104.012C247.946 104.933 246.228 105.607 244.386 106.034C242.567 106.483 240.792 106.696 239.063 106.674ZM275.584 106.674C273.069 106.629 270.778 106.169 268.711 105.293C266.645 104.394 264.893 103.159 263.456 101.587C262.018 100.014 260.951 98.1725 260.255 96.0612C259.581 93.9274 259.334 91.6027 259.514 89.087L259.648 87.7731C259.918 85.1227 260.547 82.652 261.535 80.361C262.523 78.0475 263.849 76.026 265.511 74.2965C267.173 72.5446 269.127 71.1857 271.373 70.2198C273.642 69.254 276.18 68.8048 278.987 68.8722C281.525 68.9171 283.715 69.4225 285.557 70.3883C287.421 71.3541 288.938 72.6681 290.105 74.3302C291.273 75.9698 292.082 77.8566 292.531 79.9904C293.003 82.1017 293.115 84.3478 292.868 86.7286L292.228 91.3444H263.253L264.399 84.2355L282.255 84.2692L282.458 83.2921C282.615 82.2365 282.57 81.2819 282.323 80.4283C282.076 79.5748 281.615 78.901 280.941 78.4069C280.268 77.8903 279.358 77.6095 278.212 77.5646C276.82 77.5421 275.663 77.8453 274.742 78.4742C273.844 79.1031 273.114 79.9342 272.552 80.9674C272.013 82.0006 271.598 83.1237 271.306 84.3365C271.014 85.527 270.8 86.6725 270.666 87.7731L270.531 89.0533C270.441 90.1539 270.475 91.2208 270.632 92.254C270.789 93.2872 271.104 94.2194 271.575 95.0504C272.069 95.8815 272.732 96.5553 273.563 97.0719C274.394 97.566 275.438 97.8356 276.696 97.8805C278.381 97.9254 279.953 97.611 281.413 96.9371C282.873 96.2633 284.187 95.3424 285.355 94.1744L289.971 100.306C288.96 101.834 287.657 103.069 286.062 104.012C284.468 104.933 282.75 105.607 280.908 106.034C279.088 106.483 277.314 106.696 275.584 106.674ZM336.128 69.546L334.747 77.4298H313.386L314.768 69.546H336.128ZM320.798 60.483H331.883L326.088 94.1744C325.998 94.9606 325.998 95.6119 326.088 96.1285C326.178 96.6227 326.414 97.0045 326.795 97.274C327.2 97.5211 327.817 97.6671 328.648 97.712C329.12 97.7345 329.592 97.7233 330.063 97.6783C330.535 97.6334 331.007 97.5885 331.479 97.5436L330.704 105.764C329.738 106.079 328.75 106.303 327.739 106.438C326.75 106.573 325.74 106.64 324.707 106.64C322.416 106.595 320.495 106.135 318.945 105.259C317.418 104.36 316.306 103.091 315.61 101.452C314.936 99.7897 314.7 97.8131 314.902 95.5221L320.798 60.483ZM334.949 88.3458L335.016 87.6383C335.308 85.0104 335.948 82.5509 336.937 80.2599C337.925 77.9689 339.239 75.9586 340.878 74.2291C342.541 72.4996 344.495 71.1632 346.741 70.2198C348.987 69.254 351.502 68.8048 354.288 68.8722C356.96 68.9171 359.274 69.4337 361.228 70.422C363.182 71.4103 364.788 72.7579 366.046 74.465C367.304 76.1495 368.191 78.1036 368.708 80.3273C369.247 82.5284 369.404 84.8756 369.179 87.3688L369.112 88.11C368.82 90.7155 368.168 93.1525 367.158 95.421C366.147 97.6896 364.811 99.6774 363.148 101.384C361.509 103.091 359.566 104.417 357.32 105.36C355.074 106.303 352.569 106.741 349.807 106.674C347.179 106.629 344.876 106.124 342.9 105.158C340.946 104.17 339.34 102.844 338.082 101.182C336.824 99.4977 335.926 97.566 335.387 95.3873C334.87 93.1862 334.724 90.839 334.949 88.3458ZM346.101 87.6383L346.033 88.3458C345.966 89.2667 345.921 90.2775 345.898 91.3781C345.898 92.4562 346.022 93.5006 346.269 94.5114C346.516 95.4996 346.965 96.3195 347.617 96.9708C348.291 97.5997 349.256 97.9366 350.514 97.9816C351.862 98.0265 352.985 97.7457 353.883 97.1393C354.804 96.5328 355.545 95.7242 356.107 94.7135C356.668 93.7028 357.095 92.6134 357.387 91.4454C357.702 90.2775 357.915 89.1544 358.027 88.0763L358.095 87.3688C358.162 86.4703 358.196 85.4708 358.196 84.3702C358.218 83.2472 358.106 82.1803 357.859 81.1696C357.612 80.1588 357.151 79.3278 356.478 78.6764C355.804 78.0026 354.838 77.6432 353.58 77.5983C352.232 77.5533 351.098 77.8453 350.177 78.4742C349.279 79.1031 348.549 79.9342 347.987 80.9674C347.426 81.9781 346.999 83.0787 346.707 84.2692C346.415 85.4371 346.213 86.5602 346.101 87.6383ZM417.897 56.9454L409.407 106H397.851L406.375 56.9454H417.897ZM432.216 56.9454L430.632 66.0758H390.775L392.393 56.9454H432.216ZM441.616 79.1818L436.966 106H425.882L432.216 69.546H442.525L441.616 79.1818ZM453.542 69.2428L452.094 79.8219C451.51 79.7321 450.926 79.6534 450.342 79.5861C449.758 79.5187 449.163 79.4738 448.556 79.4513C447.321 79.4288 446.198 79.5748 445.187 79.8893C444.199 80.1813 443.334 80.6417 442.593 81.2706C441.874 81.8771 441.279 82.6407 440.807 83.5616C440.335 84.4825 439.987 85.5494 439.763 86.7623L437.91 85.4147C438.134 83.7076 438.494 81.8995 438.988 79.9904C439.504 78.0587 440.223 76.2394 441.144 74.5323C442.065 72.8253 443.255 71.444 444.715 70.3883C446.175 69.3102 447.972 68.7711 450.106 68.7711C450.69 68.7711 451.263 68.816 451.824 68.9059C452.386 68.9957 452.958 69.108 453.542 69.2428ZM470.22 96.8361L472.578 81.6749C472.668 80.8663 472.657 80.0914 472.544 79.3502C472.455 78.609 472.174 78.0026 471.702 77.5309C471.253 77.0367 470.545 76.7784 469.58 76.756C468.704 76.7335 467.962 76.8907 467.356 77.2277C466.75 77.5646 466.267 78.0363 465.907 78.6427C465.548 79.2491 465.29 79.9454 465.132 80.7316L454.014 80.799C454.104 78.6876 454.666 76.8683 455.699 75.3409C456.732 73.8136 458.057 72.567 459.674 71.6012C461.292 70.6354 463.055 69.9279 464.964 69.4786C466.896 69.0294 468.793 68.8273 470.658 68.8722C473.218 68.9171 475.532 69.4562 477.598 70.4894C479.687 71.5001 481.293 72.9713 482.416 74.903C483.562 76.8121 484 79.1368 483.73 81.8771L481.338 96.8361C481.136 98.1837 480.956 99.6212 480.799 101.149C480.642 102.653 480.866 104.057 481.473 105.36L481.439 106L470.624 106.034C470.13 104.574 469.883 103.058 469.883 101.485C469.883 99.9132 469.995 98.3634 470.22 96.8361ZM473.825 83.7301L472.814 89.7946L468.468 89.7609C467.614 89.7833 466.794 89.9293 466.008 90.1989C465.245 90.4459 464.56 90.8053 463.953 91.277C463.347 91.7487 462.841 92.3326 462.437 93.0289C462.055 93.7252 461.808 94.5226 461.696 95.421C461.606 96.0275 461.651 96.5778 461.831 97.0719C462.033 97.5436 462.336 97.9254 462.74 98.2174C463.167 98.5094 463.695 98.6666 464.324 98.6891C465.29 98.7115 466.222 98.5319 467.12 98.15C468.019 97.7682 468.793 97.2291 469.445 96.5328C470.119 95.8365 470.579 95.028 470.826 94.1071L472.78 98.8575C472.196 100.026 471.522 101.092 470.759 102.058C470.018 103.024 469.175 103.866 468.232 104.585C467.311 105.281 466.278 105.82 465.132 106.202C463.987 106.584 462.718 106.764 461.325 106.741C459.326 106.696 457.484 106.214 455.8 105.293C454.115 104.372 452.779 103.114 451.791 101.519C450.802 99.9244 450.342 98.0826 450.409 95.9938C450.499 93.568 451.094 91.5577 452.195 89.963C453.295 88.3683 454.722 87.1217 456.474 86.2233C458.248 85.3024 460.168 84.651 462.235 84.2692C464.324 83.8873 466.39 83.6964 468.434 83.6964L473.825 83.7301ZM507.651 97.0045L515.063 54.2501H526.215L517.253 106H507.314L507.651 97.0045ZM487.503 88.4806L487.571 87.7394C487.84 85.5157 488.346 83.2697 489.087 81.0011C489.828 78.7325 490.839 76.6661 492.119 74.8019C493.422 72.9376 495.028 71.4552 496.937 70.3546C498.869 69.254 501.16 68.7487 503.81 68.8385C506.056 68.9283 507.898 69.6022 509.335 70.86C510.773 72.1178 511.885 73.7125 512.671 75.6442C513.457 77.5533 513.996 79.5636 514.288 81.6749C514.58 83.7863 514.704 85.7291 514.659 87.5035L514.558 88.4132C514.221 90.3224 513.637 92.3551 512.806 94.5114C511.997 96.6451 510.93 98.6554 509.605 100.542C508.302 102.406 506.752 103.922 504.956 105.09C503.159 106.236 501.126 106.775 498.857 106.708C496.387 106.64 494.365 106.045 492.793 104.922C491.221 103.799 490.008 102.339 489.154 100.542C488.323 98.7452 487.784 96.7911 487.537 94.6798C487.312 92.5685 487.301 90.5021 487.503 88.4806ZM498.689 87.7057L498.622 88.4132C498.554 89.2218 498.498 90.1539 498.453 91.2096C498.408 92.2653 498.464 93.2985 498.622 94.3092C498.801 95.3199 499.172 96.1735 499.733 96.8698C500.317 97.5436 501.182 97.9142 502.328 97.9816C503.99 98.049 505.349 97.6559 506.404 96.8024C507.482 95.9489 508.302 94.8595 508.864 93.5343C509.448 92.1866 509.818 90.8053 509.976 89.3903L510.279 86.6949C510.391 85.774 510.447 84.797 510.447 83.7638C510.47 82.7306 510.357 81.7535 510.11 80.8326C509.863 79.9117 509.414 79.1481 508.763 78.5416C508.111 77.9352 507.168 77.6207 505.933 77.5983C504.63 77.5533 503.529 77.8566 502.631 78.5079C501.755 79.1593 501.047 80.0128 500.508 81.0685C499.992 82.1017 499.587 83.2135 499.295 84.4039C499.026 85.5719 498.824 86.6725 498.689 87.7057ZM541.477 106.674C538.961 106.629 536.67 106.169 534.604 105.293C532.538 104.394 530.786 103.159 529.348 101.587C527.911 100.014 526.844 98.1725 526.147 96.0612C525.474 93.9274 525.227 91.6027 525.406 89.087L525.541 87.7731C525.811 85.1227 526.439 82.652 527.428 80.361C528.416 78.0475 529.741 76.026 531.403 74.2965C533.065 72.5446 535.02 71.1857 537.266 70.2198C539.534 69.254 542.072 68.8048 544.88 68.8722C547.418 68.9171 549.608 69.4225 551.45 70.3883C553.314 71.3541 554.83 72.6681 555.998 74.3302C557.166 75.9698 557.975 77.8566 558.424 79.9904C558.896 82.1017 559.008 84.3478 558.761 86.7286L558.121 91.3444H529.146L530.292 84.2355L548.148 84.2692L548.35 83.2921C548.507 82.2365 548.462 81.2819 548.215 80.4283C547.968 79.5748 547.508 78.901 546.834 78.4069C546.16 77.8903 545.25 77.6095 544.105 77.5646C542.712 77.5421 541.556 77.8453 540.635 78.4742C539.736 79.1031 539.006 79.9342 538.445 80.9674C537.906 82.0006 537.49 83.1237 537.198 84.3365C536.906 85.527 536.693 86.6725 536.558 87.7731L536.423 89.0533C536.333 90.1539 536.367 91.2208 536.524 92.254C536.682 93.2872 536.996 94.2194 537.468 95.0504C537.962 95.8815 538.625 96.5553 539.456 97.0719C540.287 97.566 541.331 97.8356 542.589 97.8805C544.273 97.9254 545.846 97.611 547.306 96.9371C548.766 96.2633 550.08 95.3424 551.248 94.1744L555.863 100.306C554.853 101.834 553.55 103.069 551.955 104.012C550.36 104.933 548.642 105.607 546.8 106.034C544.981 106.483 543.207 106.696 541.477 106.674Z" fill="#53F2D4"/>
<path d="M64.4489 25.5H536.5C567.98 25.5 593.5 51.0198 593.5 82.5C593.5 113.98 567.98 139.5 536.5 139.5H57.7973L73.8655 106.295C78.5351 96.6458 80.4238 85.886 79.3198 75.2228L78.3434 65.793C77.5156 57.7984 73.7799 50.3863 67.8461 44.9651L59.7618 37.5794C58.3208 36.2629 57.4999 34.401 57.4999 32.4491C57.4999 28.6112 60.6111 25.5 64.4489 25.5Z" stroke="#53F2D4"/>
<path d="M87.2102 113.691C89.6825 108.942 92.8037 103.99 96.6047 99.8093C98.3219 97.8974 100.224 96.1602 102.284 94.6231C103.6 93.6511 104.981 92.7693 106.417 91.9837C117.601 85.8662 127.588 88.2614 127.588 88.2614L127.121 84.6525L126.595 80.6034C128.559 81.2298 130.389 81.9034 132.086 82.5999C140.886 86.2004 146.122 90.4469 147.878 92.015C148.303 92.3943 148.526 92.6165 148.544 92.6362C148.544 92.6362 137.364 97.5093 128.894 102.707L127.979 95.6821C127.979 95.6821 126.526 95.6 124.182 95.9954C120.892 96.5668 117.718 97.6709 114.784 99.2642C109.227 102.255 102.905 107.707 97.8861 117.658C97.834 117.763 97.7098 117.811 97.6001 117.769L87.2102 113.691Z" fill="#FFE483" stroke="#0D052C" stroke-width="0.683929" stroke-linecap="round" stroke-linejoin="round"/>
<path d="M124.182 95.9953C126.531 95.6006 127.986 95.6795 127.986 95.6795L128.901 102.704L125.011 99.548C124.856 99.4253 124.755 99.2483 124.727 99.0531C124.655 98.5037 124.473 97.2444 124.182 95.9953Z" fill="#7774FF" stroke="#0D052C" stroke-width="0.5" stroke-linecap="round" stroke-linejoin="round"/>
<path d="M84.105 108.015C84.0233 107.869 84.0172 107.692 84.0888 107.542C84.6959 106.266 85.3974 105.038 86.1876 103.867C87.3127 102.135 88.5633 100.488 89.9292 98.9387C91.8272 96.7824 93.9038 94.7902 96.1369 92.9832C105.461 85.3883 115.518 84.0229 119.881 83.809C120.622 83.7638 121.365 83.7558 122.107 83.7848L122.079 83.5457L121.578 79.4772L121.187 76.2814C121.183 76.2452 121.196 76.2092 121.222 76.184C121.249 76.1588 121.285 76.1473 121.321 76.1529C122.211 76.3027 123.078 76.4738 123.923 76.6663C125.642 77.056 127.337 77.5473 128.998 78.1375C142.294 82.8813 148.349 92.3066 148.54 92.6304C148.318 92.4101 142.017 86.1481 129.44 81.5631C128.524 81.2288 127.577 80.905 126.597 80.5914L126.975 83.5258L127.587 88.2544C127.587 88.2544 115.013 85.2471 102.282 94.6229C95.9485 99.2898 91.0281 106.454 87.4343 113.262C87.3411 113.438 87.2998 113.517 87.2068 113.691L84.105 108.015Z" fill="#53F2D4" stroke="#0D052C" stroke-width="0.5" stroke-linecap="round" stroke-linejoin="round"/>
<path d="M99.5631 100.785C99.0671 101.378 98.6041 101.998 98.1762 102.642" stroke="#0D052C" stroke-width="0.5" stroke-linecap="round" stroke-linejoin="round"/>
<path d="M109.507 94.1763C109.507 94.1763 104.68 95.3738 100.475 99.7668" stroke="#0D052C" stroke-width="0.5" stroke-linecap="round" stroke-linejoin="round"/>
<path d="M97.0278 114.43C97.7148 113.056 98.5365 111.753 99.4811 110.541" stroke="#0D052C" stroke-width="0.5" stroke-linecap="round" stroke-linejoin="round"/>
<path d="M95.8799 117.093C95.8799 117.093 96.0976 116.428 96.5487 115.424" stroke="#0D052C" stroke-width="0.5" stroke-linecap="round" stroke-linejoin="round"/>
<path d="M139.37 90.3717C137.796 89.8477 136.173 89.4818 134.525 89.2795" stroke="#0D052C" stroke-width="0.5" stroke-linecap="round" stroke-linejoin="round"/>
<path d="M137.757 91.3498C137.225 91.2318 136.687 91.1451 136.145 91.09" stroke="#0D052C" stroke-width="0.5" stroke-linecap="round" stroke-linejoin="round"/>
<path d="M137.577 88.3746C137.577 88.3746 136.034 88.0302 135.959 88.0345" stroke="#0D052C" stroke-width="0.5" stroke-linecap="round" stroke-linejoin="round"/>
<path d="M106 72.2762V92.7241C106 100.77 105.052 107.765 103.157 113.71C101.312 119.655 98.6482 124.575 95.1644 128.469C91.7319 132.364 87.6334 135.26 82.8688 137.156C78.1043 139.052 72.8531 140 67.1152 140C62.5043 140 58.2009 139.411 54.2048 138.232C50.2087 137.002 46.5969 135.157 43.3693 132.697C40.193 130.186 37.4521 127.06 35.1467 123.319C32.8413 119.578 31.0738 115.171 29.8442 110.097C28.6147 104.972 27.9999 99.1813 27.9999 92.7241V72.2762C27.9999 64.179 28.922 57.1837 30.7664 51.2902C32.6619 45.3455 35.3516 40.4257 38.8353 36.5309C42.3191 32.636 46.4432 29.7405 51.2078 27.8444C55.9723 25.9482 61.2235 25.0001 66.9615 25.0001C71.5723 25.0001 75.8501 25.6151 79.795 26.845C83.791 28.0237 87.4028 29.8687 90.6304 32.3798C93.858 34.8397 96.5989 37.9402 98.8531 41.6813C101.159 45.4224 102.926 49.8553 104.156 54.9801C105.385 60.0536 106 65.819 106 72.2762ZM80.1023 95.8758V68.9707C80.1023 65.3834 79.8974 62.2573 79.4876 59.5924C79.1289 56.9275 78.5654 54.6726 77.7969 52.8277C77.0797 50.9827 76.1831 49.4966 75.1073 48.3691C74.0314 47.1904 72.8018 46.3448 71.4186 45.8323C70.0866 45.2686 68.6009 44.9868 66.9615 44.9868C64.9122 44.9868 63.0679 45.4224 61.4285 46.2936C59.8403 47.1135 58.4826 48.446 57.3555 50.2909C56.2285 52.1358 55.3575 54.5957 54.7427 57.6706C54.1792 60.7454 53.8974 64.5122 53.8974 68.9707V95.8758C53.8974 99.5144 54.0767 102.692 54.4353 105.408C54.8452 108.073 55.4087 110.353 56.126 112.249C56.8945 114.094 57.8166 115.606 58.8925 116.785C59.9684 117.912 61.1979 118.732 62.5812 119.245C63.9644 119.757 65.4757 120.013 67.1152 120.013C69.1132 120.013 70.9063 119.604 72.4945 118.784C74.0826 117.964 75.4403 116.631 76.5674 114.786C77.7457 112.89 78.6166 110.405 79.1802 107.33C79.795 104.204 80.1023 100.386 80.1023 95.8758Z" fill="#7774FF"/>
<path d="M95.9999 72.2761V92.7239C95.9999 100.77 95.0521 107.765 93.1565 113.71C91.3122 119.655 88.6482 124.574 85.1644 128.469C81.7319 132.364 77.6334 135.26 72.8688 137.156C68.1043 139.052 62.8531 140 57.1152 140C52.5043 140 48.2009 139.411 44.2048 138.232C40.2087 137.002 36.5969 135.157 33.3693 132.697C30.193 130.186 27.4521 127.06 25.1467 123.319C22.8413 119.578 21.0738 115.17 19.8442 110.097C18.6147 104.972 17.9999 99.1811 17.9999 92.7239V72.2761C17.9999 64.1789 18.922 57.1836 20.7664 51.2901C22.6619 45.3454 25.3516 40.4256 28.8353 36.5307C32.3191 32.6359 36.4432 29.7404 41.2078 27.8443C45.9723 25.9481 51.2235 25 56.9615 25C61.5723 25 65.8501 25.615 69.795 26.8449C73.791 28.0236 77.4028 29.8685 80.6304 32.3797C83.858 34.8396 86.5989 37.9401 88.8531 41.6811C91.1585 45.4222 92.926 49.8552 94.1555 54.9799C95.3851 60.0535 95.9999 65.8189 95.9999 72.2761ZM70.1023 95.8757V68.9706C70.1023 65.3832 69.8974 62.2571 69.4876 59.5922C69.1289 56.9274 68.5654 54.6725 67.7969 52.8275C67.0797 50.9826 66.1831 49.4964 65.1073 48.369C64.0314 47.1903 62.8018 46.3447 61.4186 45.8322C60.0866 45.2685 58.6009 44.9866 56.9615 44.9866C54.9122 44.9866 53.0679 45.4222 51.4285 46.2934C49.8403 47.1134 48.4826 48.4459 47.3555 50.2908C46.2284 52.1357 45.3575 54.5956 44.7427 57.6705C44.1792 60.7453 43.8974 64.512 43.8974 68.9706V95.8757C43.8974 99.5143 44.0767 102.692 44.4353 105.408C44.8452 108.073 45.4087 110.353 46.126 112.249C46.8945 114.094 47.8166 115.606 48.8925 116.785C49.9684 117.912 51.1979 118.732 52.5812 119.245C53.9644 119.757 55.4757 120.013 57.1152 120.013C59.1132 120.013 60.9063 119.603 62.4945 118.783C64.0826 117.963 65.4403 116.631 66.5674 114.786C67.7457 112.89 68.6166 110.404 69.1802 107.33C69.795 104.203 70.1023 100.385 70.1023 95.8757Z" fill="#53F2D4"/>
<path d="M88.9999 73.343L91.766 68.2753L85.9941 68.4136L88.9999 73.343ZM80.1092 123.673L74.5777 125.326L78.7758 129.29L80.1092 123.673ZM46.5013 132.417L46.3421 132.891L46.3481 132.893L46.5013 132.417ZM37.6107 127.459L37.284 127.838L37.2909 127.844L37.6107 127.459ZM30.8639 119.06L31.1699 124.825L36.0099 121.677L30.8639 119.06ZM44.0422 33.5476L49.7113 34.6407L47.8234 29.1846L44.0422 33.5476ZM67.4984 32.6525L67.3373 33.1259L67.3451 33.1285L67.4984 32.6525ZM76.389 37.6097L76.0653 37.9909L76.0692 37.9941L76.389 37.6097ZM83.1358 45.9406L82.6981 46.1823L82.7004 46.1864L83.1358 45.9406ZM87.4866 57.8517L86.9982 57.9591L86.9984 57.9601L87.4866 57.8517ZM76.6853 126.573C74.628 128.427 72.3405 129.9 69.8213 130.994L70.2198 131.911C72.8388 130.773 75.2177 129.241 77.3546 127.316L76.6853 126.573ZM69.8213 130.994C65.9811 132.662 61.7411 133.5 57.0944 133.5V134.5C61.8638 134.5 66.2412 133.64 70.2198 131.911L69.8213 130.994ZM57.0944 133.5C53.3581 133.5 49.8793 132.979 46.6546 131.941L46.3481 132.893C49.681 133.966 53.2642 134.5 57.0944 134.5V133.5ZM46.6606 131.943C43.4401 130.861 40.531 129.238 37.9305 127.075L37.2909 127.844C39.9869 130.087 43.0049 131.769 46.3421 132.891L46.6606 131.943ZM37.9374 127.081C36.407 125.76 35.0002 124.244 33.7173 122.532L32.917 123.132C34.2407 124.898 35.6963 126.468 37.284 127.838L37.9374 127.081ZM48.4218 32.5598C51.0994 31.8542 53.9476 31.5001 56.9683 31.5001V30.5001C53.869 30.5001 50.9346 30.8635 48.167 31.5928L48.4218 32.5598ZM56.9683 31.5001C60.7026 31.5001 64.1576 32.0437 67.3373 33.1259L67.6595 32.1792C64.3656 31.0582 60.8006 30.5001 56.9683 30.5001V31.5001ZM67.3451 33.1285C70.5609 34.1639 73.4667 35.7839 76.0654 37.9909L76.7127 37.2286C74.0148 34.9374 70.9935 33.2526 67.6516 32.1766L67.3451 33.1285ZM76.0692 37.9941C78.6646 40.1533 80.8752 42.88 82.6981 46.1823L83.5736 45.699C81.6972 42.2998 79.41 39.4726 76.7088 37.2254L76.0692 37.9941ZM82.7004 46.1864C84.5629 49.4855 85.9977 53.4073 86.9982 57.9591L87.9749 57.7444C86.9576 53.1162 85.492 49.0971 83.5712 45.6948L82.7004 46.1864ZM86.9984 57.9601C87.7309 61.2594 88.1964 64.8951 88.3926 68.8686L89.3914 68.8193C89.1928 64.7988 88.7213 61.1062 87.9747 57.7434L86.9984 57.9601Z" fill="#161822"/>
<path fill-rule="evenodd" clip-rule="evenodd" d="M572.901 70.3565C572.079 70.3565 571.28 70.0018 570.587 69.3315L569.002 67.8011C567.903 66.7435 566.805 65.6869 565.721 64.6151C565.663 64.5581 565.633 64.5459 565.633 64.5459C565.625 64.5601 565.489 64.6508 565.417 64.6996C563.648 65.8887 561.878 67.0757 560.102 68.2526C559.316 68.7732 558.561 69.0371 557.857 69.0371C557.093 69.0371 555.696 68.7009 554.924 66.4511C554.608 65.5332 554.276 64.6212 553.943 63.7094C553.598 62.7639 553.253 61.8173 552.927 60.8656C552.821 60.5539 552.733 60.4877 552.732 60.4867L550.545 60.8514C548.955 61.0889 547.445 61.315 545.936 61.5534C544.717 61.747 543.665 61.4088 542.985 60.6609C542.41 60.0272 542.146 59.1295 542.243 58.133C542.428 56.2105 542.67 54.3154 542.921 52.3816C542.965 52.0463 543.024 51.5877 542.98 51.487C542.908 51.4074 542.418 51.2598 542.183 51.1894C540.245 50.6046 538.306 50.0319 536.362 49.4796C535.304 49.1791 534.536 48.5281 534.198 47.6478C533.867 46.7877 533.996 45.8188 534.559 44.9213C535.789 42.962 536.953 41.1575 538.115 39.406C538.24 39.2164 538.243 39.1512 538.243 39.1483V39.1483C538.243 39.1483 538.218 39.0809 538.033 38.92C536.527 37.6219 534.936 36.2006 533.027 34.447C532.304 33.7818 531.933 32.8924 532.01 32.0059C532.088 31.1204 532.606 30.3106 533.432 29.7826C535.157 28.6814 537.044 27.5116 539.201 26.2055C539.469 26.0425 539.491 26.0292 539.35 25.7032C538.842 24.5314 538.355 23.3495 537.869 22.1677C537.581 21.4717 537.295 20.7758 537.005 20.082C536.526 18.9398 536.52 17.8997 536.986 17.0722C537.446 16.2613 538.317 15.7406 539.507 15.5673C541.591 15.2638 543.687 15.057 545.716 14.8573C546.402 14.7889 546.423 14.7462 546.438 14.306C546.483 12.9621 546.596 11.6039 546.704 10.2896C546.749 9.75364 546.793 9.21667 546.834 8.68077L546.847 8.48516C546.891 7.85653 546.94 7.14335 547.342 6.49532C548.049 5.35211 549.462 4.84477 550.81 5.26542C552.848 5.89306 554.954 6.59721 557.25 7.41634C557.394 7.46729 557.51 7.49379 557.591 7.49379C557.649 7.49379 557.737 7.49379 557.925 7.15557C558.541 6.04995 559.181 4.95789 559.821 3.86449C560.247 3.13916 560.673 2.41269 561.091 1.68202C561.694 0.628699 562.709 0 563.806 0C564.61 0 565.405 0.339219 566.045 0.955554L567.132 2.00511C568.416 3.23992 569.697 4.47593 570.965 5.72814C571.025 5.78825 571.054 5.80047 571.056 5.80047C571.067 5.78725 571.211 5.68934 571.266 5.6526L571.81 5.28688C573.419 4.20378 575.028 3.12175 576.648 2.05706C578.831 0.619319 580.878 1.35091 581.738 3.81468C582.08 4.79582 582.434 5.77176 582.788 6.74799C583.134 7.70262 583.481 8.65733 583.815 9.61608C583.865 9.75868 583.899 9.79229 583.902 9.79428C583.976 9.79031 584.015 9.78611 584.059 9.78C585.172 9.60798 586.289 9.44696 587.406 9.28496C588.546 9.1199 589.687 8.95476 590.826 8.77954C591.992 8.59728 593.028 8.94865 593.71 9.70376C594.281 10.3355 594.543 11.2004 594.448 12.1389C594.275 13.8527 594.059 15.7039 593.768 17.9638C593.728 18.2817 593.667 18.7606 593.714 18.8623C593.788 18.9469 594.281 19.0886 594.574 19.174C596.474 19.7202 598.374 20.2694 600.265 20.842C601.408 21.1875 602.183 21.8344 602.507 22.7117C602.835 23.5971 602.661 24.6047 602.006 25.6267L601.179 26.9216C600.333 28.2462 599.488 29.5719 598.615 30.8779C598.46 31.1093 598.456 31.1825 598.457 31.1896V31.1896C598.457 31.1896 598.479 31.2609 598.666 31.422C600.149 32.6945 601.72 34.1016 603.612 35.8521C604.385 36.5654 604.764 37.4538 604.678 38.3523C604.59 39.2663 604.036 40.0844 603.116 40.6549L601.751 41.5048C600.352 42.378 598.953 43.25 597.54 44.0979C597.231 44.2833 597.197 44.322 597.37 44.7194C598.06 46.3027 598.714 47.9013 599.367 49.4999L599.715 50.3485C600.17 51.4572 600.164 52.4698 599.697 53.2779C599.232 54.0858 598.357 54.5973 597.166 54.7593C595.117 55.0365 593.003 55.2811 590.885 55.4858C590.317 55.5419 590.264 55.6295 590.243 56.0544C590.183 57.2902 590.09 58.524 589.998 59.758C589.949 60.3958 589.901 61.0334 589.857 61.6714C589.815 62.298 589.767 63.0081 589.434 63.6786C588.821 64.9186 587.313 65.5259 585.868 65.0805C583.735 64.4234 581.591 63.7041 579.498 62.9428C579.331 62.8827 579.201 62.8522 579.109 62.8522C579.043 62.8522 578.942 62.8522 578.724 63.2497C577.891 64.7677 576.997 66.2776 576.132 67.7377L575.584 68.6638C574.949 69.7401 573.971 70.3565 572.901 70.3565Z" fill="#7774FF"/>
<circle cx="568.345" cy="35.5874" r="23.6473" fill="#53F2D4" stroke="#0F0D14" stroke-width="0.8"/>
<path fill-rule="evenodd" clip-rule="evenodd" d="M577.945 37.4704C578.296 37.2677 578.513 37.0682 578.597 36.8719C578.681 36.6756 578.638 36.4296 578.467 36.1339C578.296 35.8381 578.105 35.6775 577.893 35.652C577.681 35.6264 577.399 35.715 577.048 35.9178L573.693 37.8547L572.157 35.193L575.373 33.3362C575.669 33.1654 575.848 32.985 575.911 32.7947C575.973 32.6045 575.925 32.3708 575.764 32.0935C575.604 31.8163 575.424 31.6526 575.222 31.6025C575.021 31.5525 574.772 31.6128 574.476 31.7836L571.26 33.6404L569.908 31.2976L573.262 29.3607C573.53 29.206 573.705 29.0281 573.786 28.8273C573.867 28.6264 573.821 28.3853 573.646 28.1042C573.471 27.823 573.284 27.6633 573.083 27.6252C572.882 27.587 572.648 27.6453 572.38 27.8001L568.096 30.2732C567.801 30.444 567.611 30.6275 567.527 30.8237C567.443 31.02 567.484 31.2614 567.649 31.5479L572.347 39.6854C572.518 39.9811 572.713 40.1368 572.931 40.1523C573.15 40.1679 573.398 40.0956 573.675 39.9356L577.945 37.4704ZM558.783 48.7182C559.107 48.5314 559.304 48.3343 559.375 48.1269C559.446 47.9194 559.445 47.751 559.37 47.6216L557.185 43.837L560.124 42.1403C560.42 41.9695 560.599 41.789 560.661 41.5988C560.724 41.4086 560.675 41.1748 560.515 40.8976C560.361 40.6296 560.181 40.4682 559.977 40.4135C559.745 40.3749 559.495 40.4329 559.227 40.5876L556.289 42.2844L554.936 39.9416L558.291 38.0047C558.559 37.85 558.733 37.6721 558.814 37.4713C558.896 37.2704 558.849 37.0293 558.674 36.7482C558.5 36.467 558.312 36.3073 558.111 36.2692C557.91 36.231 557.676 36.2893 557.408 36.4441L553.125 38.9172C552.829 39.088 552.639 39.2715 552.555 39.4677C552.471 39.664 552.512 39.9054 552.678 40.1919L557.568 48.6621C557.642 48.7914 557.783 48.8798 557.989 48.9272C558.195 48.9746 558.46 48.905 558.783 48.7182ZM570.982 41.675C571.23 41.5071 571.394 41.2774 571.472 40.9858C571.55 40.6943 571.515 40.431 571.367 40.1961C571.219 39.9611 570.999 39.8046 570.708 39.7265L566.446 38.6197C566.542 38.5517 566.631 38.4818 566.713 38.41L566.958 38.1945C567.497 37.6983 567.827 37.1323 567.946 36.4964C568.066 35.8606 567.894 35.1406 567.429 34.3365C567.125 33.8098 566.799 33.4098 566.45 33.1367C566.102 32.8636 565.725 32.7021 565.32 32.6523C564.916 32.6025 564.478 32.6551 564.007 32.8101C563.535 32.965 563.027 33.1999 562.482 33.5147L560.389 34.7233C560.148 34.862 559.959 34.987 559.819 35.0981C559.68 35.2093 559.588 35.3212 559.542 35.4339C559.496 35.5466 559.492 35.6724 559.529 35.8112C559.566 35.95 559.64 36.1165 559.752 36.3106L564.467 44.4757C564.563 44.6421 564.721 44.7665 564.941 44.8489C565.161 44.9313 565.433 44.8791 565.756 44.6924C566.08 44.5056 566.273 44.2956 566.335 44.0624C566.398 43.8291 566.375 43.6201 566.269 43.4353L564.332 40.0805L570.238 41.8272C570.464 41.8876 570.689 41.8511 570.915 41.7179C570.937 41.7045 570.96 41.6902 570.982 41.675ZM563.355 38.3892L564.811 37.5488C565.319 37.2554 565.658 36.9517 565.828 36.6379C565.998 36.3241 565.934 35.9085 565.635 35.3909C565.496 35.1506 565.34 34.9759 565.166 34.8669C564.992 34.7578 564.808 34.7007 564.615 34.6956C564.421 34.6905 564.22 34.7265 564.011 34.8035C563.803 34.8805 563.598 34.9777 563.394 35.0951L561.939 35.9355L563.355 38.3892ZM586.111 32.5339C586.027 32.7302 585.809 32.9297 585.458 33.1325L581.189 35.5976C580.911 35.7577 580.663 35.83 580.445 35.8144C580.226 35.7988 580.032 35.6432 579.861 35.3474L575.163 27.21C574.998 26.9235 574.957 26.6821 575.041 26.4858C575.124 26.2895 575.314 26.106 575.61 25.9353L579.894 23.4621C580.162 23.3074 580.396 23.2491 580.597 23.2873C580.797 23.3254 580.985 23.4851 581.16 23.7662C581.334 24.0474 581.381 24.2884 581.3 24.4893C581.219 24.6902 581.044 24.868 580.776 25.0228L577.421 26.9597L578.774 29.3025L581.99 27.4456C582.286 27.2749 582.534 27.2145 582.736 27.2646C582.937 27.3147 583.118 27.4783 583.278 27.7556C583.438 28.0328 583.487 28.2666 583.424 28.4568C583.361 28.647 583.182 28.8275 582.887 28.9982L579.67 30.8551L581.207 33.5168L584.562 31.5799C584.913 31.3771 585.195 31.2885 585.407 31.314C585.618 31.3396 585.81 31.5002 585.98 31.7959C586.151 32.0917 586.195 32.3377 586.111 32.5339Z" fill="#0F0D14"/>
<path d="M4.22604 51.7237C6.41985 56.909 9.27696 62.36 12.9111 67.0607C14.551 69.2085 16.3995 71.1886 18.4296 72.9721C19.7284 74.1012 21.1022 75.1411 22.5414 76.0847C33.7521 83.4332 44.4205 81.7585 44.4205 81.7585L43.6289 85.5021L42.7391 89.7024C44.8499 89.2101 46.8241 88.6573 48.6611 88.0692C58.1867 85.0319 64.0306 81.0191 66.0026 79.5225C66.4794 79.1604 66.7316 78.9462 66.7525 78.9271C66.7525 78.9271 55.4415 72.8834 46.9986 66.7263L45.4512 74.013C45.4512 74.013 43.9216 73.9774 41.4973 73.3668C38.0972 72.4925 34.8625 71.0695 31.9205 69.1538C26.3467 65.554 20.1762 59.3094 15.7482 48.4597C15.7025 48.3447 15.5764 48.2838 15.4578 48.3195L4.22604 51.7237Z" fill="#FFE483" stroke="#0D052C" stroke-width="0.683929" stroke-linecap="round" stroke-linejoin="round"/>
<path d="M41.4975 73.3668C43.9271 73.9772 45.4587 74.0163 45.4587 74.0163L47.0061 66.7296L42.6639 69.7124C42.492 69.8281 42.3708 70.0051 42.3253 70.2073C42.2035 70.7771 41.9079 72.0819 41.4975 73.3668Z" fill="#7774FF" stroke="#0D052C" stroke-width="0.5" stroke-linecap="round" stroke-linejoin="round"/>
<path d="M0.496182 57.4138C0.398268 57.5597 0.377175 57.7441 0.439595 57.9083C0.969109 59.2961 1.60164 60.6424 2.33189 61.9359C3.36622 63.8454 4.53914 65.6765 5.84123 67.4145V67.4145C7.65021 69.8335 9.6601 72.0955 11.8495 74.1765C20.9875 82.9178 31.4145 85.1908 35.9696 85.7802C36.7428 85.8896 37.521 85.9603 38.3012 85.9919L38.2513 86.2402L37.3861 90.4628L36.7084 93.7798C36.7011 93.8174 36.7118 93.8562 36.7372 93.8848C36.7626 93.9134 36.8 93.9285 36.8381 93.9257C37.783 93.8432 38.7063 93.7364 39.6079 93.6053C41.4428 93.3408 43.2604 92.9677 45.0512 92.4881C59.3846 88.6288 66.5201 79.2561 66.7474 78.9327C66.4969 79.1451 59.3673 85.1813 45.801 88.9344C44.8132 89.2082 43.7928 89.4683 42.7398 89.715L43.3813 86.6709L44.4192 81.7658C44.4192 81.7658 30.9876 83.8653 18.4279 72.9722C12.1799 67.5503 7.62221 59.6287 4.4251 52.1918C4.34207 52.0004 4.30549 51.9134 4.22254 51.7238L0.496182 57.4138Z" fill="#7774FF" stroke="#0D052C" stroke-width="0.5" stroke-linecap="round" stroke-linejoin="round"/>
<path d="M16.0938 66.2854C15.6235 65.6222 15.1901 64.9337 14.7955 64.2229" stroke="#0D052C" stroke-width="0.5" stroke-linecap="round" stroke-linejoin="round"/>
<path d="M25.9638 74.0451C25.9638 74.0451 21.0045 72.3859 16.9643 67.4292" stroke="#0D052C" stroke-width="0.5" stroke-linecap="round" stroke-linejoin="round"/>
<path d="M14.5785 51.7707C15.1834 53.269 15.9358 54.7035 16.8244 56.0531" stroke="#0D052C" stroke-width="0.5" stroke-linecap="round" stroke-linejoin="round"/>
<path d="M13.5982 48.8833C13.5982 48.8833 13.7707 49.5986 14.1595 50.689" stroke="#0D052C" stroke-width="0.5" stroke-linecap="round" stroke-linejoin="round"/>
<path d="M56.9471 80.5328C55.2527 80.9503 53.5209 81.1979 51.7774 81.2721" stroke="#0D052C" stroke-width="0.5" stroke-linecap="round" stroke-linejoin="round"/>
<path d="M55.3381 79.3724C54.7708 79.4516 54.1993 79.4975 53.6266 79.5098" stroke="#0D052C" stroke-width="0.5" stroke-linecap="round" stroke-linejoin="round"/>
<path d="M54.8999 82.4759C54.8999 82.4759 53.2544 82.7079 53.1761 82.6971" stroke="#0D052C" stroke-width="0.5" stroke-linecap="round" stroke-linejoin="round"/>
</svg>
