<svg width="55" height="43" viewBox="0 0 55 43" fill="none" xmlns="http://www.w3.org/2000/svg">
<path d="M44.3049 34.2546C44.5958 35.3182 46.1366 35.3182 46.4275 34.2546L54.8033 3.63604C55.189 2.22624 54.1044 0.841797 52.6144 0.841797H47.4502C46.4246 0.841797 45.5268 1.51659 45.2613 2.48702L40.538 19.7533C40.4725 19.9928 40.4725 20.245 40.538 20.4845L44.3049 34.2546Z" fill="white"/>
<path d="M15.0329 19.7309C15.0985 19.9705 15.0985 20.2226 15.0329 20.4621L11.2661 34.2322C10.9751 35.2958 9.43442 35.2958 9.14347 34.2322L0.773777 3.63604C0.388121 2.22624 1.47265 0.841797 2.96271 0.841797H8.12687C9.15254 0.841797 10.0503 1.51659 10.3158 2.48702L15.0329 19.7309Z" fill="white"/>
<path d="M22.0935 40.985C21.8371 41.925 20.9701 42.5786 19.9796 42.5786H14.6949C13.2559 42.5786 12.2085 41.2376 12.5809 39.872L22.7505 2.58483C23.0309 1.55671 23.9792 0.841797 25.0626 0.841797H31.2091C32.2925 0.841797 33.2409 1.55671 33.5213 2.58483L43.6908 39.872C44.0632 41.2376 43.0159 42.5786 41.5768 42.5786H36.2921C35.3016 42.5786 34.4346 41.925 34.1782 40.985L29.1598 22.5848C28.8791 21.5556 27.3926 21.5556 27.1119 22.5848L22.0935 40.985Z" fill="white"/>
<path d="M26.2799 37.105C25.9017 37.105 25.6265 36.7707 25.7244 36.4304L27.5804 29.9759C27.7327 29.4463 28.5391 29.4463 28.6914 29.9759L30.5474 36.4304C30.6453 36.7707 30.3701 37.105 29.9919 37.105H26.2799Z" fill="white"/>
</svg>
