<svg width="24" height="24" viewBox="0 0 24 24" fill="none" xmlns="http://www.w3.org/2000/svg">
<path fill-rule="evenodd" clip-rule="evenodd" d="M11.9998 24C16.8536 24 21.2293 21.076 23.0865 16.5917C24.9437 12.1073 23.9165 6.94571 20.484 3.51401C17.0515 0.082308 11.8897 -0.943642 7.40572 0.914601C2.92178 2.77284 -0.00115209 7.14929 3.40654e-07 12.003C0.00629202 18.6273 5.37557 23.9953 11.9998 24ZM11.9998 1.91097C17.5735 1.91097 22.0919 6.42934 22.0919 12.003C22.0919 17.5767 17.5735 22.0951 11.9998 22.0951C6.42614 22.0951 1.90777 17.5767 1.90777 12.003C1.91249 6.43129 6.42809 1.91569 11.9998 1.91097ZM7.57974 11.2987C8.10623 11.2987 8.53347 10.8727 8.53505 10.3462V9.58196C8.55396 8.63928 8.99326 7.7544 9.73275 7.16945C10.5643 6.47552 11.6631 6.19087 12.727 6.39379C14.0388 6.64759 15.1595 7.71126 15.3933 8.92037C15.6945 10.2618 15.1145 11.647 13.9475 12.3737C12.4019 13.3034 11.1215 14.1846 11.1215 15.5534C11.1492 16.0599 11.5681 16.4565 12.0754 16.4565C12.5827 16.4565 13.0016 16.0599 13.0293 15.5534C13.0293 15.2853 13.6681 14.7663 14.9285 14.0078C16.7845 12.8708 17.7217 10.6868 17.2669 8.55821C16.8819 6.58486 15.1652 4.92518 13.092 4.5231C11.4715 4.2143 9.7979 4.64631 8.52934 5.70084C7.34888 6.64701 6.65414 8.07207 6.63584 9.58481V10.3491C6.63891 10.87 7.05881 11.2925 7.57974 11.2987ZM11.9998 17.1132C11.4722 17.1132 11.0445 17.5409 11.0445 18.0685V18.6218C11.0722 19.1283 11.4911 19.5249 11.9984 19.5249C12.5057 19.5249 12.9246 19.1283 12.9523 18.6218V18.0771C12.9546 17.8227 12.8553 17.578 12.6765 17.3971C12.4977 17.2161 12.2542 17.114 11.9998 17.1132Z" fill="#838A9C"/>
</svg>
