<svg xmlns="http://www.w3.org/2000/svg" xmlns:xlink="http://www.w3.org/1999/xlink" width="350" zoomAndPan="magnify" viewBox="0 0 262.5 262.500001" height="350" preserveAspectRatio="xMidYMid meet" version="1.0"><defs><clipPath id="29fdd0c585"><path d="M 105 10.175781 L 132 10.175781 L 132 36 L 105 36 Z M 105 10.175781 " clip-rule="nonzero"/></clipPath><clipPath id="514fa8f8db"><path d="M 225 92 L 250.941406 92 L 250.941406 119 L 225 119 Z M 225 92 " clip-rule="nonzero"/></clipPath><clipPath id="151df1644c"><path d="M 225 144 L 250.941406 144 L 250.941406 170 L 225 170 Z M 225 144 " clip-rule="nonzero"/></clipPath><clipPath id="e12e599da9"><path d="M 105 226 L 132 226 L 132 252.425781 L 105 252.425781 Z M 105 226 " clip-rule="nonzero"/></clipPath><clipPath id="1f147c3de4"><path d="M 11.691406 92 L 38 92 L 38 119 L 11.691406 119 Z M 11.691406 92 " clip-rule="nonzero"/></clipPath><clipPath id="4995474709"><path d="M 11.691406 144 L 38 144 L 38 170 L 11.691406 170 Z M 11.691406 144 " clip-rule="nonzero"/></clipPath></defs><path fill="#ffffff" d="M 170.5625 177.921875 L 91.929688 177.921875 C 83.839844 177.921875 77.167969 171.25 77.167969 163.164062 L 77.167969 99.441406 C 77.167969 91.210938 83.839844 84.542969 91.929688 84.542969 L 170.5625 84.542969 C 178.792969 84.542969 185.464844 91.210938 185.464844 99.441406 L 185.464844 163.164062 C 185.464844 171.25 178.792969 177.921875 170.5625 177.921875 Z M 94.625 148.402344 C 94.339844 148.402344 94.058594 148.402344 93.773438 148.261719 C 92.496094 147.835938 91.929688 146.417969 92.496094 145.140625 L 97.605469 132.367188 L 97.605469 132.226562 L 106.832031 109.234375 C 106.832031 109.234375 106.832031 109.09375 106.832031 109.09375 C 106.972656 108.808594 107.117188 108.523438 107.398438 108.382812 C 107.542969 108.097656 107.824219 107.957031 108.109375 107.816406 C 108.109375 107.816406 108.109375 107.816406 108.25 107.816406 C 108.535156 107.671875 108.675781 107.671875 108.960938 107.671875 C 109.246094 107.671875 109.527344 107.671875 109.8125 107.816406 C 109.8125 107.816406 109.953125 107.816406 109.953125 107.816406 C 110.238281 107.957031 110.523438 108.097656 110.664062 108.382812 C 110.949219 108.523438 111.089844 108.808594 111.230469 109.09375 C 111.230469 109.09375 111.230469 109.234375 111.230469 109.234375 L 120.457031 132.226562 L 120.457031 132.367188 L 125.566406 145.140625 C 125.992188 146.417969 125.425781 147.835938 124.289062 148.261719 C 123.011719 148.6875 121.59375 148.121094 121.167969 146.984375 L 116.625 135.632812 L 101.4375 135.632812 L 96.894531 146.984375 C 96.46875 147.835938 95.617188 148.402344 94.625 148.402344 Z M 148.703125 148.546875 L 136.070312 148.546875 C 134.792969 148.546875 133.800781 147.550781 133.800781 146.273438 C 133.800781 144.855469 134.792969 143.863281 136.070312 143.863281 L 146.289062 143.863281 L 146.289062 112.214844 L 136.070312 112.214844 C 134.792969 112.214844 133.800781 111.222656 133.800781 109.945312 C 133.800781 108.523438 134.792969 107.53125 136.070312 107.53125 L 161.195312 107.53125 C 162.472656 107.53125 163.605469 108.523438 163.605469 109.945312 C 163.605469 111.222656 162.472656 112.214844 161.195312 112.214844 L 150.972656 112.214844 L 150.972656 143.863281 L 161.195312 143.863281 C 162.472656 143.863281 163.605469 144.855469 163.605469 146.273438 C 163.605469 147.550781 162.472656 148.546875 161.195312 148.546875 Z M 114.78125 130.804688 L 108.960938 116.472656 L 103.285156 130.804688 Z M 114.78125 130.804688 " fill-opacity="1" fill-rule="evenodd"/><path fill="#ffffff" d="M 118.753906 89.367188 C 117.476562 89.367188 116.339844 88.230469 116.339844 86.953125 L 116.339844 33.453125 C 116.339844 32.175781 117.476562 31.039062 118.753906 31.039062 C 120.03125 31.039062 121.027344 32.175781 121.027344 33.453125 L 121.027344 86.953125 C 121.027344 88.230469 120.03125 89.367188 118.753906 89.367188 Z M 118.753906 89.367188 " fill-opacity="1" fill-rule="evenodd"/><g clip-path="url(#29fdd0c585)"><path fill="#ffffff" d="M 118.753906 35.863281 C 111.65625 35.863281 105.839844 30.046875 105.839844 22.949219 C 105.839844 15.996094 111.65625 10.175781 118.753906 10.175781 C 125.851562 10.175781 131.527344 15.996094 131.527344 22.949219 C 131.527344 30.046875 125.851562 35.863281 118.753906 35.863281 Z M 118.753906 35.863281 " fill-opacity="1" fill-rule="evenodd"/></g><path fill="#ffffff" d="M 143.878906 89.367188 C 142.601562 89.367188 141.464844 88.230469 141.464844 86.953125 L 141.464844 64.816406 C 141.464844 63.539062 142.601562 62.402344 143.878906 62.402344 C 145.15625 62.402344 146.289062 63.539062 146.289062 64.816406 L 146.289062 86.953125 C 146.289062 88.230469 145.15625 89.367188 143.878906 89.367188 Z M 143.878906 89.367188 " fill-opacity="1" fill-rule="evenodd"/><path fill="#ffffff" d="M 143.878906 67.226562 C 136.78125 67.226562 131.101562 61.410156 131.101562 54.3125 C 131.101562 47.359375 136.78125 41.539062 143.878906 41.539062 C 150.972656 41.539062 156.652344 47.359375 156.652344 54.3125 C 156.652344 61.410156 150.972656 67.226562 143.878906 67.226562 Z M 143.878906 67.226562 " fill-opacity="1" fill-rule="evenodd"/><path fill="#ffffff" d="M 169 89.367188 C 167.722656 89.367188 166.585938 88.230469 166.585938 86.953125 L 166.585938 52.328125 C 166.585938 45.371094 172.265625 39.695312 179.21875 39.695312 L 194.265625 39.695312 C 195.542969 39.695312 196.679688 40.832031 196.679688 42.109375 C 196.679688 43.386719 195.542969 44.519531 194.265625 44.519531 L 179.21875 44.519531 C 174.960938 44.519531 171.414062 47.925781 171.414062 52.328125 L 171.414062 86.953125 C 171.414062 88.230469 170.277344 89.367188 169 89.367188 Z M 169 89.367188 " fill-opacity="1" fill-rule="evenodd"/><path fill="#ffffff" d="M 204.769531 54.882812 C 197.671875 54.882812 191.851562 49.203125 191.851562 42.109375 C 191.851562 35.011719 197.671875 29.335938 204.769531 29.335938 C 211.867188 29.335938 217.542969 35.011719 217.542969 42.109375 C 217.542969 49.203125 211.867188 54.882812 204.769531 54.882812 Z M 204.769531 54.882812 " fill-opacity="1" fill-rule="evenodd"/><path fill="#ffffff" d="M 93.632812 89.367188 C 92.210938 89.367188 91.21875 88.230469 91.21875 86.953125 L 91.21875 52.328125 C 91.21875 47.925781 87.671875 44.519531 83.414062 44.519531 L 68.367188 44.519531 C 66.949219 44.519531 65.953125 43.386719 65.953125 42.109375 C 65.953125 40.832031 66.949219 39.695312 68.367188 39.695312 L 83.414062 39.695312 C 90.367188 39.695312 95.902344 45.371094 95.902344 52.328125 L 95.902344 86.953125 C 95.902344 88.230469 94.910156 89.367188 93.632812 89.367188 Z M 93.632812 89.367188 " fill-opacity="1" fill-rule="evenodd"/><path fill="#ffffff" d="M 57.863281 54.882812 C 50.765625 54.882812 45.089844 49.203125 45.089844 42.109375 C 45.089844 35.011719 50.765625 29.335938 57.863281 29.335938 C 64.960938 29.335938 70.636719 35.011719 70.636719 42.109375 C 70.636719 49.203125 64.960938 54.882812 57.863281 54.882812 Z M 57.863281 54.882812 " fill-opacity="1" fill-rule="evenodd"/><path fill="#ffffff" d="M 227.621094 107.957031 L 183.050781 107.957031 C 181.773438 107.957031 180.640625 106.820312 180.640625 105.546875 C 180.640625 104.269531 181.773438 103.273438 183.050781 103.273438 L 227.621094 103.273438 C 228.898438 103.273438 229.890625 104.269531 229.890625 105.546875 C 229.890625 106.820312 228.898438 107.957031 227.621094 107.957031 Z M 227.621094 107.957031 " fill-opacity="1" fill-rule="evenodd"/><g clip-path="url(#514fa8f8db)"><path fill="#ffffff" d="M 237.980469 118.460938 C 231.027344 118.460938 225.207031 112.640625 225.207031 105.546875 C 225.207031 98.449219 231.027344 92.773438 237.980469 92.773438 C 245.078125 92.773438 250.898438 98.449219 250.898438 105.546875 C 250.898438 112.640625 245.078125 118.460938 237.980469 118.460938 Z M 237.980469 118.460938 " fill-opacity="1" fill-rule="evenodd"/></g><path fill="#ffffff" d="M 196.394531 133.644531 L 183.050781 133.644531 C 181.773438 133.644531 180.640625 132.652344 180.640625 131.230469 C 180.640625 129.953125 181.773438 128.960938 183.050781 128.960938 L 196.394531 128.960938 C 197.671875 128.960938 198.664062 129.953125 198.664062 131.230469 C 198.664062 132.652344 197.671875 133.644531 196.394531 133.644531 Z M 196.394531 133.644531 " fill-opacity="1" fill-rule="evenodd"/><path fill="#ffffff" d="M 206.753906 144.144531 C 199.800781 144.144531 193.980469 138.328125 193.980469 131.230469 C 193.980469 124.277344 199.800781 118.460938 206.753906 118.460938 C 213.851562 118.460938 219.671875 124.277344 219.671875 131.230469 C 219.671875 138.328125 213.851562 144.144531 206.753906 144.144531 Z M 206.753906 144.144531 " fill-opacity="1" fill-rule="evenodd"/><path fill="#ffffff" d="M 227.621094 159.1875 L 183.050781 159.1875 C 181.773438 159.1875 180.640625 158.195312 180.640625 156.777344 C 180.640625 155.5 181.773438 154.503906 183.050781 154.503906 L 227.621094 154.503906 C 228.898438 154.503906 229.890625 155.5 229.890625 156.777344 C 229.890625 158.195312 228.898438 159.1875 227.621094 159.1875 Z M 227.621094 159.1875 " fill-opacity="1" fill-rule="evenodd"/><g clip-path="url(#151df1644c)"><path fill="#ffffff" d="M 237.980469 169.691406 C 231.027344 169.691406 225.207031 163.871094 225.207031 156.777344 C 225.207031 149.824219 231.027344 144.003906 237.980469 144.003906 C 245.078125 144.003906 250.898438 149.824219 250.898438 156.777344 C 250.898438 163.871094 245.078125 169.691406 237.980469 169.691406 Z M 237.980469 169.691406 " fill-opacity="1" fill-rule="evenodd"/></g><path fill="#ffffff" d="M 118.753906 231.425781 C 117.476562 231.425781 116.339844 230.429688 116.339844 229.152344 L 116.339844 175.652344 C 116.339844 174.230469 117.476562 173.238281 118.753906 173.238281 C 120.03125 173.238281 121.027344 174.230469 121.027344 175.652344 L 121.027344 229.152344 C 121.027344 230.429688 120.03125 231.425781 118.753906 231.425781 Z M 118.753906 231.425781 " fill-opacity="1" fill-rule="evenodd"/><g clip-path="url(#e12e599da9)"><path fill="#ffffff" d="M 118.753906 252.425781 C 111.65625 252.425781 105.839844 246.609375 105.839844 239.511719 C 105.839844 232.417969 111.65625 226.742188 118.753906 226.742188 C 125.851562 226.742188 131.527344 232.417969 131.527344 239.511719 C 131.527344 246.609375 125.851562 252.425781 118.753906 252.425781 Z M 118.753906 252.425781 " fill-opacity="1" fill-rule="evenodd"/></g><path fill="#ffffff" d="M 143.878906 200.0625 C 142.601562 200.0625 141.464844 199.066406 141.464844 197.789062 L 141.464844 175.652344 C 141.464844 174.230469 142.601562 173.238281 143.878906 173.238281 C 145.15625 173.238281 146.289062 174.230469 146.289062 175.652344 L 146.289062 197.789062 C 146.289062 199.066406 145.15625 200.0625 143.878906 200.0625 Z M 143.878906 200.0625 " fill-opacity="1" fill-rule="evenodd"/><path fill="#ffffff" d="M 143.878906 221.0625 C 136.78125 221.0625 131.101562 215.246094 131.101562 208.148438 C 131.101562 201.054688 136.78125 195.378906 143.878906 195.378906 C 150.972656 195.378906 156.652344 201.054688 156.652344 208.148438 C 156.652344 215.246094 150.972656 221.0625 143.878906 221.0625 Z M 143.878906 221.0625 " fill-opacity="1" fill-rule="evenodd"/><path fill="#ffffff" d="M 194.265625 222.765625 L 179.21875 222.765625 C 172.265625 222.765625 166.585938 217.234375 166.585938 210.277344 L 166.585938 175.652344 C 166.585938 174.230469 167.722656 173.238281 169 173.238281 C 170.277344 173.238281 171.414062 174.230469 171.414062 175.652344 L 171.414062 210.277344 C 171.414062 214.535156 174.960938 218.085938 179.21875 218.085938 L 194.265625 218.085938 C 195.542969 218.085938 196.679688 219.078125 196.679688 220.496094 C 196.679688 221.773438 195.542969 222.765625 194.265625 222.765625 Z M 194.265625 222.765625 " fill-opacity="1" fill-rule="evenodd"/><path fill="#ffffff" d="M 204.769531 233.269531 C 197.671875 233.269531 191.851562 227.449219 191.851562 220.496094 C 191.851562 213.402344 197.671875 207.582031 204.769531 207.582031 C 211.867188 207.582031 217.542969 213.402344 217.542969 220.496094 C 217.542969 227.449219 211.867188 233.269531 204.769531 233.269531 Z M 204.769531 233.269531 " fill-opacity="1" fill-rule="evenodd"/><path fill="#ffffff" d="M 83.414062 222.765625 L 68.367188 222.765625 C 66.949219 222.765625 65.953125 221.773438 65.953125 220.496094 C 65.953125 219.078125 66.949219 218.085938 68.367188 218.085938 L 83.414062 218.085938 C 87.671875 218.085938 91.21875 214.535156 91.21875 210.277344 L 91.21875 175.652344 C 91.21875 174.230469 92.210938 173.238281 93.632812 173.238281 C 94.910156 173.238281 95.902344 174.230469 95.902344 175.652344 L 95.902344 210.277344 C 95.902344 217.234375 90.367188 222.765625 83.414062 222.765625 Z M 83.414062 222.765625 " fill-opacity="1" fill-rule="evenodd"/><path fill="#ffffff" d="M 57.863281 233.269531 C 50.765625 233.269531 45.089844 227.449219 45.089844 220.496094 C 45.089844 213.402344 50.765625 207.582031 57.863281 207.582031 C 64.960938 207.582031 70.636719 213.402344 70.636719 220.496094 C 70.636719 227.449219 64.960938 233.269531 57.863281 233.269531 Z M 57.863281 233.269531 " fill-opacity="1" fill-rule="evenodd"/><path fill="#ffffff" d="M 79.578125 107.957031 L 35.011719 107.957031 C 33.734375 107.957031 32.597656 106.964844 32.597656 105.6875 C 32.597656 104.269531 33.734375 103.273438 35.011719 103.273438 L 79.578125 103.273438 C 80.855469 103.273438 81.851562 104.269531 81.851562 105.6875 C 81.851562 106.964844 80.855469 107.957031 79.578125 107.957031 Z M 79.578125 107.957031 " fill-opacity="1" fill-rule="evenodd"/><g clip-path="url(#1f147c3de4)"><path fill="#ffffff" d="M 24.507812 118.460938 C 17.554688 118.460938 11.734375 112.78125 11.734375 105.6875 C 11.734375 98.589844 17.554688 92.773438 24.507812 92.773438 C 31.605469 92.773438 37.425781 98.589844 37.425781 105.6875 C 37.425781 112.78125 31.605469 118.460938 24.507812 118.460938 Z M 24.507812 118.460938 " fill-opacity="1" fill-rule="evenodd"/></g><path fill="#ffffff" d="M 79.578125 133.644531 L 66.238281 133.644531 C 64.960938 133.644531 63.824219 132.652344 63.824219 131.375 C 63.824219 130.097656 64.960938 128.960938 66.238281 128.960938 L 79.578125 128.960938 C 80.855469 128.960938 81.851562 130.097656 81.851562 131.375 C 81.851562 132.652344 80.855469 133.644531 79.578125 133.644531 Z M 79.578125 133.644531 " fill-opacity="1" fill-rule="evenodd"/><path fill="#ffffff" d="M 55.734375 144.144531 C 48.636719 144.144531 42.960938 138.46875 42.960938 131.375 C 42.960938 124.277344 48.636719 118.460938 55.734375 118.460938 C 62.832031 118.460938 68.652344 124.277344 68.652344 131.375 C 68.652344 138.46875 62.832031 144.144531 55.734375 144.144531 Z M 55.734375 144.144531 " fill-opacity="1" fill-rule="evenodd"/><path fill="#ffffff" d="M 79.578125 159.332031 L 35.011719 159.332031 C 33.734375 159.332031 32.597656 158.195312 32.597656 156.917969 C 32.597656 155.640625 33.734375 154.503906 35.011719 154.503906 L 79.578125 154.503906 C 80.855469 154.503906 81.851562 155.640625 81.851562 156.917969 C 81.851562 158.195312 80.855469 159.332031 79.578125 159.332031 Z M 79.578125 159.332031 " fill-opacity="1" fill-rule="evenodd"/><g clip-path="url(#4995474709)"><path fill="#ffffff" d="M 24.507812 169.691406 C 17.554688 169.691406 11.734375 164.015625 11.734375 156.917969 C 11.734375 149.824219 17.554688 144.144531 24.507812 144.144531 C 31.605469 144.144531 37.425781 149.824219 37.425781 156.917969 C 37.425781 164.015625 31.605469 169.691406 24.507812 169.691406 Z M 24.507812 169.691406 " fill-opacity="1" fill-rule="evenodd"/></g></svg>