<svg xmlns="http://www.w3.org/2000/svg" xmlns:xlink="http://www.w3.org/1999/xlink" width="350" zoomAndPan="magnify" viewBox="0 0 262.5 262.500001" height="350" preserveAspectRatio="xMidYMid meet" version="1.0"><defs><clipPath id="a6742224c2"><path d="M 34 39.105469 L 228 39.105469 L 228 223.605469 L 34 223.605469 Z M 34 39.105469 " clip-rule="nonzero"/></clipPath></defs><g clip-path="url(#a6742224c2)"><path fill="#26d0dd" d="M 215.277344 223.605469 L 46.871094 223.605469 C 46.046875 223.609375 45.226562 223.527344 44.417969 223.367188 C 43.609375 223.207031 42.824219 222.96875 42.0625 222.652344 C 41.296875 222.335938 40.574219 221.949219 39.886719 221.488281 C 39.203125 221.03125 38.566406 220.507812 37.984375 219.921875 C 37.402344 219.339844 36.878906 218.703125 36.421875 218.015625 C 35.964844 217.328125 35.578125 216.601562 35.261719 215.835938 C 34.945312 215.070312 34.707031 214.285156 34.546875 213.472656 C 34.390625 212.660156 34.308594 211.84375 34.308594 211.015625 L 34.308594 51.761719 C 34.308594 50.933594 34.390625 50.117188 34.550781 49.304688 C 34.710938 48.496094 34.949219 47.707031 35.265625 46.945312 C 35.582031 46.179688 35.96875 45.457031 36.425781 44.769531 C 36.882812 44.082031 37.40625 43.445312 37.988281 42.863281 C 38.570312 42.277344 39.207031 41.757812 39.890625 41.296875 C 40.578125 40.839844 41.300781 40.453125 42.0625 40.136719 C 42.828125 39.820312 43.613281 39.582031 44.421875 39.421875 C 45.230469 39.261719 46.046875 39.183594 46.871094 39.183594 L 215.277344 39.183594 C 216.101562 39.183594 216.917969 39.265625 217.726562 39.425781 C 218.535156 39.589844 219.316406 39.828125 220.078125 40.144531 C 220.839844 40.460938 221.5625 40.847656 222.246094 41.308594 C 222.929688 41.765625 223.566406 42.289062 224.148438 42.871094 C 224.730469 43.457031 225.25 44.089844 225.707031 44.777344 C 226.164062 45.464844 226.550781 46.1875 226.867188 46.949219 C 227.183594 47.714844 227.421875 48.5 227.582031 49.308594 C 227.742188 50.117188 227.824219 50.9375 227.824219 51.761719 L 227.824219 211.015625 C 227.828125 211.839844 227.746094 212.660156 227.585938 213.472656 C 227.425781 214.28125 227.191406 215.070312 226.875 215.832031 C 226.558594 216.597656 226.175781 217.324219 225.714844 218.011719 C 225.257812 218.699219 224.738281 219.332031 224.15625 219.917969 C 223.574219 220.503906 222.941406 221.023438 222.253906 221.484375 C 221.570312 221.945312 220.84375 222.332031 220.082031 222.648438 C 219.320312 222.964844 218.535156 223.203125 217.726562 223.363281 C 216.917969 223.527344 216.101562 223.605469 215.277344 223.605469 Z M 215.277344 223.605469 " fill-opacity="1" fill-rule="nonzero"/></g><path fill="#f9e662" d="M 118.367188 99.484375 C 118.367188 100.140625 118.335938 100.796875 118.273438 101.449219 C 118.207031 102.101562 118.113281 102.75 117.984375 103.394531 C 117.855469 104.039062 117.699219 104.671875 117.507812 105.300781 C 117.316406 105.929688 117.097656 106.546875 116.847656 107.152344 C 116.597656 107.757812 116.316406 108.351562 116.007812 108.929688 C 115.699219 109.507812 115.363281 110.070312 115 110.617188 C 114.636719 111.160156 114.246094 111.6875 113.832031 112.195312 C 113.417969 112.703125 112.976562 113.1875 112.515625 113.652344 C 112.050781 114.117188 111.566406 114.554688 111.0625 114.972656 C 110.554688 115.390625 110.03125 115.78125 109.484375 116.144531 C 108.941406 116.507812 108.382812 116.84375 107.804688 117.15625 C 107.226562 117.464844 106.636719 117.746094 106.03125 117.996094 C 105.425781 118.246094 104.808594 118.46875 104.183594 118.65625 C 103.558594 118.847656 102.921875 119.007812 102.28125 119.136719 C 101.640625 119.265625 100.992188 119.359375 100.339844 119.425781 C 99.691406 119.488281 99.035156 119.519531 98.382812 119.519531 C 97.726562 119.519531 97.074219 119.488281 96.421875 119.425781 C 95.773438 119.359375 95.125 119.265625 94.484375 119.136719 C 93.839844 119.007812 93.207031 118.847656 92.582031 118.65625 C 91.953125 118.46875 91.339844 118.246094 90.734375 117.996094 C 90.128906 117.746094 89.539062 117.464844 88.960938 117.15625 C 88.382812 116.84375 87.824219 116.507812 87.277344 116.144531 C 86.734375 115.78125 86.210938 115.390625 85.703125 114.972656 C 85.199219 114.554688 84.714844 114.117188 84.25 113.652344 C 83.789062 113.1875 83.347656 112.703125 82.933594 112.195312 C 82.519531 111.6875 82.128906 111.160156 81.765625 110.617188 C 81.402344 110.070312 81.066406 109.507812 80.757812 108.929688 C 80.449219 108.351562 80.167969 107.757812 79.917969 107.152344 C 79.667969 106.546875 79.445312 105.929688 79.257812 105.300781 C 79.066406 104.671875 78.90625 104.039062 78.78125 103.394531 C 78.652344 102.75 78.558594 102.101562 78.492188 101.449219 C 78.429688 100.796875 78.394531 100.140625 78.394531 99.484375 C 78.394531 98.828125 78.429688 98.175781 78.492188 97.519531 C 78.558594 96.867188 78.652344 96.21875 78.78125 95.578125 C 78.90625 94.933594 79.066406 94.296875 79.257812 93.667969 C 79.445312 93.042969 79.667969 92.425781 79.917969 91.816406 C 80.167969 91.210938 80.449219 90.621094 80.757812 90.039062 C 81.066406 89.460938 81.402344 88.898438 81.765625 88.355469 C 82.128906 87.808594 82.519531 87.28125 82.933594 86.773438 C 83.347656 86.265625 83.789062 85.78125 84.25 85.316406 C 84.714844 84.855469 85.199219 84.414062 85.703125 83.996094 C 86.210938 83.582031 86.734375 83.191406 87.277344 82.828125 C 87.824219 82.460938 88.382812 82.125 88.960938 81.816406 C 89.539062 81.507812 90.128906 81.226562 90.734375 80.976562 C 91.339844 80.722656 91.953125 80.503906 92.582031 80.3125 C 93.207031 80.121094 93.839844 79.960938 94.484375 79.835938 C 95.125 79.707031 95.773438 79.609375 96.421875 79.546875 C 97.074219 79.480469 97.726562 79.449219 98.382812 79.449219 C 99.035156 79.449219 99.691406 79.480469 100.339844 79.546875 C 100.992188 79.609375 101.640625 79.707031 102.28125 79.835938 C 102.921875 79.960938 103.558594 80.121094 104.183594 80.3125 C 104.808594 80.503906 105.425781 80.722656 106.03125 80.976562 C 106.636719 81.226562 107.226562 81.507812 107.804688 81.816406 C 108.382812 82.125 108.941406 82.460938 109.484375 82.828125 C 110.03125 83.191406 110.554688 83.582031 111.0625 83.996094 C 111.566406 84.414062 112.050781 84.855469 112.515625 85.316406 C 112.976562 85.78125 113.417969 86.269531 113.832031 86.773438 C 114.246094 87.28125 114.636719 87.808594 115 88.355469 C 115.363281 88.898438 115.699219 89.460938 116.007812 90.039062 C 116.316406 90.621094 116.597656 91.210938 116.847656 91.816406 C 117.097656 92.425781 117.316406 93.042969 117.507812 93.667969 C 117.699219 94.296875 117.855469 94.933594 117.984375 95.578125 C 118.113281 96.21875 118.207031 96.867188 118.273438 97.519531 C 118.335938 98.175781 118.367188 98.828125 118.367188 99.484375 Z M 118.367188 99.484375 " fill-opacity="1" fill-rule="nonzero"/><path fill="#f9e662" d="M 63.679688 174.914062 L 86.265625 144.460938 C 86.492188 144.15625 86.746094 143.882812 87.03125 143.632812 C 87.316406 143.382812 87.625 143.167969 87.957031 142.984375 C 88.289062 142.804688 88.632812 142.65625 88.996094 142.550781 C 89.359375 142.441406 89.730469 142.375 90.105469 142.347656 C 90.484375 142.320312 90.859375 142.332031 91.234375 142.386719 C 91.605469 142.441406 91.972656 142.53125 92.324219 142.664062 C 92.679688 142.796875 93.015625 142.964844 93.332031 143.167969 C 93.652344 143.375 93.945312 143.609375 94.210938 143.878906 L 104.394531 154.085938 C 104.660156 154.355469 104.953125 154.589844 105.269531 154.796875 C 105.585938 155 105.921875 155.167969 106.273438 155.300781 C 106.625 155.433594 106.988281 155.527344 107.359375 155.582031 C 107.734375 155.636719 108.109375 155.648438 108.484375 155.625 C 108.859375 155.597656 109.226562 155.53125 109.589844 155.425781 C 109.953125 155.320312 110.296875 155.179688 110.628906 155 C 110.960938 154.816406 111.269531 154.605469 111.554688 154.359375 C 111.839844 154.113281 112.09375 153.839844 112.320312 153.539062 L 150.425781 102.9375 C 150.558594 102.765625 150.699219 102.597656 150.851562 102.441406 C 151.003906 102.28125 151.167969 102.136719 151.335938 102 C 151.507812 101.863281 151.6875 101.734375 151.871094 101.621094 C 152.058594 101.507812 152.25 101.402344 152.449219 101.3125 C 152.648438 101.222656 152.855469 101.144531 153.0625 101.078125 C 153.269531 101.015625 153.484375 100.960938 153.699219 100.921875 C 153.914062 100.882812 154.128906 100.859375 154.347656 100.847656 C 154.566406 100.835938 154.785156 100.835938 155.003906 100.851562 C 155.222656 100.867188 155.4375 100.898438 155.652344 100.941406 C 155.867188 100.984375 156.078125 101.039062 156.285156 101.109375 C 156.492188 101.175781 156.695312 101.257812 156.890625 101.351562 C 157.089844 101.445312 157.28125 101.554688 157.464844 101.671875 C 157.648438 101.789062 157.824219 101.917969 157.992188 102.058594 C 158.160156 102.199219 158.320312 102.347656 158.46875 102.507812 C 158.617188 102.667969 158.757812 102.835938 158.886719 103.015625 C 159.015625 103.191406 159.132812 103.375 159.238281 103.566406 L 198.847656 175.445312 C 198.957031 175.644531 199.054688 175.851562 199.140625 176.066406 C 199.222656 176.277344 199.292969 176.496094 199.347656 176.71875 C 199.402344 176.9375 199.445312 177.164062 199.46875 177.390625 C 199.496094 177.617188 199.507812 177.847656 199.503906 178.074219 C 199.503906 178.304688 199.484375 178.53125 199.453125 178.757812 C 199.417969 178.984375 199.371094 179.207031 199.308594 179.425781 C 199.25 179.648438 199.171875 179.863281 199.082031 180.074219 C 198.992188 180.28125 198.890625 180.488281 198.773438 180.683594 C 198.660156 180.878906 198.53125 181.070312 198.390625 181.25 C 198.25 181.429688 198.097656 181.601562 197.933594 181.761719 C 197.773438 181.921875 197.601562 182.070312 197.417969 182.207031 C 197.234375 182.347656 197.046875 182.472656 196.847656 182.585938 C 196.648438 182.699219 196.445312 182.796875 196.234375 182.882812 C 196.023438 182.96875 195.804688 183.042969 195.585938 183.101562 C 195.367188 183.160156 195.140625 183.203125 194.914062 183.234375 C 194.6875 183.261719 194.460938 183.277344 194.234375 183.277344 L 67.898438 183.34375 C 67.410156 183.34375 66.933594 183.277344 66.464844 183.144531 C 65.992188 183.011719 65.550781 182.816406 65.136719 182.558594 C 64.71875 182.300781 64.347656 181.992188 64.015625 181.632812 C 63.6875 181.273438 63.414062 180.871094 63.191406 180.433594 C 62.972656 180 62.816406 179.539062 62.726562 179.058594 C 62.632812 178.578125 62.609375 178.09375 62.652344 177.605469 C 62.695312 177.121094 62.800781 176.648438 62.976562 176.1875 C 63.148438 175.730469 63.382812 175.308594 63.671875 174.914062 Z M 63.679688 174.914062 " fill-opacity="1" fill-rule="nonzero"/><path fill="#ffffff" d="M 52.777344 89.765625 L 52.695312 89.765625 C 52.183594 89.753906 51.695312 89.644531 51.230469 89.441406 C 50.761719 89.234375 50.351562 88.945312 50 88.578125 C 49.644531 88.207031 49.378906 87.785156 49.191406 87.308594 C 49.007812 86.832031 48.921875 86.339844 48.929688 85.828125 C 49.039062 80.746094 49.039062 75.644531 48.929688 70.667969 L 48.882812 68.585938 C 48.714844 62.027344 48.625 58.414062 51.753906 55.558594 C 54.332031 53.203125 57.003906 53.246094 62.875 53.347656 L 64.589844 53.375 C 68.800781 53.4375 72.980469 53.4375 77.007812 53.375 C 77.519531 53.375 78.007812 53.46875 78.480469 53.65625 C 78.949219 53.847656 79.371094 54.121094 79.734375 54.476562 C 80.097656 54.828125 80.382812 55.238281 80.585938 55.707031 C 80.792969 56.171875 80.902344 56.660156 80.914062 57.171875 C 80.921875 57.683594 80.832031 58.175781 80.644531 58.652344 C 80.457031 59.125 80.183594 59.546875 79.828125 59.914062 C 79.472656 60.28125 79.0625 60.566406 78.59375 60.769531 C 78.125 60.972656 77.636719 61.078125 77.128906 61.085938 C 73.027344 61.144531 68.765625 61.144531 64.476562 61.085938 L 62.742188 61.054688 C 60.8125 60.914062 58.890625 60.96875 56.972656 61.222656 C 56.371094 63.585938 56.238281 65.976562 56.570312 68.390625 L 56.617188 70.5 C 56.730469 75.582031 56.730469 80.792969 56.617188 85.988281 C 56.609375 86.492188 56.503906 86.976562 56.304688 87.4375 C 56.105469 87.902344 55.824219 88.308594 55.464844 88.660156 C 55.109375 89.015625 54.695312 89.285156 54.230469 89.476562 C 53.765625 89.667969 53.28125 89.765625 52.777344 89.765625 Z M 52.777344 89.765625 " fill-opacity="1" fill-rule="nonzero"/><path fill="#ffffff" d="M 94.824219 60.691406 L 90.03125 60.691406 C 89.519531 60.691406 89.03125 60.59375 88.558594 60.398438 C 88.089844 60.203125 87.671875 59.921875 87.3125 59.5625 C 86.953125 59.199219 86.675781 58.785156 86.480469 58.3125 C 86.285156 57.839844 86.1875 57.347656 86.1875 56.835938 C 86.1875 56.324219 86.285156 55.835938 86.480469 55.363281 C 86.675781 54.890625 86.953125 54.472656 87.3125 54.113281 C 87.671875 53.75 88.089844 53.472656 88.558594 53.277344 C 89.03125 53.082031 89.519531 52.984375 90.03125 52.984375 L 94.824219 52.984375 C 95.335938 52.984375 95.824219 53.082031 96.296875 53.277344 C 96.765625 53.472656 97.183594 53.75 97.542969 54.113281 C 97.902344 54.472656 98.179688 54.890625 98.375 55.363281 C 98.570312 55.835938 98.667969 56.324219 98.667969 56.835938 C 98.667969 57.347656 98.570312 57.839844 98.375 58.3125 C 98.179688 58.785156 97.902344 59.199219 97.542969 59.5625 C 97.183594 59.921875 96.765625 60.203125 96.296875 60.398438 C 95.824219 60.59375 95.335938 60.691406 94.824219 60.691406 Z M 94.824219 60.691406 " fill-opacity="1" fill-rule="nonzero"/></svg>