<svg xmlns="http://www.w3.org/2000/svg" xmlns:xlink="http://www.w3.org/1999/xlink" width="350" zoomAndPan="magnify" viewBox="0 0 262.5 262.500001" height="350" preserveAspectRatio="xMidYMid meet" version="1.0"><defs><clipPath id="4deceb223c"><path d="M 20.285156 28.667969 L 95 28.667969 L 95 65 L 20.285156 65 Z M 20.285156 28.667969 " clip-rule="nonzero"/></clipPath><clipPath id="b0150da519"><path d="M 45 28.667969 L 212 28.667969 L 212 234.167969 L 45 234.167969 Z M 45 28.667969 " clip-rule="nonzero"/></clipPath><clipPath id="e0ca7f6932"><path d="M 94 205 L 236.285156 205 L 236.285156 234.167969 L 94 234.167969 Z M 94 205 " clip-rule="nonzero"/></clipPath></defs><g clip-path="url(#4deceb223c)"><path fill="#d2d3d3" d="M 94.675781 64.097656 L 20.375 64.097656 L 20.375 53.46875 C 20.375 39.769531 31.464844 28.667969 45.140625 28.667969 L 94.675781 28.667969 L 94.675781 64.097656 " fill-opacity="1" fill-rule="nonzero"/></g><g clip-path="url(#b0150da519)"><path fill="#ecf1f4" d="M 211.429688 53.46875 C 211.429688 39.769531 200.339844 28.667969 186.664062 28.667969 L 45.140625 28.667969 C 58.820312 28.667969 69.910156 39.769531 69.910156 53.46875 L 69.910156 209.363281 C 69.910156 223.0625 80.996094 234.167969 94.675781 234.167969 L 186.664062 234.167969 C 200.339844 234.167969 211.429688 223.0625 211.429688 209.363281 L 211.429688 53.46875 " fill-opacity="1" fill-rule="nonzero"/></g><path fill="#d2d3d3" d="M 190.199219 95.984375 L 91.136719 95.984375 L 91.136719 81.8125 L 190.199219 81.8125 L 190.199219 95.984375 " fill-opacity="1" fill-rule="nonzero"/><path fill="#d2d3d3" d="M 186.664062 113.703125 L 94.675781 113.703125 C 92.71875 113.703125 91.136719 112.113281 91.136719 110.160156 C 91.136719 108.203125 92.71875 106.613281 94.675781 106.613281 L 186.664062 106.613281 C 188.617188 106.613281 190.199219 108.203125 190.199219 110.160156 C 190.199219 112.113281 188.617188 113.703125 186.664062 113.703125 " fill-opacity="1" fill-rule="nonzero"/><path fill="#d2d3d3" d="M 126.515625 127.875 L 94.675781 127.875 C 92.71875 127.875 91.136719 126.289062 91.136719 124.332031 C 91.136719 122.375 92.71875 120.789062 94.675781 120.789062 L 126.515625 120.789062 C 128.46875 120.789062 130.054688 122.375 130.054688 124.332031 C 130.054688 126.289062 128.46875 127.875 126.515625 127.875 " fill-opacity="1" fill-rule="nonzero"/><path fill="#d2d3d3" d="M 126.515625 142.046875 L 94.675781 142.046875 C 92.71875 142.046875 91.136719 140.460938 91.136719 138.503906 C 91.136719 136.546875 92.71875 134.960938 94.675781 134.960938 L 126.515625 134.960938 C 128.46875 134.960938 130.054688 136.546875 130.054688 138.503906 C 130.054688 140.460938 128.46875 142.046875 126.515625 142.046875 " fill-opacity="1" fill-rule="nonzero"/><path fill="#d2d3d3" d="M 126.515625 156.21875 L 94.675781 156.21875 C 92.71875 156.21875 91.136719 154.632812 91.136719 152.675781 C 91.136719 150.71875 92.71875 149.132812 94.675781 149.132812 L 126.515625 149.132812 C 128.46875 149.132812 130.054688 150.71875 130.054688 152.675781 C 130.054688 154.632812 128.46875 156.21875 126.515625 156.21875 " fill-opacity="1" fill-rule="nonzero"/><path fill="#d2d3d3" d="M 190.199219 191.648438 L 137.128906 191.648438 C 135.175781 191.648438 133.59375 190.0625 133.59375 188.105469 C 133.59375 186.148438 135.175781 184.5625 137.128906 184.5625 L 190.199219 184.5625 C 192.15625 184.5625 193.738281 186.148438 193.738281 188.105469 C 193.738281 190.0625 192.15625 191.648438 190.199219 191.648438 " fill-opacity="1" fill-rule="nonzero"/><path fill="#fbd124" d="M 186.664062 149.132812 C 186.664062 160.855469 177.140625 170.390625 165.433594 170.390625 C 153.730469 170.390625 144.207031 160.855469 144.207031 149.132812 C 144.207031 137.410156 153.730469 127.875 165.433594 127.875 C 177.140625 127.875 186.664062 137.410156 186.664062 149.132812 " fill-opacity="1" fill-rule="nonzero"/><path fill="#f9ad1f" d="M 165.433594 170.390625 C 153.730469 170.390625 144.207031 160.855469 144.207031 149.132812 C 144.207031 137.410156 153.730469 127.875 165.433594 127.875 C 177.140625 127.875 186.664062 137.410156 186.664062 149.132812 C 186.664062 160.855469 177.140625 170.390625 165.433594 170.390625 Z M 165.433594 120.789062 C 149.828125 120.789062 137.128906 133.503906 137.128906 149.132812 C 137.128906 164.761719 149.828125 177.476562 165.433594 177.476562 C 181.042969 177.476562 193.738281 164.761719 193.738281 149.132812 C 193.738281 133.503906 181.042969 120.789062 165.433594 120.789062 " fill-opacity="1" fill-rule="nonzero"/><path fill="#f9ad1f" d="M 172.511719 152.675781 C 172.511719 155.292969 171.085938 157.582031 168.972656 158.804688 L 168.972656 159.761719 C 168.972656 161.71875 167.390625 163.304688 165.433594 163.304688 C 163.480469 163.304688 161.898438 161.71875 161.898438 159.761719 C 159.941406 159.761719 158.359375 158.175781 158.359375 156.21875 C 158.359375 154.261719 159.941406 152.675781 161.898438 152.675781 L 165.433594 152.675781 C 161.535156 152.675781 158.359375 149.496094 158.359375 145.589844 C 158.359375 142.972656 159.78125 140.683594 161.898438 139.460938 L 161.898438 138.503906 C 161.898438 136.542969 163.480469 134.960938 165.433594 134.960938 C 167.390625 134.960938 168.972656 136.542969 168.972656 138.503906 C 170.929688 138.503906 172.511719 140.085938 172.511719 142.046875 C 172.511719 144.003906 170.929688 145.589844 168.972656 145.589844 L 165.433594 145.589844 C 169.335938 145.589844 172.511719 148.769531 172.511719 152.675781 " fill-opacity="1" fill-rule="nonzero"/><path fill="#50c179" d="M 105.289062 57.011719 L 108.828125 57.011719 C 110.777344 57.011719 112.363281 55.421875 112.363281 53.46875 C 112.363281 51.515625 110.777344 49.925781 108.828125 49.925781 L 105.289062 49.925781 Z M 101.75 71.183594 C 99.796875 71.183594 98.210938 69.597656 98.210938 67.640625 L 98.210938 46.382812 C 98.210938 44.425781 99.796875 42.839844 101.75 42.839844 L 108.828125 42.839844 C 114.679688 42.839844 119.441406 47.605469 119.441406 53.46875 C 119.441406 59.328125 114.679688 64.097656 108.828125 64.097656 L 105.289062 64.097656 L 105.289062 67.640625 C 105.289062 69.597656 103.703125 71.183594 101.75 71.183594 " fill-opacity="1" fill-rule="nonzero"/><path fill="#50c179" d="M 131.742188 60.554688 L 133.59375 55.921875 L 135.441406 60.554688 Z M 144.1875 63.761719 C 144.179688 63.660156 144.167969 63.5625 144.148438 63.460938 C 144.144531 63.433594 144.140625 63.40625 144.136719 63.386719 C 144.117188 63.300781 144.097656 63.210938 144.070312 63.128906 C 144.035156 62.984375 143.984375 62.847656 143.929688 62.714844 L 136.878906 45.066406 C 136.339844 43.71875 135.039062 42.839844 133.59375 42.839844 C 132.148438 42.839844 130.847656 43.71875 130.308594 45.066406 L 123.257812 62.714844 C 123.199219 62.847656 123.152344 62.984375 123.113281 63.128906 C 123.089844 63.210938 123.066406 63.300781 123.050781 63.386719 C 123.042969 63.40625 123.039062 63.433594 123.035156 63.460938 C 123.019531 63.5625 123.003906 63.660156 122.996094 63.761719 C 122.984375 63.871094 122.976562 63.980469 122.976562 64.097656 L 122.976562 67.640625 C 122.976562 69.597656 124.5625 71.183594 126.515625 71.183594 C 128.472656 71.183594 130.054688 69.597656 130.054688 67.640625 L 137.128906 67.640625 C 137.128906 69.597656 138.714844 71.183594 140.667969 71.183594 C 142.625 71.183594 144.207031 69.597656 144.207031 67.640625 L 144.207031 64.097656 C 144.207031 63.980469 144.203125 63.871094 144.1875 63.761719 " fill-opacity="1" fill-rule="nonzero"/><path fill="#50c179" d="M 154.820312 71.183594 C 152.867188 71.183594 151.28125 69.597656 151.28125 67.640625 L 151.28125 46.382812 C 151.28125 44.425781 152.867188 42.839844 154.820312 42.839844 C 156.773438 42.839844 158.359375 44.425781 158.359375 46.382812 L 158.359375 67.640625 C 158.359375 69.597656 156.773438 71.183594 154.820312 71.183594 " fill-opacity="1" fill-rule="nonzero"/><path fill="#50c179" d="M 172.511719 49.925781 L 172.511719 64.097656 C 176.410156 64.097656 179.585938 60.917969 179.585938 57.011719 C 179.585938 53.105469 176.410156 49.925781 172.511719 49.925781 Z M 172.511719 71.183594 L 168.972656 71.183594 C 167.019531 71.183594 165.433594 69.597656 165.433594 67.640625 L 165.433594 46.382812 C 165.433594 44.425781 167.019531 42.839844 168.972656 42.839844 L 172.511719 42.839844 C 180.3125 42.839844 186.664062 49.195312 186.664062 57.011719 C 186.664062 64.828125 180.3125 71.183594 172.511719 71.183594 " fill-opacity="1" fill-rule="nonzero"/><g clip-path="url(#e0ca7f6932)"><path fill="#d2d3d3" d="M 236.195312 205.820312 L 119.441406 205.820312 L 119.441406 209.363281 C 119.441406 223.0625 108.351562 234.167969 94.675781 234.167969 L 207.890625 234.167969 C 223.523438 234.167969 236.195312 221.476562 236.195312 205.820312 " fill-opacity="1" fill-rule="nonzero"/></g></svg>