<svg xmlns="http://www.w3.org/2000/svg" xmlns:xlink="http://www.w3.org/1999/xlink" width="350" zoomAndPan="magnify" viewBox="0 0 262.5 262.500001" height="350" preserveAspectRatio="xMidYMid meet" version="1.0"><defs><clipPath id="7676009177"><path d="M 120.757812 42.722656 L 141.636719 42.722656 L 141.636719 49.429688 L 120.757812 49.429688 Z M 120.757812 51.214844 L 141.636719 51.214844 L 141.636719 57.917969 L 120.757812 57.917969 Z M 96.824219 59.746094 L 117.703125 59.746094 L 117.703125 66.449219 L 96.824219 66.449219 Z M 120.757812 59.746094 L 141.636719 59.746094 L 141.636719 66.449219 L 120.757812 66.449219 Z M 168.582031 59.746094 L 189.460938 59.746094 L 189.460938 66.449219 L 168.582031 66.449219 Z M 49.039062 68.277344 L 69.917969 68.277344 L 69.917969 74.984375 L 49.039062 74.984375 Z M 96.824219 68.277344 L 117.703125 68.277344 L 117.703125 74.984375 L 96.824219 74.984375 Z M 120.757812 68.277344 L 141.636719 68.277344 L 141.636719 74.984375 L 120.757812 74.984375 Z M 168.582031 68.277344 L 189.460938 68.277344 L 189.460938 74.984375 L 168.582031 74.984375 Z M 49.039062 76.765625 L 69.917969 76.765625 L 69.917969 83.472656 L 49.039062 83.472656 Z M 96.824219 76.765625 L 117.703125 76.765625 L 117.703125 83.472656 L 96.824219 83.472656 Z M 120.757812 76.765625 L 141.636719 76.765625 L 141.636719 83.472656 L 120.757812 83.472656 Z M 168.582031 76.765625 L 189.460938 76.765625 L 189.460938 83.472656 L 168.582031 83.472656 Z M 49.039062 85.296875 L 69.917969 85.296875 L 69.917969 92.003906 L 49.039062 92.003906 Z M 72.933594 85.296875 L 93.808594 85.296875 L 93.808594 92.003906 L 72.933594 92.003906 Z M 96.824219 85.296875 L 117.703125 85.296875 L 117.703125 92.003906 L 96.824219 92.003906 Z M 120.757812 85.296875 L 141.636719 85.296875 L 141.636719 92.003906 L 120.757812 92.003906 Z M 144.691406 85.296875 L 165.570312 85.296875 L 165.570312 92.003906 L 144.691406 92.003906 Z M 168.582031 85.296875 L 189.460938 85.296875 L 189.460938 92.003906 L 168.582031 92.003906 Z M 49.039062 93.785156 L 69.917969 93.785156 L 69.917969 100.492188 L 49.039062 100.492188 Z M 72.933594 93.785156 L 93.808594 93.785156 L 93.808594 100.492188 L 72.933594 100.492188 Z M 96.824219 93.785156 L 117.703125 93.785156 L 117.703125 100.492188 L 96.824219 100.492188 Z M 120.757812 93.785156 L 141.636719 93.785156 L 141.636719 100.492188 L 120.757812 100.492188 Z M 144.691406 93.785156 L 165.570312 93.785156 L 165.570312 100.492188 L 144.691406 100.492188 Z M 168.582031 93.785156 L 189.460938 93.785156 L 189.460938 100.492188 L 168.582031 100.492188 Z M 192.472656 93.785156 L 213.351562 93.785156 L 213.351562 100.492188 L 192.472656 100.492188 Z M 25.105469 102.316406 L 45.984375 102.316406 L 45.984375 109.023438 L 25.105469 109.023438 Z M 49.039062 102.316406 L 69.917969 102.316406 L 69.917969 109.023438 L 49.039062 109.023438 Z M 72.933594 102.316406 L 93.808594 102.316406 L 93.808594 109.023438 L 72.933594 109.023438 Z M 96.824219 102.316406 L 117.703125 102.316406 L 117.703125 109.023438 L 96.824219 109.023438 Z M 120.757812 102.316406 L 141.636719 102.316406 L 141.636719 109.023438 L 120.757812 109.023438 Z M 144.691406 102.316406 L 165.570312 102.316406 L 165.570312 109.023438 L 144.691406 109.023438 Z M 168.582031 102.316406 L 189.460938 102.316406 L 189.460938 109.023438 L 168.582031 109.023438 Z M 192.472656 102.316406 L 213.351562 102.316406 L 213.351562 109.023438 L 192.472656 109.023438 Z M 25.105469 110.851562 L 45.984375 110.851562 L 45.984375 117.554688 L 25.105469 117.554688 Z M 49.039062 110.851562 L 69.917969 110.851562 L 69.917969 117.554688 L 49.039062 117.554688 Z M 72.933594 110.851562 L 93.808594 110.851562 L 93.808594 117.554688 L 72.933594 117.554688 Z M 96.824219 110.851562 L 117.703125 110.851562 L 117.703125 117.554688 L 96.824219 117.554688 Z M 120.757812 110.851562 L 141.636719 110.851562 L 141.636719 117.554688 L 120.757812 117.554688 Z M 144.691406 110.851562 L 165.570312 110.851562 L 165.570312 117.554688 L 144.691406 117.554688 Z M 168.582031 110.851562 L 189.460938 110.851562 L 189.460938 117.554688 L 168.582031 117.554688 Z M 192.472656 110.851562 L 213.351562 110.851562 L 213.351562 117.554688 L 192.472656 117.554688 Z M 216.410156 110.851562 L 237.285156 110.851562 L 237.285156 117.554688 L 216.410156 117.554688 Z M 25.105469 119.339844 L 45.984375 119.339844 L 45.984375 126.046875 L 25.105469 126.046875 Z M 49.039062 119.339844 L 69.917969 119.339844 L 69.917969 126.046875 L 49.039062 126.046875 Z M 72.933594 119.339844 L 93.808594 119.339844 L 93.808594 126.046875 L 72.933594 126.046875 Z M 96.824219 119.339844 L 117.703125 119.339844 L 117.703125 126.046875 L 96.824219 126.046875 Z M 120.757812 119.339844 L 141.636719 119.339844 L 141.636719 126.046875 L 120.757812 126.046875 Z M 144.691406 119.339844 L 165.570312 119.339844 L 165.570312 126.046875 L 144.691406 126.046875 Z M 168.582031 119.339844 L 189.460938 119.339844 L 189.460938 126.046875 L 168.582031 126.046875 Z M 192.472656 119.339844 L 213.351562 119.339844 L 213.351562 126.046875 L 192.472656 126.046875 Z M 216.410156 119.339844 L 237.285156 119.339844 L 237.285156 126.046875 L 216.410156 126.046875 Z M 25.105469 127.871094 L 45.984375 127.871094 L 45.984375 134.578125 L 25.105469 134.578125 Z M 49.039062 127.871094 L 69.917969 127.871094 L 69.917969 134.578125 L 49.039062 134.578125 Z M 72.933594 127.871094 L 93.808594 127.871094 L 93.808594 134.578125 L 72.933594 134.578125 Z M 96.824219 127.871094 L 117.703125 127.871094 L 117.703125 134.578125 L 96.824219 134.578125 Z M 120.757812 127.871094 L 141.636719 127.871094 L 141.636719 134.578125 L 120.757812 134.578125 Z M 144.691406 127.871094 L 165.570312 127.871094 L 165.570312 134.578125 L 144.691406 134.578125 Z M 168.582031 127.871094 L 189.460938 127.871094 L 189.460938 134.578125 L 168.582031 134.578125 Z M 192.472656 127.871094 L 213.351562 127.871094 L 213.351562 134.578125 L 192.472656 134.578125 Z M 216.410156 127.871094 L 237.285156 127.871094 L 237.285156 134.578125 L 216.410156 134.578125 Z M 25.105469 136.359375 L 45.984375 136.359375 L 45.984375 143.066406 L 25.105469 143.066406 Z M 49.039062 136.359375 L 69.917969 136.359375 L 69.917969 143.066406 L 49.039062 143.066406 Z M 72.933594 136.359375 L 93.808594 136.359375 L 93.808594 143.066406 L 72.933594 143.066406 Z M 96.824219 136.359375 L 117.703125 136.359375 L 117.703125 143.066406 L 96.824219 143.066406 Z M 120.757812 136.359375 L 141.636719 136.359375 L 141.636719 143.066406 L 120.757812 143.066406 Z M 144.691406 136.359375 L 165.570312 136.359375 L 165.570312 143.066406 L 144.691406 143.066406 Z M 168.582031 136.359375 L 189.460938 136.359375 L 189.460938 143.066406 L 168.582031 143.066406 Z M 192.472656 136.359375 L 213.351562 136.359375 L 213.351562 143.066406 L 192.472656 143.066406 Z M 216.410156 136.359375 L 237.285156 136.359375 L 237.285156 143.066406 L 216.410156 143.066406 Z M 25.105469 144.890625 L 45.984375 144.890625 L 45.984375 151.597656 L 25.105469 151.597656 Z M 49.039062 144.890625 L 69.917969 144.890625 L 69.917969 151.597656 L 49.039062 151.597656 Z M 72.933594 144.890625 L 93.808594 144.890625 L 93.808594 151.597656 L 72.933594 151.597656 Z M 96.824219 144.890625 L 117.703125 144.890625 L 117.703125 151.597656 L 96.824219 151.597656 Z M 120.757812 144.890625 L 141.636719 144.890625 L 141.636719 151.597656 L 120.757812 151.597656 Z M 144.691406 144.890625 L 165.570312 144.890625 L 165.570312 151.597656 L 144.691406 151.597656 Z M 168.582031 144.890625 L 189.460938 144.890625 L 189.460938 151.597656 L 168.582031 151.597656 Z M 192.472656 144.890625 L 213.351562 144.890625 L 213.351562 151.597656 L 192.472656 151.597656 Z M 216.410156 144.890625 L 237.285156 144.890625 L 237.285156 151.597656 L 216.410156 151.597656 Z M 25.105469 153.421875 L 45.984375 153.421875 L 45.984375 160.128906 L 25.105469 160.128906 Z M 49.039062 153.421875 L 69.917969 153.421875 L 69.917969 160.128906 L 49.039062 160.128906 Z M 72.933594 153.421875 L 93.808594 153.421875 L 93.808594 160.128906 L 72.933594 160.128906 Z M 96.824219 153.421875 L 117.703125 153.421875 L 117.703125 160.128906 L 96.824219 160.128906 Z M 120.757812 153.421875 L 141.636719 153.421875 L 141.636719 160.128906 L 120.757812 160.128906 Z M 144.691406 153.421875 L 165.570312 153.421875 L 165.570312 160.128906 L 144.691406 160.128906 Z M 168.582031 153.421875 L 189.460938 153.421875 L 189.460938 160.128906 L 168.582031 160.128906 Z M 192.472656 153.421875 L 213.351562 153.421875 L 213.351562 160.128906 L 192.472656 160.128906 Z M 49.039062 161.953125 L 69.917969 161.953125 L 69.917969 168.660156 L 49.039062 168.660156 Z M 72.933594 161.953125 L 93.808594 161.953125 L 93.808594 168.660156 L 72.933594 168.660156 Z M 96.824219 161.953125 L 117.703125 161.953125 L 117.703125 168.660156 L 96.824219 168.660156 Z M 120.757812 161.953125 L 141.636719 161.953125 L 141.636719 168.660156 L 120.757812 168.660156 Z M 144.691406 161.953125 L 165.570312 161.953125 L 165.570312 168.660156 L 144.691406 168.660156 Z M 168.582031 161.953125 L 189.460938 161.953125 L 189.460938 168.660156 L 168.582031 168.660156 Z M 192.472656 161.953125 L 213.351562 161.953125 L 213.351562 168.660156 L 192.472656 168.660156 Z M 49.039062 170.445312 L 69.917969 170.445312 L 69.917969 177.152344 L 49.039062 177.152344 Z M 72.933594 170.445312 L 93.808594 170.445312 L 93.808594 177.152344 L 72.933594 177.152344 Z M 96.824219 170.445312 L 117.703125 170.445312 L 117.703125 177.152344 L 96.824219 177.152344 Z M 120.757812 170.445312 L 141.636719 170.445312 L 141.636719 177.152344 L 120.757812 177.152344 Z M 144.691406 170.445312 L 165.570312 170.445312 L 165.570312 177.152344 L 144.691406 177.152344 Z M 168.582031 170.445312 L 189.460938 170.445312 L 189.460938 177.152344 L 168.582031 177.152344 Z M 49.039062 178.976562 L 69.917969 178.976562 L 69.917969 185.683594 L 49.039062 185.683594 Z M 96.824219 178.976562 L 117.703125 178.976562 L 117.703125 185.683594 L 96.824219 185.683594 Z M 120.757812 178.976562 L 141.636719 178.976562 L 141.636719 185.683594 L 120.757812 185.683594 Z M 168.582031 178.976562 L 189.460938 178.976562 L 189.460938 185.683594 L 168.582031 185.683594 Z M 49.039062 187.464844 L 69.917969 187.464844 L 69.917969 194.171875 L 49.039062 194.171875 Z M 96.824219 187.464844 L 117.703125 187.464844 L 117.703125 194.171875 L 96.824219 194.171875 Z M 120.757812 187.464844 L 141.636719 187.464844 L 141.636719 194.171875 L 120.757812 194.171875 Z M 168.582031 187.464844 L 189.460938 187.464844 L 189.460938 194.171875 L 168.582031 194.171875 Z M 96.824219 195.996094 L 117.703125 195.996094 L 117.703125 202.703125 L 96.824219 202.703125 Z M 120.757812 195.996094 L 141.636719 195.996094 L 141.636719 202.703125 L 120.757812 202.703125 Z M 168.582031 195.996094 L 189.460938 195.996094 L 189.460938 202.703125 L 168.582031 202.703125 Z M 120.757812 204.527344 L 141.636719 204.527344 L 141.636719 211.234375 L 120.757812 211.234375 Z M 120.757812 213.015625 L 141.636719 213.015625 L 141.636719 219.722656 L 120.757812 219.722656 Z M 120.757812 213.015625 " clip-rule="nonzero"/></clipPath><linearGradient x1="250" gradientTransform="matrix(0.424362, 0, 0, 0.42446, 25.106161, 25.108704)" y1="41.5" x2="250" gradientUnits="userSpaceOnUse" y2="458.49998" id="1d450a2451"><stop stop-opacity="1" stop-color="rgb(24.299622%, 67.799377%, 88.598633%)" offset="0"/><stop stop-opacity="1" stop-color="rgb(24.299622%, 67.799377%, 88.598633%)" offset="0.0625"/><stop stop-opacity="1" stop-color="rgb(24.447632%, 67.69104%, 88.565063%)" offset="0.09375"/><stop stop-opacity="1" stop-color="rgb(25.152588%, 67.178345%, 88.407898%)" offset="0.0976563"/><stop stop-opacity="1" stop-color="rgb(25.709534%, 66.773987%, 88.282776%)" offset="0.101563"/><stop stop-opacity="1" stop-color="rgb(26.264954%, 66.368103%, 88.157654%)" offset="0.105469"/><stop stop-opacity="1" stop-color="rgb(26.821899%, 65.963745%, 88.034058%)" offset="0.109375"/><stop stop-opacity="1" stop-color="rgb(27.377319%, 65.557861%, 87.908936%)" offset="0.113281"/><stop stop-opacity="1" stop-color="rgb(27.934265%, 65.153503%, 87.783813%)" offset="0.117188"/><stop stop-opacity="1" stop-color="rgb(28.489685%, 64.749146%, 87.658691%)" offset="0.121094"/><stop stop-opacity="1" stop-color="rgb(29.046631%, 64.344788%, 87.533569%)" offset="0.125"/><stop stop-opacity="1" stop-color="rgb(29.603577%, 63.938904%, 87.408447%)" offset="0.128906"/><stop stop-opacity="1" stop-color="rgb(30.160522%, 63.534546%, 87.284851%)" offset="0.132813"/><stop stop-opacity="1" stop-color="rgb(30.715942%, 63.130188%, 87.159729%)" offset="0.136719"/><stop stop-opacity="1" stop-color="rgb(31.272888%, 62.72583%, 87.034607%)" offset="0.140625"/><stop stop-opacity="1" stop-color="rgb(31.828308%, 62.319946%, 86.909485%)" offset="0.144531"/><stop stop-opacity="1" stop-color="rgb(32.385254%, 61.915588%, 86.785889%)" offset="0.148438"/><stop stop-opacity="1" stop-color="rgb(32.940674%, 61.509705%, 86.660767%)" offset="0.152344"/><stop stop-opacity="1" stop-color="rgb(33.49762%, 61.105347%, 86.535645%)" offset="0.15625"/><stop stop-opacity="1" stop-color="rgb(34.054565%, 60.700989%, 86.410522%)" offset="0.160156"/><stop stop-opacity="1" stop-color="rgb(34.611511%, 60.296631%, 86.286926%)" offset="0.164062"/><stop stop-opacity="1" stop-color="rgb(35.166931%, 59.890747%, 86.161804%)" offset="0.167969"/><stop stop-opacity="1" stop-color="rgb(35.723877%, 59.486389%, 86.036682%)" offset="0.171875"/><stop stop-opacity="1" stop-color="rgb(36.279297%, 59.080505%, 85.91156%)" offset="0.175781"/><stop stop-opacity="1" stop-color="rgb(36.836243%, 58.676147%, 85.786438%)" offset="0.179688"/><stop stop-opacity="1" stop-color="rgb(37.391663%, 58.27179%, 85.661316%)" offset="0.183594"/><stop stop-opacity="1" stop-color="rgb(37.948608%, 57.867432%, 85.53772%)" offset="0.1875"/><stop stop-opacity="1" stop-color="rgb(38.505554%, 57.461548%, 85.412598%)" offset="0.191406"/><stop stop-opacity="1" stop-color="rgb(39.0625%, 57.05719%, 85.287476%)" offset="0.195312"/><stop stop-opacity="1" stop-color="rgb(39.61792%, 56.651306%, 85.162354%)" offset="0.199219"/><stop stop-opacity="1" stop-color="rgb(40.174866%, 56.246948%, 85.038757%)" offset="0.203125"/><stop stop-opacity="1" stop-color="rgb(40.730286%, 55.84259%, 84.913635%)" offset="0.207031"/><stop stop-opacity="1" stop-color="rgb(41.287231%, 55.438232%, 84.788513%)" offset="0.210938"/><stop stop-opacity="1" stop-color="rgb(41.842651%, 55.032349%, 84.663391%)" offset="0.214844"/><stop stop-opacity="1" stop-color="rgb(42.399597%, 54.627991%, 84.539795%)" offset="0.21875"/><stop stop-opacity="1" stop-color="rgb(42.956543%, 54.223633%, 84.414673%)" offset="0.222656"/><stop stop-opacity="1" stop-color="rgb(43.513489%, 53.819275%, 84.289551%)" offset="0.226562"/><stop stop-opacity="1" stop-color="rgb(44.068909%, 53.413391%, 84.164429%)" offset="0.230469"/><stop stop-opacity="1" stop-color="rgb(44.625854%, 53.009033%, 84.039307%)" offset="0.234375"/><stop stop-opacity="1" stop-color="rgb(45.181274%, 52.603149%, 83.914185%)" offset="0.238281"/><stop stop-opacity="1" stop-color="rgb(45.73822%, 52.198792%, 83.790588%)" offset="0.242188"/><stop stop-opacity="1" stop-color="rgb(46.29364%, 51.794434%, 83.665466%)" offset="0.246094"/><stop stop-opacity="1" stop-color="rgb(46.850586%, 51.390076%, 83.540344%)" offset="0.25"/><stop stop-opacity="1" stop-color="rgb(47.407532%, 50.984192%, 83.415222%)" offset="0.253906"/><stop stop-opacity="1" stop-color="rgb(47.964478%, 50.579834%, 83.291626%)" offset="0.257812"/><stop stop-opacity="1" stop-color="rgb(48.519897%, 50.17395%, 83.166504%)" offset="0.261719"/><stop stop-opacity="1" stop-color="rgb(49.076843%, 49.769592%, 83.041382%)" offset="0.265625"/><stop stop-opacity="1" stop-color="rgb(49.632263%, 49.365234%, 82.91626%)" offset="0.269531"/><stop stop-opacity="1" stop-color="rgb(50.189209%, 48.960876%, 82.792664%)" offset="0.273438"/><stop stop-opacity="1" stop-color="rgb(50.744629%, 48.554993%, 82.667542%)" offset="0.277344"/><stop stop-opacity="1" stop-color="rgb(51.301575%, 48.150635%, 82.542419%)" offset="0.28125"/><stop stop-opacity="1" stop-color="rgb(51.858521%, 47.746277%, 82.417297%)" offset="0.285156"/><stop stop-opacity="1" stop-color="rgb(52.415466%, 47.341919%, 82.292175%)" offset="0.289062"/><stop stop-opacity="1" stop-color="rgb(52.970886%, 46.936035%, 82.167053%)" offset="0.292969"/><stop stop-opacity="1" stop-color="rgb(53.527832%, 46.531677%, 82.043457%)" offset="0.296875"/><stop stop-opacity="1" stop-color="rgb(54.083252%, 46.125793%, 81.918335%)" offset="0.300781"/><stop stop-opacity="1" stop-color="rgb(54.640198%, 45.721436%, 81.793213%)" offset="0.304688"/><stop stop-opacity="1" stop-color="rgb(55.195618%, 45.317078%, 81.668091%)" offset="0.308594"/><stop stop-opacity="1" stop-color="rgb(55.752563%, 44.91272%, 81.544495%)" offset="0.3125"/><stop stop-opacity="1" stop-color="rgb(56.309509%, 44.506836%, 81.419373%)" offset="0.316406"/><stop stop-opacity="1" stop-color="rgb(56.866455%, 44.102478%, 81.29425%)" offset="0.320313"/><stop stop-opacity="1" stop-color="rgb(57.421875%, 43.696594%, 81.169128%)" offset="0.324219"/><stop stop-opacity="1" stop-color="rgb(57.978821%, 43.292236%, 81.045532%)" offset="0.328125"/><stop stop-opacity="1" stop-color="rgb(58.534241%, 42.887878%, 80.92041%)" offset="0.332031"/><stop stop-opacity="1" stop-color="rgb(59.091187%, 42.483521%, 80.795288%)" offset="0.335938"/><stop stop-opacity="1" stop-color="rgb(59.646606%, 42.077637%, 80.670166%)" offset="0.339844"/><stop stop-opacity="1" stop-color="rgb(60.203552%, 41.673279%, 80.545044%)" offset="0.34375"/><stop stop-opacity="1" stop-color="rgb(60.760498%, 41.267395%, 80.419922%)" offset="0.347656"/><stop stop-opacity="1" stop-color="rgb(61.317444%, 40.863037%, 80.296326%)" offset="0.351563"/><stop stop-opacity="1" stop-color="rgb(61.872864%, 40.458679%, 80.171204%)" offset="0.355469"/><stop stop-opacity="1" stop-color="rgb(62.42981%, 40.054321%, 80.046082%)" offset="0.359375"/><stop stop-opacity="1" stop-color="rgb(62.985229%, 39.648438%, 79.920959%)" offset="0.363281"/><stop stop-opacity="1" stop-color="rgb(63.542175%, 39.24408%, 79.797363%)" offset="0.367188"/><stop stop-opacity="1" stop-color="rgb(64.097595%, 38.839722%, 79.672241%)" offset="0.371094"/><stop stop-opacity="1" stop-color="rgb(64.654541%, 38.435364%, 79.547119%)" offset="0.375"/><stop stop-opacity="1" stop-color="rgb(65.211487%, 38.02948%, 79.421997%)" offset="0.378906"/><stop stop-opacity="1" stop-color="rgb(65.768433%, 37.625122%, 79.298401%)" offset="0.382812"/><stop stop-opacity="1" stop-color="rgb(66.323853%, 37.219238%, 79.173279%)" offset="0.386719"/><stop stop-opacity="1" stop-color="rgb(66.880798%, 36.81488%, 79.048157%)" offset="0.390625"/><stop stop-opacity="1" stop-color="rgb(67.436218%, 36.410522%, 78.923035%)" offset="0.394531"/><stop stop-opacity="1" stop-color="rgb(67.993164%, 36.006165%, 78.797913%)" offset="0.398438"/><stop stop-opacity="1" stop-color="rgb(68.548584%, 35.600281%, 78.672791%)" offset="0.402344"/><stop stop-opacity="1" stop-color="rgb(69.10553%, 35.195923%, 78.549194%)" offset="0.40625"/><stop stop-opacity="1" stop-color="rgb(69.662476%, 34.790039%, 78.424072%)" offset="0.410156"/><stop stop-opacity="1" stop-color="rgb(70.219421%, 34.385681%, 78.29895%)" offset="0.414063"/><stop stop-opacity="1" stop-color="rgb(70.774841%, 33.981323%, 78.173828%)" offset="0.417969"/><stop stop-opacity="1" stop-color="rgb(71.331787%, 33.576965%, 78.050232%)" offset="0.421875"/><stop stop-opacity="1" stop-color="rgb(71.887207%, 33.171082%, 77.92511%)" offset="0.425781"/><stop stop-opacity="1" stop-color="rgb(72.444153%, 32.766724%, 77.799988%)" offset="0.429688"/><stop stop-opacity="1" stop-color="rgb(72.999573%, 32.362366%, 77.674866%)" offset="0.433594"/><stop stop-opacity="1" stop-color="rgb(73.556519%, 31.958008%, 77.55127%)" offset="0.4375"/><stop stop-opacity="1" stop-color="rgb(74.113464%, 31.552124%, 77.426147%)" offset="0.441406"/><stop stop-opacity="1" stop-color="rgb(74.67041%, 31.147766%, 77.301025%)" offset="0.445313"/><stop stop-opacity="1" stop-color="rgb(75.22583%, 30.741882%, 77.175903%)" offset="0.449219"/><stop stop-opacity="1" stop-color="rgb(75.782776%, 30.337524%, 77.050781%)" offset="0.453125"/><stop stop-opacity="1" stop-color="rgb(76.338196%, 29.933167%, 76.925659%)" offset="0.457031"/><stop stop-opacity="1" stop-color="rgb(76.895142%, 29.528809%, 76.802063%)" offset="0.460938"/><stop stop-opacity="1" stop-color="rgb(77.450562%, 29.122925%, 76.676941%)" offset="0.464844"/><stop stop-opacity="1" stop-color="rgb(78.007507%, 28.718567%, 76.551819%)" offset="0.46875"/><stop stop-opacity="1" stop-color="rgb(78.564453%, 28.312683%, 76.426697%)" offset="0.472656"/><stop stop-opacity="1" stop-color="rgb(79.121399%, 27.908325%, 76.303101%)" offset="0.476563"/><stop stop-opacity="1" stop-color="rgb(79.676819%, 27.503967%, 76.177979%)" offset="0.480469"/><stop stop-opacity="1" stop-color="rgb(80.233765%, 27.099609%, 76.052856%)" offset="0.484375"/><stop stop-opacity="1" stop-color="rgb(80.789185%, 26.693726%, 75.927734%)" offset="0.488281"/><stop stop-opacity="1" stop-color="rgb(81.34613%, 26.289368%, 75.804138%)" offset="0.492188"/><stop stop-opacity="1" stop-color="rgb(81.90155%, 25.883484%, 75.679016%)" offset="0.496094"/><stop stop-opacity="1" stop-color="rgb(82.458496%, 25.479126%, 75.553894%)" offset="0.5"/><stop stop-opacity="1" stop-color="rgb(83.015442%, 25.074768%, 75.428772%)" offset="0.503906"/><stop stop-opacity="1" stop-color="rgb(83.572388%, 24.67041%, 75.305176%)" offset="0.507812"/><stop stop-opacity="1" stop-color="rgb(84.127808%, 24.264526%, 75.180054%)" offset="0.511719"/><stop stop-opacity="1" stop-color="rgb(84.684753%, 23.860168%, 75.054932%)" offset="0.515625"/><stop stop-opacity="1" stop-color="rgb(85.240173%, 23.455811%, 74.92981%)" offset="0.519531"/><stop stop-opacity="1" stop-color="rgb(85.797119%, 23.051453%, 74.804688%)" offset="0.523438"/><stop stop-opacity="1" stop-color="rgb(86.352539%, 22.645569%, 74.679565%)" offset="0.527344"/><stop stop-opacity="1" stop-color="rgb(86.909485%, 22.241211%, 74.555969%)" offset="0.53125"/><stop stop-opacity="1" stop-color="rgb(87.466431%, 21.835327%, 74.430847%)" offset="0.535156"/><stop stop-opacity="1" stop-color="rgb(88.023376%, 21.430969%, 74.305725%)" offset="0.539063"/><stop stop-opacity="1" stop-color="rgb(88.578796%, 21.026611%, 74.180603%)" offset="0.542969"/><stop stop-opacity="1" stop-color="rgb(89.135742%, 20.622253%, 74.057007%)" offset="0.546875"/><stop stop-opacity="1" stop-color="rgb(89.691162%, 20.21637%, 73.931885%)" offset="0.550781"/><stop stop-opacity="1" stop-color="rgb(90.248108%, 19.812012%, 73.806763%)" offset="0.554688"/><stop stop-opacity="1" stop-color="rgb(90.805054%, 19.406128%, 73.681641%)" offset="0.558594"/><stop stop-opacity="1" stop-color="rgb(91.362%, 19.00177%, 73.558044%)" offset="0.5625"/><stop stop-opacity="1" stop-color="rgb(91.917419%, 18.597412%, 73.432922%)" offset="0.566406"/><stop stop-opacity="1" stop-color="rgb(92.474365%, 18.193054%, 73.3078%)" offset="0.570313"/><stop stop-opacity="1" stop-color="rgb(93.029785%, 17.78717%, 73.182678%)" offset="0.574219"/><stop stop-opacity="1" stop-color="rgb(93.586731%, 17.382812%, 73.057556%)" offset="0.578125"/><stop stop-opacity="1" stop-color="rgb(94.142151%, 16.978455%, 72.932434%)" offset="0.582031"/><stop stop-opacity="1" stop-color="rgb(94.699097%, 16.574097%, 72.808838%)" offset="0.585938"/><stop stop-opacity="1" stop-color="rgb(95.256042%, 16.168213%, 72.683716%)" offset="0.589844"/><stop stop-opacity="1" stop-color="rgb(95.812988%, 15.763855%, 72.558594%)" offset="0.59375"/><stop stop-opacity="1" stop-color="rgb(96.368408%, 15.357971%, 72.433472%)" offset="0.597656"/><stop stop-opacity="1" stop-color="rgb(96.925354%, 14.953613%, 72.309875%)" offset="0.601562"/><stop stop-opacity="1" stop-color="rgb(97.480774%, 14.549255%, 72.184753%)" offset="0.605469"/><stop stop-opacity="1" stop-color="rgb(98.03772%, 14.144897%, 72.059631%)" offset="0.609375"/><stop stop-opacity="1" stop-color="rgb(98.59314%, 13.739014%, 71.934509%)" offset="0.613281"/><stop stop-opacity="1" stop-color="rgb(99.150085%, 13.334656%, 71.810913%)" offset="0.617187"/><stop stop-opacity="1" stop-color="rgb(99.1745%, 13.294983%, 71.694946%)" offset="0.625"/><stop stop-opacity="1" stop-color="rgb(99.198914%, 13.232422%, 71.464539%)" offset="0.632812"/><stop stop-opacity="1" stop-color="rgb(99.198914%, 13.186646%, 71.234131%)" offset="0.640625"/><stop stop-opacity="1" stop-color="rgb(99.198914%, 13.140869%, 71.003723%)" offset="0.648438"/><stop stop-opacity="1" stop-color="rgb(99.198914%, 13.093567%, 70.774841%)" offset="0.65625"/><stop stop-opacity="1" stop-color="rgb(99.198914%, 13.047791%, 70.544434%)" offset="0.664062"/><stop stop-opacity="1" stop-color="rgb(99.198914%, 13.002014%, 70.314026%)" offset="0.671875"/><stop stop-opacity="1" stop-color="rgb(99.198914%, 12.956238%, 70.085144%)" offset="0.679687"/><stop stop-opacity="1" stop-color="rgb(99.198914%, 12.910461%, 69.815063%)" offset="0.6875"/><stop stop-opacity="1" stop-color="rgb(99.198914%, 12.867737%, 69.390869%)" offset="0.691406"/><stop stop-opacity="1" stop-color="rgb(99.198914%, 12.846375%, 69.122314%)" offset="0.695312"/><stop stop-opacity="1" stop-color="rgb(99.198914%, 12.825012%, 68.852234%)" offset="0.699219"/><stop stop-opacity="1" stop-color="rgb(99.198914%, 12.80365%, 68.583679%)" offset="0.703125"/><stop stop-opacity="1" stop-color="rgb(99.198914%, 12.782288%, 68.313599%)" offset="0.707031"/><stop stop-opacity="1" stop-color="rgb(99.198914%, 12.760925%, 68.045044%)" offset="0.710938"/><stop stop-opacity="1" stop-color="rgb(99.198914%, 12.739563%, 67.774963%)" offset="0.714844"/><stop stop-opacity="1" stop-color="rgb(99.198914%, 12.719727%, 67.504883%)" offset="0.71875"/><stop stop-opacity="1" stop-color="rgb(99.198914%, 12.698364%, 67.234802%)" offset="0.722656"/><stop stop-opacity="1" stop-color="rgb(99.198914%, 12.677002%, 66.966248%)" offset="0.726562"/><stop stop-opacity="1" stop-color="rgb(99.198914%, 12.65564%, 66.696167%)" offset="0.730469"/><stop stop-opacity="1" stop-color="rgb(99.198914%, 12.634277%, 66.427612%)" offset="0.734375"/><stop stop-opacity="1" stop-color="rgb(99.198914%, 12.612915%, 66.157532%)" offset="0.738281"/><stop stop-opacity="1" stop-color="rgb(99.198914%, 12.593079%, 65.888977%)" offset="0.742188"/><stop stop-opacity="1" stop-color="rgb(99.198914%, 12.571716%, 65.618896%)" offset="0.746094"/><stop stop-opacity="1" stop-color="rgb(99.198914%, 12.550354%, 65.350342%)" offset="0.75"/><stop stop-opacity="1" stop-color="rgb(99.198914%, 12.528992%, 65.080261%)" offset="0.753906"/><stop stop-opacity="1" stop-color="rgb(99.198914%, 12.507629%, 64.810181%)" offset="0.757812"/><stop stop-opacity="1" stop-color="rgb(99.198914%, 12.460327%, 64.416504%)" offset="0.761719"/><stop stop-opacity="1" stop-color="rgb(99.198914%, 12.413025%, 64.022827%)" offset="0.765625"/><stop stop-opacity="1" stop-color="rgb(99.198914%, 12.358093%, 63.595581%)" offset="0.769531"/><stop stop-opacity="1" stop-color="rgb(99.198914%, 12.303162%, 63.168335%)" offset="0.773437"/><stop stop-opacity="1" stop-color="rgb(99.198914%, 12.24823%, 62.741089%)" offset="0.777344"/><stop stop-opacity="1" stop-color="rgb(99.198914%, 12.194824%, 62.315369%)" offset="0.78125"/><stop stop-opacity="1" stop-color="rgb(99.198914%, 12.139893%, 61.888123%)" offset="0.785156"/><stop stop-opacity="1" stop-color="rgb(99.198914%, 12.084961%, 61.460876%)" offset="0.789062"/><stop stop-opacity="1" stop-color="rgb(99.198914%, 12.030029%, 61.03363%)" offset="0.792969"/><stop stop-opacity="1" stop-color="rgb(99.198914%, 11.976624%, 60.60791%)" offset="0.796875"/><stop stop-opacity="1" stop-color="rgb(99.198914%, 11.921692%, 60.180664%)" offset="0.800781"/><stop stop-opacity="1" stop-color="rgb(99.198914%, 11.86676%, 59.753418%)" offset="0.804688"/><stop stop-opacity="1" stop-color="rgb(99.198914%, 11.811829%, 59.326172%)" offset="0.808594"/><stop stop-opacity="1" stop-color="rgb(99.198914%, 11.756897%, 58.900452%)" offset="0.8125"/><stop stop-opacity="1" stop-color="rgb(99.198914%, 11.701965%, 58.473206%)" offset="0.816406"/><stop stop-opacity="1" stop-color="rgb(99.198914%, 11.64856%, 58.045959%)" offset="0.820313"/><stop stop-opacity="1" stop-color="rgb(99.198914%, 11.593628%, 57.618713%)" offset="0.824219"/><stop stop-opacity="1" stop-color="rgb(99.198914%, 11.538696%, 57.192993%)" offset="0.828125"/><stop stop-opacity="1" stop-color="rgb(99.198914%, 11.483765%, 56.765747%)" offset="0.832031"/><stop stop-opacity="1" stop-color="rgb(99.198914%, 11.430359%, 56.338501%)" offset="0.835938"/><stop stop-opacity="1" stop-color="rgb(99.198914%, 11.372375%, 55.781555%)" offset="0.839844"/><stop stop-opacity="1" stop-color="rgb(99.198914%, 11.315918%, 55.226135%)" offset="0.84375"/><stop stop-opacity="1" stop-color="rgb(99.198914%, 11.257935%, 54.618835%)" offset="0.847656"/><stop stop-opacity="1" stop-color="rgb(99.198914%, 11.199951%, 54.011536%)" offset="0.851562"/><stop stop-opacity="1" stop-color="rgb(99.198914%, 11.141968%, 53.404236%)" offset="0.855469"/><stop stop-opacity="1" stop-color="rgb(99.198914%, 11.08551%, 52.798462%)" offset="0.859375"/><stop stop-opacity="1" stop-color="rgb(99.198914%, 11.027527%, 52.191162%)" offset="0.863281"/><stop stop-opacity="1" stop-color="rgb(99.198914%, 10.969543%, 51.583862%)" offset="0.867188"/><stop stop-opacity="1" stop-color="rgb(99.198914%, 10.91156%, 50.976562%)" offset="0.871094"/><stop stop-opacity="1" stop-color="rgb(99.198914%, 10.853577%, 50.370789%)" offset="0.875"/><stop stop-opacity="1" stop-color="rgb(99.198914%, 10.795593%, 49.763489%)" offset="0.878906"/><stop stop-opacity="1" stop-color="rgb(99.198914%, 10.73761%, 49.156189%)" offset="0.882812"/><stop stop-opacity="1" stop-color="rgb(99.198914%, 10.679626%, 48.548889%)" offset="0.886719"/><stop stop-opacity="1" stop-color="rgb(99.198914%, 10.621643%, 47.941589%)" offset="0.890625"/><stop stop-opacity="1" stop-color="rgb(99.198914%, 10.56366%, 47.33429%)" offset="0.894531"/><stop stop-opacity="1" stop-color="rgb(99.198914%, 10.507202%, 46.728516%)" offset="0.898438"/><stop stop-opacity="1" stop-color="rgb(99.198914%, 10.449219%, 46.121216%)" offset="0.902344"/><stop stop-opacity="1" stop-color="rgb(99.198914%, 10.391235%, 45.513916%)" offset="0.90625"/><stop stop-opacity="1" stop-color="rgb(99.198914%, 10.333252%, 44.906616%)" offset="0.910156"/><stop stop-opacity="1" stop-color="rgb(99.198914%, 10.275269%, 44.299316%)" offset="0.914062"/><stop stop-opacity="1" stop-color="rgb(99.198914%, 10.205078%, 43.652344%)" offset="0.917969"/><stop stop-opacity="1" stop-color="rgb(99.198914%, 10.134888%, 43.005371%)" offset="0.921875"/><stop stop-opacity="1" stop-color="rgb(99.198914%, 10.038757%, 42.279053%)" offset="0.925781"/><stop stop-opacity="1" stop-color="rgb(99.198914%, 9.944153%, 41.552734%)" offset="0.929687"/><stop stop-opacity="1" stop-color="rgb(99.198914%, 9.849548%, 40.82489%)" offset="0.933594"/><stop stop-opacity="1" stop-color="rgb(99.198914%, 9.754944%, 40.098572%)" offset="0.9375"/><stop stop-opacity="1" stop-color="rgb(99.198914%, 9.658813%, 39.372253%)" offset="0.941406"/><stop stop-opacity="1" stop-color="rgb(99.198914%, 9.564209%, 38.645935%)" offset="0.945312"/><stop stop-opacity="1" stop-color="rgb(99.198914%, 9.469604%, 37.919617%)" offset="0.949219"/><stop stop-opacity="1" stop-color="rgb(99.198914%, 9.375%, 37.193298%)" offset="0.953125"/><stop stop-opacity="1" stop-color="rgb(99.198914%, 9.280396%, 36.46698%)" offset="0.957031"/><stop stop-opacity="1" stop-color="rgb(99.198914%, 9.185791%, 35.740662%)" offset="0.960938"/><stop stop-opacity="1" stop-color="rgb(99.198914%, 9.089661%, 35.014343%)" offset="0.964844"/><stop stop-opacity="1" stop-color="rgb(99.198914%, 8.995056%, 34.288025%)" offset="0.96875"/><stop stop-opacity="1" stop-color="rgb(99.198914%, 8.900452%, 33.561707%)" offset="0.972656"/><stop stop-opacity="1" stop-color="rgb(99.198914%, 8.805847%, 32.835388%)" offset="0.976562"/><stop stop-opacity="1" stop-color="rgb(99.198914%, 8.709717%, 32.10907%)" offset="0.980469"/><stop stop-opacity="1" stop-color="rgb(99.198914%, 8.615112%, 31.382751%)" offset="0.984375"/><stop stop-opacity="1" stop-color="rgb(99.198914%, 8.520508%, 30.656433%)" offset="0.988281"/><stop stop-opacity="1" stop-color="rgb(99.198914%, 8.425903%, 29.930115%)" offset="0.992188"/><stop stop-opacity="1" stop-color="rgb(99.198914%, 8.329773%, 29.203796%)" offset="0.996094"/><stop stop-opacity="1" stop-color="rgb(99.198914%, 8.235168%, 28.477478%)" offset="1"/></linearGradient></defs><g clip-path="url(#7676009177)"><path fill="url(#1d450a2451)" d="M 25.105469 42.722656 L 25.105469 219.722656 L 237.285156 219.722656 L 237.285156 42.722656 Z M 25.105469 42.722656 " fill-rule="nonzero"/></g></svg>