<svg xmlns="http://www.w3.org/2000/svg" xmlns:xlink="http://www.w3.org/1999/xlink" width="350" zoomAndPan="magnify" viewBox="0 0 262.5 262.500001" height="350" preserveAspectRatio="xMidYMid meet" version="1.0"><defs><clipPath id="778544ad12"><path d="M 24.40625 101 L 175 101 L 175 192 L 24.40625 192 Z M 24.40625 101 " clip-rule="nonzero"/></clipPath><clipPath id="902588e40c"><path d="M 229 103 L 238.15625 103 L 238.15625 190 L 229 190 Z M 229 103 " clip-rule="nonzero"/></clipPath><clipPath id="61c9bccf00"><path d="M 63 209.460938 L 136 209.460938 L 136 220.664062 L 63 220.664062 Z M 63 209.460938 " clip-rule="nonzero"/></clipPath><clipPath id="623a4b8f7c"><path d="M 29 41.5 L 96 41.5 L 96 109 L 29 109 Z M 29 41.5 " clip-rule="nonzero"/></clipPath><clipPath id="64161a6642"><path d="M 103 41.5 L 171 41.5 L 171 109 L 103 109 Z M 103 41.5 " clip-rule="nonzero"/></clipPath></defs><g clip-path="url(#778544ad12)"><path fill="#61b1e6" d="M 155.5625 168.664062 C 155.5625 172.476562 152.460938 175.503906 148.777344 175.503906 L 105.15625 175.503906 C 101.375 175.503906 98.273438 172.476562 98.273438 168.664062 L 98.273438 124.679688 C 98.273438 120.867188 101.375 117.835938 105.15625 117.835938 L 148.777344 117.835938 C 152.460938 117.835938 155.5625 120.867188 155.5625 124.679688 Z M 79.273438 134.0625 L 39.625 134.0625 C 37.6875 134.0625 36.136719 132.5 36.136719 130.542969 C 36.136719 128.589844 37.6875 126.925781 39.625 126.925781 L 79.273438 126.925781 C 81.210938 126.925781 82.761719 128.589844 82.761719 130.542969 C 82.761719 132.5 81.210938 134.0625 79.273438 134.0625 Z M 79.273438 150.191406 C 66.089844 150.191406 52.90625 150.191406 39.625 150.191406 C 37.6875 150.191406 36.136719 148.625 36.136719 146.671875 C 36.136719 144.714844 37.6875 143.152344 39.625 143.152344 C 52.90625 143.152344 66.089844 143.152344 79.273438 143.152344 C 81.210938 143.152344 82.761719 144.714844 82.761719 146.671875 C 82.761719 148.625 81.210938 150.191406 79.273438 150.191406 Z M 79.273438 166.417969 L 39.625 166.417969 C 37.6875 166.417969 36.136719 164.753906 36.136719 162.796875 C 36.136719 160.84375 37.6875 159.277344 39.625 159.277344 L 79.273438 159.277344 C 81.210938 159.277344 82.761719 160.84375 82.761719 162.796875 C 82.761719 164.753906 81.210938 166.417969 79.273438 166.417969 Z M 161.769531 101.609375 C 155.273438 107.964844 146.449219 111.777344 136.660156 111.777344 C 126.964844 111.777344 118.144531 107.964844 111.648438 101.609375 L 87.609375 101.609375 C 81.113281 107.964844 72.292969 111.777344 62.597656 111.777344 C 52.808594 111.777344 43.984375 107.964844 37.492188 101.609375 C 30.222656 102.003906 24.40625 108.0625 24.40625 115.492188 L 24.40625 177.851562 C 24.40625 185.476562 30.609375 191.730469 38.171875 191.730469 L 161.089844 191.730469 C 168.648438 191.730469 174.855469 185.476562 174.855469 177.851562 L 174.855469 115.492188 C 174.855469 108.0625 169.039062 102.003906 161.769531 101.609375 " fill-opacity="1" fill-rule="evenodd"/></g><path fill="#61b1e6" d="M 177.761719 165.339844 L 184.449219 165.339844 L 184.449219 128.003906 L 177.761719 128.003906 L 177.761719 165.339844 " fill-opacity="1" fill-rule="evenodd"/><path fill="#61b1e6" d="M 187.359375 128.003906 C 187.359375 134.257812 187.359375 140.414062 187.359375 146.671875 C 187.359375 152.925781 187.359375 159.085938 187.359375 165.339844 C 190.945312 167 195.308594 168.957031 200.640625 171.402344 C 207.230469 174.527344 215.761719 178.4375 227.007812 183.617188 C 227.007812 171.300781 227.007812 158.988281 227.007812 146.671875 C 227.007812 134.355469 227.007812 122.039062 227.007812 109.722656 C 215.761719 114.90625 207.230469 118.816406 200.640625 121.84375 C 195.308594 124.386719 190.945312 126.339844 187.359375 128.003906 " fill-opacity="1" fill-rule="evenodd"/><g clip-path="url(#902588e40c)"><path fill="#61b1e6" d="M 234.085938 103.957031 C 231.757812 103.957031 229.914062 105.8125 229.914062 108.0625 L 229.914062 185.28125 C 229.914062 187.527344 231.757812 189.386719 234.085938 189.386719 C 236.3125 189.386719 238.15625 187.527344 238.15625 185.28125 L 238.15625 108.0625 C 238.15625 105.8125 236.3125 103.957031 234.085938 103.957031 " fill-opacity="1" fill-rule="evenodd"/></g><path fill="#61b1e6" d="M 84.800781 194.664062 L 84.800781 206.785156 L 114.460938 206.785156 L 114.460938 194.664062 L 84.800781 194.664062 " fill-opacity="1" fill-rule="evenodd"/><g clip-path="url(#61c9bccf00)"><path fill="#61b1e6" d="M 125.222656 209.714844 L 74.039062 209.714844 C 68.125 209.714844 63.277344 214.601562 63.277344 220.660156 L 135.980469 220.660156 C 135.980469 214.601562 131.136719 209.714844 125.222656 209.714844 " fill-opacity="1" fill-rule="evenodd"/></g><g clip-path="url(#623a4b8f7c)"><path fill="#61b1e6" d="M 43.113281 79.132812 C 46.214844 77.371094 50.09375 78.347656 51.839844 81.476562 C 53.585938 84.507812 52.519531 88.414062 49.511719 90.273438 C 46.507812 92.03125 42.628906 90.957031 40.789062 87.929688 C 39.042969 84.800781 40.109375 80.890625 43.113281 79.132812 Z M 40.789062 62.613281 C 42.628906 59.484375 46.507812 58.410156 49.511719 60.265625 C 52.519531 62.023438 53.585938 65.933594 51.839844 68.964844 C 50.09375 72.09375 46.214844 73.070312 43.113281 71.3125 C 40.109375 69.550781 39.042969 65.640625 40.789062 62.613281 Z M 62.597656 87.730469 C 66.089844 87.730469 68.898438 90.566406 68.898438 94.085938 C 68.898438 97.699219 66.089844 100.535156 62.597656 100.535156 C 59.011719 100.535156 56.199219 97.699219 56.199219 94.085938 C 56.199219 90.566406 59.011719 87.730469 62.597656 87.730469 Z M 67.832031 75.21875 C 67.832031 78.152344 65.410156 80.5 62.597656 80.5 C 59.691406 80.5 57.363281 78.152344 57.363281 75.21875 C 57.363281 72.289062 59.691406 69.941406 62.597656 69.941406 C 65.410156 69.941406 67.832031 72.289062 67.832031 75.21875 Z M 62.597656 49.90625 C 66.089844 49.90625 68.898438 52.738281 68.898438 56.355469 C 68.898438 59.875 66.089844 62.707031 62.597656 62.707031 C 59.011719 62.707031 56.199219 59.875 56.199219 56.355469 C 56.199219 52.738281 59.011719 49.90625 62.597656 49.90625 Z M 73.261719 81.476562 C 75.007812 78.347656 78.980469 77.371094 81.984375 79.132812 C 84.992188 80.890625 86.058594 84.800781 84.3125 87.929688 C 82.570312 90.957031 78.691406 92.03125 75.589844 90.273438 C 72.585938 88.414062 71.519531 84.507812 73.261719 81.476562 Z M 75.589844 60.265625 C 78.691406 58.410156 82.570312 59.484375 84.3125 62.613281 C 86.058594 65.640625 84.992188 69.550781 81.984375 71.3125 C 78.980469 73.070312 75.007812 72.09375 73.261719 68.964844 C 71.519531 65.933594 72.585938 62.023438 75.589844 60.265625 Z M 62.597656 108.84375 C 81.019531 108.84375 95.945312 93.792969 95.945312 75.21875 C 95.945312 56.648438 81.019531 41.597656 62.597656 41.597656 C 44.179688 41.597656 29.25 56.648438 29.25 75.21875 C 29.25 93.792969 44.179688 108.84375 62.597656 108.84375 " fill-opacity="1" fill-rule="evenodd"/></g><g clip-path="url(#64161a6642)"><path fill="#61b1e6" d="M 117.273438 79.132812 C 120.277344 77.371094 124.25 78.347656 125.996094 81.476562 C 127.742188 84.507812 126.675781 88.414062 123.671875 90.273438 C 120.570312 92.03125 116.691406 90.957031 114.945312 87.929688 C 113.199219 84.800781 114.269531 80.890625 117.273438 79.132812 Z M 114.945312 62.613281 C 116.691406 59.484375 120.570312 58.410156 123.671875 60.265625 C 126.675781 62.023438 127.742188 65.933594 125.996094 68.964844 C 124.25 72.09375 120.277344 73.070312 117.273438 71.3125 C 114.269531 69.550781 113.199219 65.640625 114.945312 62.613281 Z M 136.660156 87.730469 C 140.246094 87.730469 143.058594 90.566406 143.058594 94.085938 C 143.058594 97.699219 140.246094 100.535156 136.660156 100.535156 C 133.171875 100.535156 130.359375 97.699219 130.359375 94.085938 C 130.359375 90.566406 133.171875 87.730469 136.660156 87.730469 Z M 141.894531 75.21875 C 141.894531 78.152344 139.570312 80.5 136.660156 80.5 C 133.847656 80.5 131.523438 78.152344 131.523438 75.21875 C 131.523438 72.289062 133.847656 69.941406 136.660156 69.941406 C 139.570312 69.941406 141.894531 72.289062 141.894531 75.21875 Z M 136.660156 49.90625 C 140.246094 49.90625 143.058594 52.738281 143.058594 56.355469 C 143.058594 59.875 140.246094 62.707031 136.660156 62.707031 C 133.171875 62.707031 130.359375 59.875 130.359375 56.355469 C 130.359375 52.738281 133.171875 49.90625 136.660156 49.90625 Z M 147.421875 81.476562 C 149.164062 78.347656 153.042969 77.371094 156.144531 79.132812 C 159.152344 80.890625 160.214844 84.800781 158.472656 87.929688 C 156.726562 90.957031 152.75 92.03125 149.746094 90.273438 C 146.742188 88.414062 145.675781 84.507812 147.421875 81.476562 Z M 149.746094 60.265625 C 152.75 58.410156 156.726562 59.484375 158.472656 62.613281 C 160.214844 65.640625 159.152344 69.550781 156.144531 71.3125 C 153.042969 73.070312 149.164062 72.09375 147.421875 68.964844 C 145.675781 65.933594 146.742188 62.023438 149.746094 60.265625 Z M 136.660156 108.84375 C 155.078125 108.84375 170.105469 93.792969 170.105469 75.21875 C 170.105469 56.648438 155.078125 41.597656 136.660156 41.597656 C 118.242188 41.597656 103.3125 56.648438 103.3125 75.21875 C 103.3125 93.792969 118.242188 108.84375 136.660156 108.84375 " fill-opacity="1" fill-rule="evenodd"/></g></svg>